<svg xmlns="http://www.w3.org/2000/svg" viewBox="0 0 130 65.177"><path fill="#F7B334" d="M16.642 14.455c1.37.58 2.785 1.18 4.764 1.18 1.97 0 3.694-.59 5.364-1.164 1.61-.55 3.273-1.12 5.078-1.12 1.063 0 2.067.19 3.07.59 2.402.95 5.126 1.91 7.057 2.57C39.38 6.81 31.068 0 21.405 0 11.735 0 3.388 6.852.815 16.58c2.367-.6 6.035-1.604 8.675-2.646 1.003-.395 1.953-.587 2.91-.587 1.628 0 2.956.562 4.242 1.108z"/><path fill="#732282" d="M10.642 39.976c-.58 0-1.126-.01-1.63-.023 4.836 5.433 10.235 9.9 12.394 11.613 2.128-1.692 7.416-6.064 12.19-11.39-3.394-1.102-5.977-1.693-8.738-1.693-1.664 0-3.407.206-5.486.646-2.65.56-5.588.84-8.73.84z"/><path fill="#77BC1F" d="M31.847 16.218c-1.255 0-2.535.44-4.014.95-1.834.626-3.91 1.34-6.427 1.34-2.647 0-4.528-.796-6.038-1.437-1.122-.47-2.006-.85-2.967-.85-.53 0-1.09.12-1.7.36-3.12 1.23-8.08 2.57-10.49 3.14-.13 1.04-.2 2.08-.2 3.1 0 3.91 2.18 8.65 6.47 14.11.8.08 2.3.19 4.18.19 2.91 0 5.62-.26 8.05-.77 2.31-.49 4.27-.72 6.17-.72 3.47 0 6.55.77 10.78 2.19 4.76-5.82 7.17-10.85 7.17-14.99 0-1-.06-2.02-.19-3.04-1.7-.56-5.55-1.87-8.89-3.19-.61-.24-1.23-.36-1.87-.36z"/><path fill="#2D2D2D" d="M51.522 13.86h1.595v50.098h-1.595zm23.7 26.45v-7.453c0-.672-.23-1.19-.69-1.558-.46-.37-1.102-.56-1.93-.56-.81 0-1.465.19-1.963.56-.5.37-.75.89-.75 1.54v7.46h-1.51v-7.45c0-.67-.24-1.19-.7-1.56-.47-.37-1.12-.55-1.95-.55-.81 0-1.47.19-1.97.57-.5.38-.75.89-.75 1.55v7.45h-1.5V29.67h1.36l.04 1.174c.28-.39.67-.724 1.17-1s1.19-.41 2.08-.41c.7 0 1.34.154 1.9.46.56.305.98.708 1.24 1.21.27-.455.7-.847 1.3-1.175.6-.33 1.4-.5 2.39-.5.53 0 1.02.08 1.47.23.44.15.83.38 1.16.67.33.29.58.63.77 1.04.18.41.28.85.28 1.34v7.59h-1.5zm12.8-6.936v.377c0 .13-.015.25-.046.36l-.896.88h-7.15c-.03.54.05 1.06.237 1.57.19.51.472.97.85 1.36.377.4.833.71 1.368.96.535.24 1.133.37 1.793.37.644 0 1.235-.08 1.77-.25.534-.16 1.06-.43 1.58-.81l-.424 1.65c-.408.24-.86.42-1.356.54-.495.13-1.073.19-1.735.19-.77 0-1.498-.13-2.182-.41-.68-.27-1.28-.65-1.79-1.14-.51-.48-.91-1.07-1.21-1.76-.3-.68-.45-1.43-.45-2.25 0-.86.15-1.64.45-2.32.3-.68.69-1.27 1.18-1.75.49-.49 1.04-.86 1.65-1.12.62-.26 1.25-.39 1.89-.39.72 0 1.37.11 1.92.34.56.23 1.03.53 1.41.91.38.38.67.8.86 1.28.2.48.3.97.3 1.45zm-1.485.094c0-.314-.064-.632-.19-.955-.126-.32-.31-.618-.554-.885-.244-.267-.546-.487-.91-.66-.36-.172-.785-.26-1.272-.26-.44 0-.86.088-1.26.26-.4.173-.76.4-1.07.684-.31.283-.58.61-.8.98-.22.368-.36.75-.42 1.143h6.47c.02-.063.03-.166.03-.307zM97.91 40.31l-.048-.897c-.363.377-.83.66-1.404.85-.574.188-1.206.28-1.9.28-.66 0-1.312-.124-1.956-.376-.646-.25-1.223-.617-1.734-1.097-.51-.48-.92-1.062-1.227-1.746-.3-.684-.46-1.466-.46-2.347 0-.817.15-1.57.43-2.253.29-.683.68-1.274 1.18-1.768.51-.496 1.1-.88 1.78-1.157.69-.28 1.43-.42 2.23-.42.6 0 1.16.08 1.68.26.52.17.94.37 1.25.61v-6.74h1.51V40.3h-1.32zm-.19-8.47c-.315-.313-.73-.58-1.25-.8-.52-.222-1.078-.33-1.676-.33-.582 0-1.12.104-1.617.318-.495.212-.927.507-1.297.884-.37.378-.66.826-.873 1.344-.212.52-.318 1.094-.318 1.723 0 .62.1 1.2.31 1.72s.5.97.87 1.34c.37.38.8.67 1.29.87.49.2 1.03.3 1.61.3.61 0 1.17-.1 1.67-.31s.92-.49 1.25-.85v-6.22zm6.207-5.425c0 .095-.036.208-.106.342-.07.134-.16.26-.27.377-.11.118-.22.217-.33.296-.11.08-.21.12-.31.12-.09 0-.19-.04-.3-.12-.11-.078-.21-.178-.32-.296-.1-.117-.19-.243-.26-.377s-.1-.247-.1-.342c0-.094.04-.208.11-.34.07-.135.16-.26.26-.38.11-.117.21-.22.32-.305.11-.087.22-.13.31-.13s.2.043.31.13c.11.086.22.188.33.306.11.118.2.245.27.378s.11.247.11.34zm-1.77 13.894V29.62h1.51v10.69h-1.51zm12.53-8.78c-.41-.27-.87-.47-1.38-.62-.51-.14-1.044-.21-1.594-.21-.598 0-1.16.1-1.687.3-.527.2-.982.49-1.368.87-.385.37-.688.83-.908 1.35-.22.52-.33 1.1-.33 1.73 0 .62.114 1.2.342 1.72.228.52.534.97.92 1.34.385.38.84.67 1.367.87.52.2 1.09.31 1.71.31.55 0 1.07-.06 1.56-.18s1.02-.32 1.57-.61l-.38 1.51c-.37.2-.8.35-1.3.45-.5.09-1.03.14-1.58.14-.76 0-1.48-.13-2.17-.39s-1.3-.64-1.83-1.12c-.53-.49-.95-1.08-1.26-1.76-.32-.69-.47-1.45-.47-2.3 0-.85.15-1.62.46-2.31.3-.69.72-1.28 1.25-1.76.52-.48 1.13-.86 1.82-1.12.69-.27 1.42-.4 2.19-.4.69 0 1.32.08 1.88.23.56.16 1.05.35 1.46.59l-.31 1.32zm9.555 9.01c-.362-.08-.7-.27-1.015-.57-.315-.3-.513-.66-.59-1.07-.284.5-.71.9-1.274 1.19-.567.29-1.18.43-1.84.43-.504 0-.964-.09-1.38-.25-.417-.17-.778-.39-1.086-.67-.306-.28-.54-.61-.708-.99-.17-.38-.25-.79-.25-1.23 0-.52.09-.98.28-1.37.19-.4.44-.73.76-1 .32-.28.69-.49 1.09-.64.41-.15.83-.25 1.27-.3l2.85-.28v-1c0-.66-.22-1.18-.66-1.56-.44-.38-1.06-.57-1.86-.57-.51 0-1.01.08-1.52.22-.51.15-.95.33-1.31.56l-.31-1.25c.41-.28.89-.49 1.46-.64.56-.14 1.14-.21 1.74-.21.56 0 1.09.08 1.58.24.48.16.91.39 1.26.69.35.3.63.67.82 1.12.2.45.29.96.29 1.52v4.89c0 .53.13.94.4 1.23.26.28.57.45.92.52l-.97.96zm-1.864-5.47l-2.618.23c-.692.06-1.235.28-1.627.66-.393.38-.59.86-.59 1.44 0 .53.197.98.59 1.33.392.35.872.53 1.44.53.313 0 .635-.07.965-.2.33-.14.633-.32.908-.56.276-.24.5-.53.674-.86.172-.34.26-.72.26-1.15v-1.44zm6.608 5.59c-.204-.07-.42-.16-.642-.28-.223-.13-.423-.3-.598-.51-.176-.22-.324-.48-.444-.79-.12-.32-.18-.69-.18-1.11V23.51h1.51v14.3c0 .502.14.915.414 1.237.275.323.594.523.955.602l-1.01 1.01zM69.02 48.64h-3.694v7.142c0 .545.162.95.484 1.214.323.265.715.398 1.178.398.53 0 .958-.076 1.29-.223l-.373 1.49c-.248.09-.596.13-1.04.13-.877 0-1.618-.26-2.22-.78-.604-.52-.906-1.27-.906-2.27v-7.09H61.4v-1.29h2.33v-2.43l1.588-.82v3.25h4.018l-.32 1.29zM81.592 53c0 .86-.148 1.647-.446 2.358-.298.71-.71 1.326-1.24 1.847-.53.52-1.153.925-1.872 1.216-.72.29-1.5.44-2.344.44-.843 0-1.623-.14-2.343-.43s-1.343-.69-1.87-1.21c-.53-.52-.948-1.13-1.254-1.84-.306-.71-.458-1.49-.458-2.35 0-.86.153-1.64.458-2.36.306-.72.723-1.34 1.253-1.86.53-.52 1.152-.92 1.87-1.21.72-.29 1.5-.44 2.344-.44.844 0 1.625.15 2.344.44.72.29 1.343.69 1.872 1.22.53.52.942 1.14 1.24 1.86.298.72.446 1.51.446 2.37zm-1.587 0c0-.658-.112-1.263-.334-1.808-.22-.545-.53-1.017-.93-1.413-.39-.4-.85-.71-1.37-.93-.52-.23-1.08-.34-1.67-.34-.61 0-1.18.11-1.71.33-.53.22-.98.53-1.37.93-.39.39-.69.86-.91 1.41-.22.54-.33 1.15-.33 1.81 0 .66.11 1.26.34 1.81.22.54.53 1.01.92 1.41.39.39.85.7 1.38.91.53.21 1.1.32 1.71.32.6 0 1.16-.11 1.68-.32.52-.22.98-.52 1.38-.92s.71-.87.93-1.42c.23-.55.34-1.15.34-1.81zm11.33 5.607l-.05-1.364c-.294.43-.732.806-1.31 1.13-.575.32-1.357.482-2.346.482-.61 0-1.18-.09-1.7-.272-.52-.182-.98-.44-1.36-.77-.39-.33-.69-.74-.91-1.226-.22-.488-.32-1.038-.32-1.65v-7.562h1.58v7.394c0 .79.26 1.43.79 1.94.52.5 1.28.75 2.29.75.96 0 1.73-.25 2.31-.76.57-.51.86-1.15.86-1.94v-7.39h1.59V58.6h-1.44zm9.547-10.043c-.53 0-1.032.096-1.512.285-.48.19-.9.47-1.265.84-.364.37-.653.84-.867 1.41-.215.57-.323 1.23-.323 1.99v5.51H95.33V47.37h1.512l.073 2.156c.232-.692.69-1.25 1.377-1.67.686-.42 1.526-.633 2.517-.633l.32 1.34h-.25zM104.8 44c0 .1-.037.22-.11.36-.075.142-.17.274-.286.397-.115.125-.23.228-.346.31-.116.084-.224.125-.323.125-.1 0-.208-.04-.323-.124-.116-.083-.227-.185-.334-.31-.11-.124-.2-.257-.272-.397-.076-.14-.113-.26-.113-.36 0-.09.037-.21.113-.35.074-.14.164-.27.272-.39.108-.12.218-.23.334-.32.115-.09.223-.13.323-.13s.207.05.323.14c.115.09.23.2.346.33.116.12.212.26.285.4.07.14.11.26.11.36zm-1.86 14.607V47.375h1.587v11.232h-1.586zm11.208-2.927c0 .942-.343 1.708-1.03 2.294-.685.586-1.624.88-2.814.88-.694 0-1.31-.086-1.847-.26-.538-.174-.972-.393-1.302-.658l-.42-1.81c.46.43 1 .768 1.617 1.017.617.25 1.27.372 1.962.372.626 0 1.157-.157 1.592-.472.436-.314.654-.743.654-1.288 0-.53-.19-.963-.567-1.302-.378-.34-.88-.625-1.506-.856-1.037-.38-1.84-.835-2.406-1.364-.56-.53-.85-1.24-.85-2.133 0-.446.09-.85.26-1.215.18-.364.41-.672.72-.93.31-.255.67-.458 1.1-.606.43-.15.89-.23 1.39-.23.61 0 1.17.08 1.67.25.51.16.86.32 1.08.47l-.3 1.29c-.23-.15-.56-.3-.98-.46-.43-.16-.92-.24-1.48-.24-.56 0-1.01.15-1.37.44-.35.3-.53.68-.53 1.16 0 .49.17.89.51 1.19.34.3.83.56 1.45.79 1.08.38 1.92.85 2.52 1.41.61.56.91 1.31.91 2.23zm8.356-7.042h-3.694v7.142c0 .545.16.95.483 1.214.322.265.715.398 1.18.398.527 0 .956-.076 1.287-.223l-.37 1.48c-.25.08-.597.12-1.043.12-.875 0-1.616-.26-2.22-.78-.603-.53-.904-1.28-.904-2.27v-7.09h-2.33v-1.29h2.33v-2.43l1.588-.82v3.25h4.02l-.32 1.28z"/><path d="M63.546 18.435c0 .04-.036.128-.108.264-.03.06-.064.24-.096.53-.168 1.79-.252 3.36-.252 4.71 0 .35.032.63.096.85.056.18.172.43.348.75.008.01.012.04.012.07 0 .16-.196.25-.587.25h-.11c-.41-.01-.66-.34-.75-.98-.11-.79-.17-1.88-.17-3.27 0-.33 0-.82.02-1.48.01-.66.01-1.16.01-1.49 0-.19.09-.36.28-.53.19-.17.38-.25.56-.25.14 0 .3.06.47.18.17.12.25.24.25.38zm.334.205c0-.185.084-.35.247-.493.164-.144.354-.215.57-.215.23 0 .43.104.6.31.166.21.25.468.25.78 0 .335-.032.61-.095.826-.064.216-.176.424-.335.624-.16.207-.34.384-.54.532-.2.148-.38.222-.54.222-.127-.015-.22-.066-.282-.15-.06-.083-.046-.18.042-.292.16-.088.31-.195.45-.324.14-.128.24-.29.304-.49.04-.113.06-.235.05-.367-.01-.132-.08-.24-.22-.33-.13-.087-.25-.174-.35-.263-.09-.087-.14-.21-.14-.37zm7.764 7.236c-.27.167-.474.25-.616.25-.103 0-.26-.056-.474-.167v-1.32c0-2.13-.174-3.19-.523-3.19-.26 0-.47.32-.62.97-.12.47-.18.9-.18 1.3v1.1c0 .05.02.13.06.24.04.11.06.19.06.24 0 .13-.06.24-.2.34-.13.1-.26.15-.39.15s-.27-.07-.4-.2c-.13-.14-.2-.27-.2-.4v-2.22c0-.91-.1-1.36-.3-1.36-.03 0-.1.08-.21.23-.57.77-.86 1.59-.86 2.47 0 .12.02.31.06.55.04.24.05.42.05.54 0 .16-.05.29-.15.4-.1.1-.23.15-.39.15-.18 0-.33-.07-.44-.19-.04-.06-.08-.24-.14-.56-.04-.3-.07-.5-.07-.61V22c0-.194.05-.45.15-.767.12-.383.25-.574.39-.574.16 0 .31.06.43.18.13.12.19.26.17.41.24-.39.54-.58.9-.58.46 0 .83.3 1.12.91.15-.36.29-.61.41-.74.2-.24.445-.35.74-.35.294 0 .594.15.897.47.528.53.79 1.45.79 2.74v2.14zm6.71-2.014c0 1.03-.032 1.758-.096 2.182-.04.247-.207.37-.504.37-.447 0-.646-.222-.6-.67-.4.192-.813.29-1.245.29-.42 0-.82-.106-1.19-.314-.45-.248-.67-.563-.67-.947 0-.374.25-.727.76-1.054.46-.3.9-.45 1.3-.45h1.02v-.29c0-.83-.24-1.25-.75-1.25-.63 0-.95.29-.95.87 0 .19-.11.29-.34.29-.14 0-.28-.06-.43-.19-.15-.12-.22-.25-.22-.39 0-.45.16-.81.48-1.1.32-.29.7-.43 1.15-.43 1.5 0 2.25 1.02 2.25 3.05zm-1.21.43c0-.16-.12-.238-.36-.238-1 0-1.498.236-1.498.708 0 .256.22.383.66.383.27 0 .526-.076.766-.228.287-.168.432-.375.432-.624z" fill="#EC0044"/><g fill="#EC0044"><path d="M22.574 63.963l-1.63-5.54-.58 1.956h-4.35v2.16c0 1.45 1.178 2.63 2.63 2.63h5.696c1.452 0 2.63-1.18 2.63-2.63v-2.16h-3.134l-1.262 3.58z"/><path d="M24.34 54.222h-5.695c-1.452 0-2.63 1.178-2.63 2.63v2.73h3.755l1.18-3.972 1.694 5.76.63-1.788h3.697V56.85c0-1.45-1.17-2.628-2.63-2.628z"/></g></svg>