<svg id="Layer_1" xmlns="http://www.w3.org/2000/svg" viewBox="0 0 86 104"><style>.st0{fill:#808080;} .st1{fill:#008896;} .st2{fill:#DE8000;} .st3{fill:#9F0050;} .st4{fill:#7E8E5F;}</style><g id="XMLID_285_"><g id="XMLID_338_"><path id="XMLID_348_" class="st0" d="M42.2 82.4c.3 0 .5 0 .7-.1.2-.1.4-.2.5-.3.1-.1.2-.3.3-.5.1-.2.1-.4.1-.5 0-.2 0-.4-.1-.5-.1-.1-.2-.3-.3-.4-.2-.1-.4-.1-.5-.2-.2 0-.3-.1-.5-.1-.3 0-.5 0-.7.1-.2.1-.4.2-.5.3-.1.1-.2.3-.3.4-.1.2-.1.3-.1.4 0 .4.1.7.3.9.2.4.6.5 1.1.5z"/><path id="XMLID_339_" class="st0" d="M79.6 87.6c-.3.4-.5.7-.8 1l-.4.4c-.1.1-.3.2-.4.3-.1.1-.2.2-.4.2-.1.1-.2.1-.4.1s-.2-.1-.3-.2c0-.1-.1-.3-.1-.6s0-.6.1-1.1c.1-.4.2-.8.2-1.1.1-.3.1-.6.2-1 .1-.3.1-.6.1-.8v-.4c0-.1-.1-.2-.1-.2-.1-.1-.1-.1-.2-.1h-.8c-.1 0-.1 0-.2-.1-.1 0-.1-.1-.2-.1 0-.1-.1-.1-.1-.2s-.1-.1-.2-.2c-.1 0-.2-.1-.3-.1-.4 0-.7.1-1.1.2-.4.2-.7.4-1 .6l-.9.9c-.3.4-.5.8-.8 1.3-.2.5-.4.9-.5 1.4-.1.4-.2.8-.2 1.1-.1.1-.2.1-.2.2-.1.1-.3.2-.4.3-.2.1-.3.2-.5.3-.2.1-.4.1-.6.1-.1 0-.2 0-.4-.1-.1 0-.3-.1-.4-.1-.1 0-.2-.1-.3-.1-.1 0-.1-.1-.1-.1v-.2c0-.1.1-.2.3-.4.1-.2.3-.4.5-.6.2-.2.4-.5.6-.9.2-.3.5-.6.6-.9.2-.3.4-.5.5-.7.1-.2.3-.4.3-.5.2-.1.4-.1.5-.2l.2-.2v-.5c0-.2 0-.4-.1-.5-.1-.1-.2-.2-.4-.2h-.2c-.1 0-.2.1-.3.1-.1 0-.3.1-.5.1h-.2c-.1 0-.2-.1-.3-.1-.1 0-.3-.1-.4-.1-.1-.1-.3-.2-.4-.2-.1-.1-.3-.2-.4-.2-.1-.1-.3-.1-.4-.1-.2 0-.4 0-.6.1l-.6.3c-.2.2-.4.4-.5.7-.1.3-.3.7-.3 1.1v.4c0 .1 0 .2.1.3 0 .1.1.1.2.1s.2-.1.3-.2c.1-.1.3-.3.4-.5.1-.1.1-.2.2-.3s.1-.1.2-.1.2 0 .3-.1h.6c.1 0 .1 0 .2.1.1 0 .1.1.2.1s.2.1.2.1L67 88c-.2.2-.3.4-.5.5l-.4.4c-.1.1-.3.2-.4.3-.1.1-.2.2-.4.2-.1.1-.2.1-.4.1s-.2-.1-.3-.2c0-.1-.1-.3-.1-.6s0-.6.1-1.1c.1-.4.2-.8.2-1.1.1-.3.1-.6.2-1 .1-.3.1-.6.1-.8v-.4c0-.1-.1-.2-.1-.2.1 0 0-.1 0-.1h-.8c-.1 0-.1 0-.2-.1-.1 0-.1-.1-.2-.1 0-.1-.1-.1-.1-.2s-.1-.1-.2-.2c-.1 0-.2-.1-.3-.1-.4 0-.7.1-1.1.2-.4.2-.7.4-1 .6l-.9.9c-.3.4-.5.8-.8 1.3-.2.5-.4.9-.5 1.4-.1.3-.1.7-.2 1-.1 0-.2.1-.2.2-.2.1-.3.2-.5.2-.2.1-.3.1-.4.2-.1 0-.3.1-.4.1 0 0-.1 0-.1-.1s-.1-.1-.1-.2 0-.2-.1-.4v-.8c0-.1 0-.2.1-.3 0-.1 0-.2.1-.3 0-.1.1-.2.1-.2.2-.5.5-1 .8-1.5l.9-1.5c.3-.5.6-1 .8-1.6.3-.5.5-1.1.7-1.6.2-.5.4-1.1.5-1.6.1-.5.2-1 .2-1.5 0-.2 0-.4-.1-.6 0-.2-.1-.4-.2-.5-.1-.2-.2-.3-.4-.4-.2-.1-.4-.1-.6-.1-.3 0-.7.1-1 .3-.3.2-.6.5-.9.8-.3.3-.6.7-.9 1.2-.3.5-.5 1-.8 1.5-.1.3-.3.6-.4 1 0-.5-.1-1-.3-1.5-.2-.5-.6-1-1-1.4-.5-.4-1-.7-1.7-1-.7-.2-1.5-.4-2.4-.4-.7 0-1.3.1-1.9.3-.6.2-1.2.5-1.7.9s-1 .9-1.4 1.5c-.4.6-.8 1.2-1 1.9-.3.7-.5 1.4-.7 2.2-.2.8-.2 1.6-.2 2.4 0 .5 0 1 .1 1.6 0 .3.1.7.1 1-.2.2-.4.4-.7.5-.2.2-.5.4-.7.5-.2.1-.4.2-.6.2-.2 0-.3-.1-.3-.2-.1-.1-.1-.3-.1-.6 0-.2 0-.5.1-.8.1-.3.1-.6.2-.9.1-.3.1-.7.3-1.1.1-.4.2-.8.3-1.1.1-.3.1-.5.2-.7.1-.2.1-.4.1-.5 0-.1 0-.2-.1-.3-.1-.1-.2-.1-.4-.1h-.4c-.1 0-.3.1-.4.1-.1.1-.3.1-.4.2-.1.1-.2.2-.2.4s-.2.6-.4 1.2c-.2.8-.4 1.3-.4 1.5 0 .1-.1.5-.2 1.3-.2.2-.4.3-.6.5-.1.1-.3.2-.4.3-.1.1-.3.2-.4.2-.1.1-.3.1-.4.2-.1 0-.2.1-.3.1-.1 0-.2 0-.3-.1-.1-.1-.1-.2-.2-.3 0-.1-.1-.2-.1-.4v-.8c0-.1 0-.3.1-.4 0-.1.1-.2.1-.4 0-.1.1-.2.1-.3.1-.3.4-1 .9-2 .3-.6.6-1.3.8-1.9.2-.6.4-1.3.7-2 .2-.7.3-1.4.4-2.1v-.6c0-.3 0-.6-.1-.9 0-.3-.1-.5-.2-.8-.1-.2-.3-.4-.4-.5-.2-.1-.4-.2-.6-.2-.3 0-.7.1-1 .3-.3.2-.6.5-.9.9-.3.4-.5.8-.8 1.3-.2.5-.4 1.1-.6 1.7-.2.6-.3 1.2-.4 1.7-.1.5-.2 1.1-.2 1.8-.4 0-.8.1-1.1.3-.4.2-.7.4-1 .7-.3.3-.6.6-.8 1-.2.4-.4.7-.6 1-.2.3-.3.7-.4 1 0 .2-.1.4-.1.5l-.9.6c-.3.2-.7.3-1 .5-.4.1-.7.2-1 .2h-.3c-.1 0-.2-.1-.3-.1-.1-.1-.2-.1-.2-.2-.1-.1-.2-.2-.2-.4.5-.1.9-.3 1.3-.5s.7-.5 1-.8c.3-.3.5-.6.8-1 .2-.4.3-.8.3-1.1 0-.3-.1-.6-.2-.8-.1-.2-.3-.5-.4-.6-.2-.2-.4-.3-.7-.4-.3-.1-.5-.1-.8-.1-.4 0-.7.1-1 .2-.3.1-.6.3-.8.5-.2.2-.5.5-.6.8-.2.3-.3.6-.5.9-.1.3-.2.7-.3 1.1-.1.4-.2.8-.2 1.1v.4l-.1.1-.4.4-.4.4c-.1.1-.3.2-.4.3-.1.1-.3.1-.4.1-.2 0-.4-.1-.5-.2-.1-.1-.2-.3-.2-.5s0-.5.1-.8c.1-.4.1-.8.2-1.2.1-.4.2-.9.2-1.4l.3-1.5.3-1.5c.1-.5.1-1 .1-1.4 0-.5 0-1-.1-1.4-.1-.4-.2-.8-.4-1.2-.2-.3-.4-.6-.6-.8-.3-.2-.5-.3-.9-.3-.5 0-.9.1-1.4.4-.4.2-.8.6-1.2 1-.4.4-.7 1-1 1.6-.3.6-.6 1.3-.8 2.1H17c0-.4.1-.7.1-1 0-.1 0-.3.1-.4v-.9c0-.5 0-.9-.1-1.2-.1-.3-.2-.6-.3-.8-.1-.2-.3-.4-.5-.5-.2-.1-.4-.2-.7-.2-.3 0-.7.1-1 .3-.3.2-.7.4-1 .8-.3.3-.7.7-1 1.2l-.9 1.5c-.3.6-.5 1.2-.8 1.8-.2.7-.4 1.3-.6 2l.3-1.2c.1-.4.2-.9.2-1.3.1-.4.1-.9.2-1.3s.1-.8.1-1.1c0-.4 0-.7-.1-1.1-.1-.3-.1-.6-.3-.8-.1-.2-.3-.4-.5-.5-.2-.1-.5-.2-.8-.2-.3 0-.5.1-.8.2-.6.3-.9.4-1.2.7-.3.3-.5.6-.8 1-.2.4-.5 1-.7 1.6v.3c0 .1 0 .1.1.2 0 .1 0 .1.1.2l.1.1c.1 0 .2 0 .2-.1.1 0 .1-.1.1-.2.2-.2.3-.4.5-.6.2-.2.4-.4.6-.5.2-.1.4-.3.6-.4.2-.1.3-.1.4-.1.1 0 .1 0 .2.1 0 0 .1.1.1.2v.4c.1.4.1.9.1 1.4 0 .5 0 1-.1 1.4-.1.5-.1.9-.2 1.4-.1.5-.2.9-.3 1.4-.2.5-.3 1-.4 1.5-.1.5-.2 1.1-.4 1.7 0 .2-.1.4-.1.6v.6c0 .1 0 .2.1.3.1.1.1.2.2.2.1.1.2.1.3.1h.8c.1 0 .2-.1.4-.1.1-.1.2-.1.3-.2.1-.1.1-.2.2-.4.1-.5.3-1 .4-1.6.1-.6.3-1.2.4-1.8.2-.6.3-1.2.6-1.8.2-.6.5-1.2.7-1.8.2-.6.5-1.1.7-1.6.2-.5.5-.9.7-1.3.2-.4.4-.6.6-.8.2-.2.4-.3.5-.3.2 0 .3 0 .5.1.1.1.2.2.3.4.1.2.1.4.1.7v.9c0 .5-.1 1-.2 1.6-.1.6-.2 1.1-.3 1.7-.1.6-.2 1.1-.3 1.7-.1.6-.2 1.1-.3 1.6-.1.5-.2.9-.2 1.2-.1.3 0 .6.1.7 0 .2 0 .4.1.5 0 .1.1.3.2.4.1.1.2.2.3.2.1 0 .2.1.3.1h.3c.1 0 .2-.1.3-.1.1-.1.2-.1.3-.3.1-.1.1-.2.2-.4.1-.5.2-1.1.3-1.7.1-.6.2-1.2.4-1.8.2-.6.3-1.3.4-1.9.1-.6.3-1.2.5-1.7s.4-1.1.6-1.5c.2-.5.4-.9.7-1.2.2-.3.5-.6.8-.8.3-.2.6-.3.9-.3.2 0 .3 0 .4.1.1.1.2.2.2.3 0 .1.1.3.1.5v.7c0 .3 0 .7-.1 1.1-.1.4-.2.9-.2 1.3-.1.4-.2.9-.2 1.3-.1.5-.2.9-.2 1.3-.1.4-.2.9-.2 1.3-.1.4-.1.8-.1 1.1v.2c0 .4.1.7.2 1 .1.3.3.5.5.7.2.2.5.4.7.5.3.1.6.2.8.2.3 0 .6 0 .9-.1.3-.1.6-.2.9-.4.3-.2.5-.4.8-.7.1.1.1.2.2.3.2.3.6.6.9.7.4.2.8.3 1.3.3.3 0 .6 0 .9-.1l.9-.3c.3-.1.6-.3.8-.4.2-.1.4-.3.6-.4.1.2.2.3.3.5l.6.6c.3.1.6.2.9.2.2 0 .5 0 .7-.1.2-.1.5-.2.7-.3.2-.1.5-.3.7-.5l.6-.6c.1.3.3.6.5.8.2.2.4.3.5.5s.3.2.5.2c.1 0 .3.1.3.1.1 0 .3 0 .4-.1.2 0 .3-.1.5-.2s.3-.2.5-.3c.2-.1.3-.2.5-.3.2-.1.3-.2.5-.3v.2c.1.2.1.4.3.5.1.1.3.2.5.3.2.1.4.1.7.1.3 0 .6-.1 1-.2.3-.1.7-.3 1-.4l.9-.6.3-.3c.1.3.2.6.3.8.2.5.4.9.7 1.3.3.4.6.7.9.9.3.2.7.3 1.2.3.4 0 .8-.1 1.1-.2.3-.2.7-.4.9-.6.3-.3.5-.6.7-.9.2-.3.4-.7.5-1.1.1-.4.3-.8.3-1.2.1-.4.1-.8.1-1.2v-2.4c.8-.1 1.6-.3 2.2-.7.6-.3 1.1-.7 1.6-1.1.2-.2.4-.5.6-.7s-.1.4-.2 1.3c-.2.9-.2 1.6-.2 2.1 0 .6.1 1.2.2 1.7.1.6.2 1 .4 1.5.2.4.4.8.6 1 .2.2.5.4.8.4.2 0 .4 0 .6-.1.2 0 .4-.1.7-.2.2-.1.4-.2.7-.3.2-.1.4-.2.5-.3l.2.2c.2.2.4.3.6.5.2.1.5.2.7.2.2 0 .5 0 .7-.1.2-.1.5-.2.7-.3.2-.1.4-.3.6-.4l.5-.5c.2.4.4.8.6 1 .2.2.5.3.9.3.3 0 .6-.1.9-.2.2-.1.4-.2.5-.3h.3c.1 0 .3 0 .5-.1l.6.3c.2.1.4.1.5.2.1 0 .3.1.4.1h.2c.3 0 .5 0 .8-.1.3-.1.6-.1.9-.3.3-.1.6-.2.8-.4.1 0 .2-.1.2-.1 0 .1.1.1.2.2.2.2.4.3.6.5.2.1.5.2.7.2.2 0 .5 0 .7-.1.2-.1.5-.2.7-.3.2-.1.4-.3.6-.4l.5-.5c.2.4.4.8.6 1 .2.2.5.3.9.3.3 0 .6-.1.9-.2.3-.1.6-.3.8-.5.3-.2.5-.4.7-.7.2-.2.4-.4.5-.6l-.3-1.5zm-53.4-.5c0-.2.1-.4.1-.6.1-.2.2-.5.2-.6.1-.2.2-.3.3-.5.1-.1.2-.2.4-.3.2-.1.4-.1.6-.1.1 0 .2.1.3.2.1.2.1.3.1.6 0 .2-.1.4-.3.6s-.4.5-.6.6c-.2.2-.4.3-.6.4-.2.1-.4.1-.6.1 0-.1 0-.3.1-.4zm7.9 1.7c-.1.1-.1.2-.2.2l-.2.2c-.1.1-.2.1-.3.2-.1 0-.2.1-.3.1-.2 0-.3 0-.5-.1-.1 0-.2-.1-.3-.2-.1-.1-.1-.1-.1-.2v-.2c0-.3 0-.6.1-.9.1-.3.2-.7.4-1.2s.4-.8.7-1.1c.3-.3.6-.5.9-.7v3.2c.1.2 0 .4-.2.7zm1.9-3.5v-.4s.2-.3.2-.5.1-.4.1-.7c0-.2.1-.5.1-.8 0-.1.1-.3.1-.7 0-.3.1-.7.1-1 0-.4.1-.8.2-1.2.1-.4.2-.8.3-1.1.1-.3.2-.6.3-.8.1-.2.3-.3.5-.3.1 0 .2.1.2.2.1.1.1.3.1.6v.9c0 .3-.1.6-.1.9-.1.3-.2.6-.3 1-.1.3-.2.6-.3 1-.1.3-.4.6-.5.9-.3.6-1 1.3-1 2zm17.8-3.2c-.1.3-.3.6-.6.8-.2.2-.6.5-.9.6-.4.2-.8.3-1.3.4l.1-.6.5-2.1V81c0-.1 0-.2-.1-.3-.1-.1-.1-.2-.2-.2-.1-.1-.2-.1-.3-.1h-.3c-.3 0-.6.1-.8.2-.2.2-.4.4-.5.6-.1.2-.2.5-.3.8-.1.3-.1.6-.1.8v1.1c-.1 0-.2-.1-.3-.1-.1 0-.2-.1-.4-.2-.1-.1-.3-.1-.5-.2-.1 0-.1-.1-.2-.1h-.1c-.1 0-.1 0-.2.1 0 0-.1.1-.1.2v.6c0 .2 0 .3.1.5 0 .1.1.3.2.4.1.1-.1.2.1.4.2.1.6.3.6.5v.4c0 .2.4.5.4.9 0 .3.2.7.2 1.1 0 .4 0 .8-.1 1.1-.1.4-.1.7-.2 1-.1.3-.3.5-.5.7-.2.2-.4.3-.7.3-.3 0-.5-.1-.6-.3-.2-.2-.3-.5-.4-.9-.1-.3-.2-.7-.3-1.2-.1-.4-.1-.9-.1-1.3v-2.1c0-.5 0-1.1.1-1.6.1-.6.2-1.1.4-1.6L47 81c.3-.5.5-.9.9-1.2.3-.4.7-.6 1.2-.8.4-.2.9-.3 1.5-.3.7 0 1.3.1 1.8.2.5.2.9.4 1.1.6.3.3.5.5.6.9.1.3.2.6.2.9-.3.2-.4.5-.5.8zm3.2 1c.1-.7.2-1.1.2-1.1s.1-.4.4-1.2c.2-.8.4-1.3.6-1.7.2-.3.3-.6.5-.8.2-.2.3-.3.5-.3 0 0 .1.1.1.2v.4c0 .5-.2 1-.3 1.6-.2.6-.4 1.1-.6 1.7-.2.6-.5 1.1-.8 1.7-.3.5-.5 1-.8 1.5 0-.7.1-1.3.2-2zm5.8 4.4c0 .2-.1.4-.1.6-.1.3-.2.5-.3.7-.1.2-.3.4-.4.6-.2.2-.3.3-.5.3-.1 0-.2 0-.3-.1l-.2-.2c0-.1-.1-.2-.1-.3v-.4c0-.2 0-.5.1-.7l.3-.9c.2-.3.3-.6.5-.9.2-.2.3-.4.5-.6.2-.2.4-.3.6-.4.2-.1.4-.2.6-.2l-.7 2.5zm12.3 0c0 .2-.1.4-.1.6-.1.3-.2.5-.3.7-.1.2-.3.4-.4.6-.2.2-.3.3-.5.3-.1 0-.2 0-.3-.1l-.2-.2c0-.1-.1-.2-.1-.3v-.4c0-.2 0-.5.1-.7l.3-.9c.1-.3.3-.6.5-.9.2-.2.3-.4.5-.6.2-.2.4-.3.6-.4.2-.1.4-.2.6-.2l-.7 2.5z"/></g><path id="XMLID_335_" class="st0" d="M85.9 37.6c0-4.3-2.7-8-6.4-9.9 1.1-3.3 1.8-6.7 1.9-10.2 0-3.3-.8-6.8-3.3-9.1C75.5 5.9 71.6 5 68 4.9c-3.9-.2-7.9.6-11.7 1.5-.5.1-.9.2-1.4.3C49.7-1 37.3-.8 31.7 6.4c-4-.8-8.1-1.4-12.2-1.1-2 .1-4 .5-5.9 1.2-1.6.5-3.3 1.4-4.4 2.7l-.2.2c-.1 0-.1.1-.2.1h-.1c0-.1 0 0 0 0-5.2 4.5-4 12.7-2.3 18.6C2.7 30.2 0 33.8 0 38.2c0 2 .7 4.1 1.8 5.8 1.1 1.7 2.7 3 4.5 3.9-1.1 3.3-1.9 6.8-2 10.3 0 3.3.8 6.9 3.5 9.1 2.6 2.1 6 2.8 9.3 3 3.8.3 7.7-.2 11.4-.9.8-.2 1.6-.3 2.4-.5 5.3 7.7 17.8 7.7 23.5.4 3.7.8 7.5 1.3 11.3 1.3 3.5-.1 7.3-.7 10.1-3 1.1-.8 2.1-1.7 2.9-2.8 1-1.3 1.6-3 2-4.6.8-3.6.2-7.4-.6-10.9-.1-.5-.2-1-.4-1.4 3.5-2.2 6.2-5.9 6.2-10.3zM78 46.5c-.4.2-.5.6-.4 1 1 3.4 1.7 6.9 1.4 10.5-.1 1.6-.5 3.2-1.3 4.7C77 64 76 65 74.8 66c-2.5 2.1-5.9 2.7-9.1 2.8-3.9.1-7.8-.5-11.6-1.3-.4-.1-.8.1-1 .4-4.8 6.9-16.7 6.8-21.1-.4-.2-.4-.6-.5-1-.4-3.6.9-7.3 1.5-11 1.5-3.3.1-7-.2-9.9-1.9-2.9-1.7-3.9-4.9-3.9-8-.1-3.7 1-7.5 2.1-11 .1-.3-.1-.9-.4-1-1.8-.8-3.2-1.8-4.4-3.4-1-1.4-1.6-3.1-1.6-4.9-.1-4 2.6-7.3 6.1-9.1.4-.2.5-.7.4-1C6.7 23 5.1 15.3 9.8 11c.2-.2.5-.4.7-.6l.2-.2c.9-1 2.3-1.6 3.5-2.1 1.8-.6 3.6-.9 5.5-1 4.1-.2 8.2.3 12.1 1.2.4.1.8-.1 1-.4 4.8-6.9 16.6-6.9 21 .3.2.4.6.5 1 .4 3.7-.9 7.4-1.7 11.1-1.9C69.4 6.5 73 7 76 9.1c2.7 1.9 3.6 5.1 3.6 8.3 0 3.6-.9 7.2-2.1 10.6-.1.3.1.9.4 1 3.4 1.5 6 4.6 6.1 8.4.3 4.1-2.5 7.4-6 9.1z"/><g id="XMLID_318_"><path id="XMLID_331_" class="st1" d="M18.3 57.9l.3.2s-8.3-5.2 13.6-12c-.1.1-.2.1-.3.2l2.8-2.4s.2.3.1.2c-4.2-3.6-4.9-8.3.3-12.8l-2.3-2c-.8.8.1.1.2.2-22-6.8-13.8-11.8-13.8-11.8s-.8.7.1-.1l-6-5.2c-.9.7-.2.2-.4.3-4.4 3.8-3.5 10.9-1.8 16.6-.9.4-1.7 1-2.5 1.6-4.5 3.9-4.6 10.1-.1 14 .9.7 1.5 1 2.5 1.5-2 5.9-3.5 13.5.8 17.2l6.5-5.7zm-1.9-27.2s-1.2-6.7 15.3 0c-16.5 6.7-15.3 0-15.3 0zm.4 14.4s-1.2-6.7 15.3 0c-16.6 6.6-15.3 0-15.3 0z"/><path id="XMLID_327_" class="st2" d="M11.7 63.6c4.4 3.7 13.8 2.9 20.7 1.2.5.9 1.3 1.8 2.1 2.5 4.5 3.8 11.8 3.9 16.4 0 .8-.7 1.4-1.3 1.9-2.1 6.7 1.5 15 2.3 19.4-1.5.1-.1-.5.4.3-.3l-6-5.2c-.9.7-.1 0-.1 0s-5.9 7-13.8-11.8c.1 0-.7.8.3.1l-2.3-2c-5.3 4.5-11.3 3.4-15.6-.2l-.4-.4-2.8 2.4c.1-.1.5.1.6.1-7.9 18.8-14 11.7-14 11.7l-.2-.1-6.5 5.6zm39.4-16.3c7.8 14.2 0 13.1 0 13.1s-7.7 1.2 0-13.1zm-16.7-.2c7.8 14.2 0 13.1 0 13.1s-7.8 1.1 0-13.1z"/><path id="XMLID_323_" class="st3" d="M67.4 17.3l-.1-.1s8.3 5.2-13.7 12c0-.1.2-.2.3-.2L51 31.3s-.2 0-.1.1c4.2 3.6 4 9.4-.4 13.1l2.3 2c-.1-.1.1-.3 0-.4C74.9 52.9 66.7 58 66.7 58s-.2.1-.1.1l6 5.2s.4-.3.6-.4c4.4-3.8 3.6-10.9 1.9-16.7.9-.4 1.8-1 2.5-1.7 4.5-3.9 4.6-10.2.1-14-.9-.7-1.7-1.1-2.7-1.5 2-5.9 3.3-13.6-1-17.4l-6.6 5.7zm2.1 27.4s1.2 6.7-15.3 0c16.6-6.7 15.3 0 15.3 0zm-.3-14.4s1.2 6.7-15.3 0c16.6-6.6 15.3 0 15.3 0z"/><path id="XMLID_319_" class="st4" d="M74 11.6c-5.2-4.4-13.7-2.8-20.5-1.1-.5-.9-1.2-1.7-2.1-2.5-4.5-3.8-11.8-3.8-16.3.1-.8.7-1.4 1.4-1.9 2.1-6.8-1.5-15.2-2.1-19.6 1.7l-.5.5 6 5.2.2-.2s5.8-6.9 13.8 11.9h-.4l2.3 2c4.4-3.7 11.3-3.7 15.6-.1.1.1.4.1.4.1l2.8-2.4c-.1.1-.4 0-.5 0 7.9-18.8 13.9-11.7 13.9-11.7l.1.1 6.7-5.7zM34.9 28.1c-7.8-14.2 0-13.1 0-13.1s7.7-1.1 0 13.1zm16.7.3c-7.8-14.2 0-13.1 0-13.1s7.8-1.2 0 13.1z"/></g><g id="XMLID_286_"><path id="XMLID_316_" class="st1" d="M17.9 93.6h.7v6.5h2.6v.6h-3.3v-7.1z"/><path id="XMLID_313_" class="st1" d="M23.6 95.7c.5 0 1 .2 1.3.7.4.5.5 1.1.5 1.8 0 .4-.1.9-.2 1.2-.1.4-.4.7-.7.9-.3.2-.6.4-1 .4-.6 0-1-.2-1.4-.7-.3-.5-.5-1.1-.5-1.8 0-.6.1-1.1.3-1.5.2-.4.5-.7.8-.8.4-.1.6-.2.9-.2zm0 .6c-.4 0-.7.2-1 .5-.2.4-.3.8-.3 1.5 0 .5.1 1 .3 1.3.2.4.5.5.9.5s.7-.2.9-.5c.2-.3.3-.8.3-1.5 0-.6-.1-1.1-.3-1.4-.2-.2-.5-.4-.8-.4z"/><path id="XMLID_311_" class="st1" d="M26.1 99.6c.5.4.9.6 1.4.6.3 0 .6-.1.8-.3.2-.2.3-.4.3-.6 0-.2-.1-.3-.2-.5-.1-.1-.4-.2-.8-.4-.5-.2-.9-.3-1.1-.5-.2-.2-.4-.5-.4-.8 0-.4.2-.7.5-1 .3-.3.7-.4 1.2-.4.4 0 .8.1 1.3.4v.7c-.4-.4-.8-.5-1.2-.5-.3 0-.5.1-.7.2-.2.2-.3.3-.3.6 0 .2.1.3.3.5.2.1.4.2.8.3.9.3 1.4.7 1.4 1.4 0 .4-.2.8-.5 1.1-.3.3-.8.4-1.3.4s-.9-.1-1.4-.4v-.8z"/><path id="XMLID_308_" class="st1" d="M33.9 93.6h.7l2 7.1h-.8l-.6-2.5h-1.9l-.6 2.5H32l1.9-7.1zm.3.8l-.8 3.2H35l-.8-3.2z"/><path id="XMLID_306_" class="st1" d="M37.1 93.6h.6v7.1h-.6v-7.1z"/><path id="XMLID_303_" class="st1" d="M41.7 95.8h.5v5.1c0 .7-.2 1.2-.5 1.5-.4.4-.8.6-1.3.6-.4 0-.9-.2-1.4-.5v-.8c.5.5 1 .7 1.4.7.4 0 .6-.1.9-.4.2-.3.3-.6.3-1.1v-1c-.2.3-.4.4-.6.6-.2.1-.4.2-.6.2-.5 0-.9-.2-1.2-.7-.3-.5-.5-1-.5-1.7s.2-1.3.5-1.8c.4-.5.8-.7 1.3-.7.2 0 .4 0 .6.1.2.1.3.2.5.4l.1-.5zm-.2 1c-.1-.2-.3-.3-.5-.4-.2-.1-.3-.1-.5-.1-.4 0-.7.2-.9.5-.2.4-.4.8-.4 1.4 0 .5.1 1 .3 1.3.2.4.5.5.8.5.3 0 .6-.1.8-.4.2-.3.3-.6.3-1.1v-1.7z"/><path id="XMLID_300_" class="st1" d="M44.9 95.7c.5 0 1 .2 1.3.7.4.5.5 1.1.5 1.8 0 .4-.1.9-.2 1.2-.1.4-.4.7-.7.9-.3.2-.6.4-1 .4-.6 0-1-.2-1.4-.7-.3-.4-.4-1-.4-1.8 0-.6.1-1.1.3-1.5.2-.4.5-.7.8-.8.3-.1.5-.2.8-.2zm0 .6c-.4 0-.7.2-1 .5-.2.4-.3.8-.3 1.5 0 .5.1 1 .3 1.3.2.4.5.5.9.5s.7-.2.9-.5c.2-.3.4-.8.4-1.5 0-.6-.1-1.1-.3-1.4-.3-.2-.6-.4-.9-.4z"/><path id="XMLID_297_" class="st1" d="M50.3 93.6h.7v7.1h-.6v-.7c-.2.3-.3.5-.5.6-.2.1-.4.2-.7.2-.5 0-.9-.2-1.2-.8-.3-.5-.5-1.1-.5-1.7 0-.7.2-1.3.5-1.8s.8-.8 1.3-.8c.2 0 .3 0 .5.1s.4.2.5.4v-2.6zm0 3.2c-.1-.2-.3-.3-.4-.4-.2-.1-.3-.1-.5-.1-.4 0-.7.2-.9.5-.3.4-.4.8-.4 1.4 0 .6.1 1 .3 1.4.2.4.5.5.8.5.3 0 .6-.1.8-.4.2-.3.3-.6.3-1v-1.9z"/><path id="XMLID_294_" class="st1" d="M53.8 95.7c.5 0 1 .2 1.3.7.4.5.5 1.1.5 1.8 0 .4-.1.9-.2 1.2-.1.4-.4.7-.7.9-.3.2-.6.4-1 .4-.6 0-1-.2-1.4-.7-.3-.5-.5-1.1-.5-1.8 0-.6.1-1.1.3-1.5.2-.4.5-.7.8-.8.4-.1.6-.2.9-.2zm0 .6c-.4 0-.7.2-1 .5-.2.4-.3.8-.3 1.5 0 .5.1 1 .3 1.3.2.4.5.5.9.5s.7-.2.9-.5c.2-.3.3-.8.3-1.5 0-.6-.1-1.1-.3-1.4-.2-.2-.5-.4-.8-.4z"/><path id="XMLID_292_" class="st1" d="M56.5 95.8h.6l.1.7c.2-.3.4-.5.6-.6.2-.1.5-.2.7-.2.4 0 .7.1 1 .4.2.3.3.6.3 1.1v3.4h-.6v-3.4c0-.3-.1-.5-.2-.7-.1-.2-.3-.3-.6-.3s-.6.1-.8.4c-.2.3-.3.6-.3 1v3h-.6v-4.8z"/><path id="XMLID_289_" class="st1" d="M64.1 100.1c-.5.4-1 .6-1.5.6-.6 0-1-.2-1.4-.7-.4-.5-.5-1.1-.5-1.8 0-.8.2-1.4.6-1.9.4-.5.8-.7 1.4-.7.5 0 .9.2 1.2.6.3.4.5.9.5 1.4v.4h-2.9v.2c0 .6.1 1.1.4 1.4.3.3.6.5.9.5.5 0 1-.3 1.5-.8v.8zm-.5-2.6c0-.4-.1-.7-.3-.9-.2-.2-.4-.3-.7-.3-.3 0-.5.1-.7.3-.2.2-.4.5-.5.9h2.2z"/><path id="XMLID_287_" class="st1" d="M64.9 99.6c.5.4.9.6 1.4.6.3 0 .6-.1.8-.3.2-.2.3-.4.3-.6 0-.2-.1-.3-.2-.5-.1-.1-.4-.2-.8-.4-.5-.2-.9-.3-1.1-.5-.2-.2-.4-.5-.4-.8 0-.4.2-.7.5-1 .3-.3.7-.4 1.2-.4.4 0 .8.1 1.3.4v.7c-.4-.4-.8-.5-1.2-.5-.3 0-.5.1-.7.2-.2.2-.3.3-.3.6 0 .2.1.3.3.5.2.1.4.2.8.3.9.3 1.4.7 1.4 1.4 0 .4-.2.8-.5 1.1-.3.3-.8.4-1.3.4s-.9-.1-1.4-.4v-.8z"/></g></g></svg>