<svg id="Layer_1" xmlns="http://www.w3.org/2000/svg" viewBox="0 0 98 92"><style>.st0{fill:#742775;} .st1{fill:#FFFFFF;} .st2{fill:url(#XMLID_2_);} .st3{fill:#231F20;} .st4{fill:#32A8B9;} .st5{fill:#055285;}</style><g id="XMLID_158_"><g id="XMLID_279_"><g id="XMLID_283_"><path id="XMLID_284_" class="st0" d="M60.7 91.4c-.3 0-.5-.2-.5-.5V80.4c0-.3.2-.5.5-.5h10.6c.3 0 .5.2.5.5V91c0 .3-.2.5-.5.5H60.7z"/></g><g id="XMLID_280_"><path id="XMLID_281_" class="st1" d="M65.5 81.4c.6.4.8.5 1.3.6-.6 0-1.2-.3-1.8-.6-.3-.1-.6-.3-.9-.4-.3 0-.7.1-.9.4-.1.1-.3.4-.3 1 0 .4.1.7.1 1.1v.2c0 .1 0 .2.1.3.2.4.3.7.4 1.1.1.2.1.3.1.5 0 .1-.1.3-.1.4-.1.4-.2.8-.2 1.1 0 .7.2 1.4.4 2.1.1.4.2.8.5 1 .1.1.2.1.2.1.2 0 .1-.3.1-.4 0-.4 0-.7.1-1.1.1-.8.4-1.8 1.3-1.9.9.1 1 1.2 1.1 2 .1.4.1.8.1 1.2 0 .1.1.3.2.3.3 0 .7-.8.8-1.2.2-.7.3-1.4.2-2.1 0-.3-.1-1-.1-1.1 0-.1-.1-.2 0-.3 0-.2.1-.3.1-.5.1-.2.2-.4.2-.6 0-.1 0-.1.1-.2.2-.7.4-1.4.3-2.2-.1-.7-.9-1.1-1.5-1.2-.6-.1-1.3 0-1.8.2h-.4c.1 0 .4.2.3.2"/></g></g><g id="XMLID_273_"><g id="XMLID_277_"><path id="XMLID_278_" class="st0" d="M74.9 91.4c-.3 0-.5-.2-.5-.5V80.4c0-.3.2-.5.5-.5h10.6c.3 0 .5.2.5.5V91c0 .3-.2.5-.5.5H74.9z"/></g><g id="XMLID_274_"><path id="XMLID_275_" class="st1" d="M79.7 81.4c.6.4.8.5 1.3.6-.6 0-1.2-.3-1.8-.6-.3-.1-.6-.3-.9-.4-.3 0-.6.1-.8.4-.1.1-.3.4-.4 1 0 .4.1.7.2 1.1v.2c0 .1.1.2.1.3.1.4.3.7.4 1.1 0 .2.1.3.1.5 0 .1-.1.3-.1.4-.1.4-.1.8-.1 1.1 0 .7.2 1.4.3 2.1.1.4.2.8.5 1 .1.1.2.1.3.1.1 0 .1-.3.1-.4 0-.4 0-.7.1-1.1.1-.8.4-1.8 1.3-1.9.9.1 1 1.2 1.1 2 .1.4.1.8.1 1.2 0 .1.1.3.3.3.4 0 .7-.8.7-1.2.2-.7.3-1.4.3-2.1 0-.3-.2-1-.2-1.1v-.3c0-.2.1-.3.1-.5.1-.2.1-.4.2-.6 0-.1.1-.1.1-.2.2-.7.4-1.4.3-2.2-.1-.7-.9-1.1-1.5-1.2-.7-.1-1.3 0-1.8.2h-.4c-.1 0 .2.2.1.2"/></g></g><g id="XMLID_267_"><g id="XMLID_271_"><path id="XMLID_272_" class="st0" d="M46.5 91.4c-.3 0-.5-.2-.5-.5V80.4c0-.3.2-.5.5-.5h10.6c.3 0 .5.2.5.5V91c0 .3-.2.5-.5.5H46.5z"/></g><g id="XMLID_268_"><path id="XMLID_269_" class="st1" d="M51.4 81.4c.6.4.8.5 1.3.6-.6 0-1.2-.3-1.8-.6-.3-.1-.6-.3-.9-.4-.3 0-.6.1-.9.4-.1.1-.3.4-.4 1 0 .4.1.7.2 1.1v.2c0 .1.1.2.1.3.1.4.3.7.4 1.1 0 .2.1.3.1.5 0 .1 0 .3-.1.4-.1.4-.1.8-.1 1.1 0 .7.2 1.4.3 2.1.1.4.2.8.5 1 .1.1.2.1.3.1.2 0 .1-.3.1-.4 0-.4 0-.7.1-1.1.1-.8.4-1.8 1.3-1.9.9.1 1 1.2 1.1 2 .1.4.1.8.1 1.2 0 .1.1.3.2.3.3 0 .7-.8.8-1.2.2-.7.3-1.4.3-2.1 0-.3-.2-1-.2-1.1 0-.1-.1-.2-.1-.3 0-.2.1-.3.2-.5s.1-.4.2-.6v-.2c.2-.7.4-1.4.3-2.2-.1-.7-.9-1.1-1.5-1.2-.6-.1-1.3 0-1.8.2h-.4l.3.2"/></g></g><g id="XMLID_261_"><g id="XMLID_265_"><path id="XMLID_266_" class="st0" d="M32.3 91.4c-.3 0-.5-.2-.5-.5V80.4c0-.3.2-.5.5-.5h10.6c.3 0 .5.2.5.5V91c0 .3-.2.5-.5.5H32.3z"/></g><g id="XMLID_262_"><path id="XMLID_263_" class="st1" d="M37.2 81.4c.6.4.8.5 1.3.6-.6 0-1.2-.3-1.8-.6-.3-.1-.6-.3-1-.4-.3 0-.6.1-.9.4-.1.1-.3.4-.4 1 0 .4.1.7.2 1.1v.2c0 .1 0 .2.1.3.1.4.3.7.4 1.1.1.2.1.3.1.5 0 .1 0 .3-.1.4-.1.4-.1.8-.1 1.1 0 .7.1 1.4.3 2.1.1.4.2.8.5 1 .1.1.2.1.3.1.1 0 .1-.3.1-.4 0-.4 0-.7.1-1.1.1-.8.4-1.8 1.3-1.9.9.1 1 1.2 1.1 2 0 .4.1.8.1 1.2 0 .1.1.3.3.3.3 0 .7-.8.8-1.2.2-.7.3-1.4.3-2.1 0-.3-.1-1-.2-1.1 0-.1-.1-.2 0-.3 0-.2.1-.3.1-.5.1-.2.1-.4.2-.6 0-.1 0-.1.1-.2.1-.7.4-1.4.3-2.2-.1-.7-.9-1.1-1.5-1.2-.6-.1-1.3 0-1.8.2H37l.2.2"/></g></g><g id="XMLID_254_"><g id="XMLID_259_"><path id="XMLID_260_" class="st0" d="M29.2 91c0 .3-.2.5-.5.5H18.1c-.3 0-.5-.2-.5-.5V80.4c0-.3.2-.5.5-.5h10.6c.3 0 .5.2.5.5"/></g><g id="XMLID_255_"><path id="XMLID_257_" class="st1" d="M23 81.4c.6.4.8.5 1.3.6-.6 0-1.2-.3-1.8-.6-.3-.1-.6-.3-1-.4-.3 0-.6.1-.8.4-.1.1-.3.4-.4 1 0 .4.1.7.2 1.1v.2c0 .1 0 .2.1.3.1.4.2.7.4 1.1.1.2.1.3.1.5 0 .1 0 .3-.1.4-.1.4-.1.8-.1 1.1 0 .7.2 1.4.3 2.1.1.4.2.8.5 1 .1.1.2.1.3.1.2 0 .1-.3.1-.4 0-.4 0-.7.1-1.1.1-.8.4-1.8 1.3-1.9.9.1 1 1.2 1.1 2 .1.4.1.8.1 1.2 0 .1.1.3.2.3.3 0 .7-.8.8-1.2.2-.7.3-1.4.3-2.1 0-.3-.1-1-.2-1.1 0-.1-.1-.2 0-.3 0-.2.1-.3.1-.5.1-.2.1-.4.2-.6 0-.1 0-.1.1-.2.2-.7.4-1.4.3-2.2-.1-.7-.9-1.1-1.5-1.2-.6-.1-1.3 0-1.8.2h-.4c-.1 0 .2.2.2.2"/><linearGradient id="XMLID_2_" gradientUnits="userSpaceOnUse" x1="25.068" y1="90.241" x2="24.159" y2="87.743"><stop offset="0" stop-color="#FFF"/><stop offset="1" stop-color="#AEAAA8"/></linearGradient><path id="XMLID_256_" class="st2" d="M24.5 88c0-.1-.1-.2-.1-.3.2.4.2.9.3 1.2.1.4.1.8.1 1.2 0 .1 0 .2.1.2 0-.8-.1-1.5-.4-2.3z"/></g></g><g id="XMLID_248_"><g id="XMLID_252_"><path id="XMLID_253_" class="st0" d="M3.9 91.4c-.3 0-.5-.2-.5-.5V80.4c0-.3.2-.5.5-.5h10.6c.3 0 .5.2.5.5V91c0 .3-.2.5-.5.5H3.9z"/></g><g id="XMLID_249_"><path id="XMLID_250_" class="st1" d="M8.8 81.4c.6.4.8.5 1.3.6-.6 0-1.2-.3-1.8-.6-.3-.2-.6-.4-1-.4-.3 0-.6.1-.8.4-.1.1-.4.4-.4 1 0 .4.1.7.2 1.1v.2c0 .1.1.2.1.3.1.4.3.7.4 1.1 0 .2.1.3.1.5 0 .1 0 .3-.1.4-.1.4-.1.8-.1 1.1 0 .7.2 1.4.3 2.1.1.4.2.8.5 1 .1.1.2.1.3.1.2 0 .2-.3.1-.4 0-.4 0-.7.1-1.1.1-.7.4-1.8 1.3-1.8.9.1 1 1.2 1.1 2 0 .4.1.8.1 1.2 0 .1.1.3.2.3.3 0 .7-.8.8-1.2.2-.7.3-1.4.3-2.1 0-.3-.1-1-.2-1.1 0-.1-.1-.2 0-.3 0-.2.1-.3.1-.5.1-.2.1-.4.2-.6 0-.1 0-.1.1-.2.1-.7.4-1.4.3-2.2-.1-.7-.9-1.1-1.5-1.2-.7-.1-1.3 0-1.8.2h-.4c0-.1.2.1.2.1"/></g></g><g id="XMLID_187_"><g id="XMLID_196_"><g id="XMLID_197_"><path id="XMLID_231_" class="st3" d="M67 21.3c-.7 0-1.3-.2-1.8-.5s-.8-.7-1-1.2c-.2-.5-.3-1-.3-1.4 0-.4.1-.9.2-1.4.2-.7.4-1.2.8-1.7.3-.5.8-.9 1.4-1.2.5-.3 1.2-.4 1.9-.4.9 0 1.7.3 2.3.9.6.6.9 1.4.9 2.3 0 .8-.2 1.6-.6 2.3-.4.8-.9 1.3-1.5 1.7-.8.4-1.5.6-2.3.6zm1-6.5c-.8 0-1.4.4-1.9 1.1-.5.7-.7 1.5-.7 2.4 0 .5.2 1 .5 1.3.3.4.7.5 1.3.5.4 0 .8-.1 1.2-.4.4-.3.7-.7 1-1.3.3-.6.4-1.1.4-1.7 0-.6-.2-1.1-.5-1.4-.4-.4-.8-.5-1.3-.5zm6.9 6.5c-.9 0-1.6-.2-2-.6-.5-.4-.7-1-.7-1.7v-.7c0-.2.1-.4.1-.7l.8-4h1.6l-.9 4.1-.2 1v.3c0 .3.1.6.4.8.2.2.5.3 1 .3.4 0 .7-.1 1-.2.3-.1.4-.3.6-.6.1-.3.3-.8.4-1.4l.9-4.2h1.6l-.9 4.1c-.2.9-.4 1.5-.6 2-.2.5-.6.8-1.1 1.1-.6.3-1.2.4-2 .4zm-23.8 0c-.9 0-1.6-.2-2.2-.6-.7-.6-1-1.4-1-2.5 0-.7.1-1.4.4-2.1.4-.8.9-1.4 1.5-1.9.7-.4 1.4-.7 2.3-.7.9 0 1.6.2 2.1.6.5.4.9 1 1 1.8l-1.4.1c-.1-.4-.3-.7-.6-1-.3-.2-.7-.3-1.1-.3-.5 0-1 .1-1.4.4-.4.3-.8.7-1 1.2-.3.6-.4 1.1-.4 1.8 0 .6.2 1.1.4 1.4.3.3.7.5 1.3.5.3 0 .7 0 1-.1.3-.1.6-.2.9-.4l.2-1.1h-2l.3-1.2h3.4l-.7 3.2c-.4.2-.9.5-1.5.6-.3.2-.9.3-1.5.3zM17 21.2l1.6-7.6h1.5l2 5.1 1.1-5.1h1.4L23 21.2h-1.4l-2-5.1-1.1 5.1H17zm38.7 0l1.6-7.6h3.4c.6 0 1 .1 1.4.2.3.1.6.3.8.6.2.3.3.7.3 1.2 0 .6-.2 1.2-.6 1.6-.4.4-1 .7-1.7.8.2.2.4.5.6.8.3.6.7 1.4 1.1 2.5h-1.7c-.1-.4-.4-1.2-.8-2-.2-.5-.5-.8-.7-1-.1-.1-.4-.2-.8-.2H58l-.7 3.2-1.6-.1zm2.4-4.3h.9c.9 0 1.4 0 1.7-.1.3-.1.5-.3.7-.5.2-.2.2-.4.2-.7 0-.3-.1-.5-.3-.6-.2-.1-.5-.1-.9-.1h-1.7l-.6 2zm-28.3 4.3l4.3-7.6h1.7l1.2 7.6h-1.5l-.2-1.7h-3.1l-.9 1.7h-1.5zm3.1-2.9h2.3l-.4-3.2-1.9 3.2zm46.5 2.9l1.6-7.6h3.1c.6 0 1 .1 1.3.2.3.1.6.3.8.6.2.3.3.6.3 1.1 0 .4-.1.8-.2 1.1-.1.4-.3.6-.6.9-.2.2-.5.4-.7.5-.2.1-.6.2-1 .3h-2.4l-.6 2.9h-1.6zm2.4-4.1h.5c.9 0 1.4-.1 1.7-.2.3-.1.5-.3.7-.5.2-.2.2-.5.2-.8 0-.2 0-.3-.1-.5l-.3-.3c-.2-.1-.5-.1-1-.1h-1.1l-.6 2.4zm-43.7 4.1l1.6-7.6h1.6L39.9 20h3.9l-.3 1.2h-5.4zm-11.7 0l1.3-6.3h-2.3l.3-1.2h6l-.3 1.2h-2.2l-1.4 6.3h-1.4zm-16.6 0l1.6-7.6H17l-.3 1.2h-4l-.4 1.7h4l-.3 1.4h-3.9l-.5 2.1h4.5l-.3 1.2h-6zm-7.7 0l1.6-7.6h3.1c.3 0 .6.1.8.2.4.2.6.3.8.5.2.2.4.3.5.6.1.2.2.5.3.8 0 .3.1.7.1 1.1 0 .8-.2 1.5-.5 2.2-.3.6-.7 1.1-1.2 1.5-.4.3-.8.5-1.4.6-.3.1-.8.1-1.5.1H2.1zM3.9 20h.8c.6 0 1 0 1.3-.1.3-.1.5-.2.7-.4.3-.3.6-.7.8-1.1.2-.5.3-1 .3-1.7 0-.6-.1-1-.2-1.2-.2-.3-.4-.5-.7-.6-.2-.1-.5-.1-1-.1H5L3.9 20z"/><path id="XMLID_198_" class="st3" d="M68.1 13.5c.9 0 1.7.3 2.2.9.6.6.9 1.3.9 2.3 0 .8-.2 1.6-.5 2.3-.4.8-.9 1.3-1.5 1.7-.7.4-1.4.6-2.2.6-.7 0-1.3-.2-1.8-.5s-.8-.7-1-1.2c-.2-.5-.3-1-.3-1.4 0-.4.1-.9.2-1.4.2-.7.4-1.2.8-1.7s.8-.9 1.4-1.2c.5-.2 1.1-.4 1.8-.4m-1 6.6c.5 0 .9-.1 1.2-.4.4-.3.7-.7 1-1.3.3-.6.4-1.2.4-1.7 0-.6-.2-1.1-.5-1.4-.3-.4-.7-.5-1.3-.5-.8 0-1.4.4-1.9 1.1-.5.7-.7 1.5-.7 2.4 0 .5.2 1 .5 1.3.4.3.8.5 1.3.5m-15-6.6c.9 0 1.6.2 2.1.6.5.4.9 1 1 1.7l-1.3.2c-.1-.4-.4-.7-.6-1-.3-.2-.7-.3-1.1-.3-.5 0-1 .1-1.4.4-.4.3-.8.7-1 1.2-.3.6-.4 1.2-.4 1.8 0 .6.1 1.1.5 1.4.3.3.7.5 1.3.5.3 0 .7 0 1.1-.1.3-.1.6-.2.9-.4l.2-1.1v-.1h-2l.2-1.2H55l-.7 3.2c-.4.2-.9.5-1.5.6-.6.2-1.2.3-1.8.3-.9 0-1.6-.2-2.1-.6-.7-.6-1-1.4-1-2.5 0-.7.1-1.4.4-2.1.4-.8.9-1.4 1.5-1.9.7-.3 1.5-.6 2.3-.6m31.9.2c.5 0 1 .1 1.3.2.3.1.5.3.7.6.2.3.3.6.3 1.1 0 .4-.1.8-.2 1.1-.1.3-.3.6-.5.8-.2.2-.5.4-.7.5-.2.1-.6.2-1 .3-.3 0-.7.1-1.4.1h-1l-.6 2.9h-1.5l1.6-7.5h3m-2.3 3.3h.5c.9 0 1.4-.1 1.7-.2.3-.1.5-.3.7-.5.2-.3.3-.5.3-.8 0-.2-.1-.4-.1-.5-.1-.1-.2-.2-.4-.3-.2-.1-.5-.1-1-.1h-1.1l-.6 2.4m-2.4-3.4l-.9 4.1c-.2.9-.4 1.5-.6 2-.2.5-.6.8-1.1 1.1-.5.3-1.1.4-1.8.4-.9 0-1.6-.2-2-.6-.5-.4-.7-1-.7-1.6v-.4s0-.1.1-.2c0-.2.1-.4.1-.7l.8-4h1.5l-.8 4.1-.2 1v.2c0 .3.1.6.4.8.2.2.6.3 1 .3s.7-.1 1-.2c.3-.1.5-.3.6-.6.1-.3.3-.8.4-1.4l.9-4.1h1.3m-18.6-.2c.6 0 1 .1 1.3.2.3.1.6.3.8.6.2.3.3.7.3 1.1 0 .6-.2 1.2-.6 1.6-.4.4-1 .7-1.7.8h-.1l.1.1c.2.2.4.4.6.7.3.6.7 1.4 1.1 2.5h-1.6c-.2-.5-.4-1.2-.8-2-.2-.5-.5-.8-.7-1-.2-.1-.5-.2-.8-.2H58l-.7 3.1h-1.5l1.6-7.5h3.3M58.1 17h.9c.9 0 1.4-.1 1.7-.2.3-.1.5-.3.7-.5.2-.2.2-.5.2-.7 0-.3-.1-.5-.3-.7-.2-.1-.5-.1-.9-.1h-1.7l-.6 2.2m-16.9-3.3L39.9 20v.1h3.9l-.2 1.2h-5.4l1.6-7.5h1.4m-5.4-.1l1.2 7.5h-1.4l-.2-1.6h-3l-.9 1.7H30l4.3-7.5h1.5m-3 4.5h2.5l-.4-3.1v-.1l-.1.1-2 3.1m-1.1-4.6l-.2 1.2h-2.2L28 21.2h-1.5l1.3-6.3v-.1h-2.3l.2-1.2h6m-7.1.1L23 21.2h-1.4l-2.1-5.1V16v.1l-1.1 5.1H17l1.6-7.5H20l2 5.1.1.1v-.1l1.1-5.1h1.4m-7.6 0l-.3 1.2h-4l-.4 1.7v.1h4l-.3 1.2h-3.9l-.5 2.1v.1H16l-.2 1.2H9.9l1.6-7.5H17m-11.2-.1h1.1c.3 0 .6.1.8.2.3.1.5.2.7.4.2.2.4.3.5.6.1.2.3.5.3.8 0 .3.1.6.1 1.1 0 .8-.2 1.5-.5 2.1-.3.6-.7 1.1-1.2 1.5-.4.3-.8.5-1.4.6-.3.1-.8.1-1.5.1H2.2l1.6-7.5h2M3.9 20h.9c.6 0 1 0 1.3-.1.3-.1.5-.2.7-.4.3-.3.6-.7.8-1.1.2-.5.3-1 .3-1.7 0-.6-.1-1-.3-1.2-.2-.3-.4-.5-.7-.6-.2-.1-.5-.1-1-.1H5L3.9 20m64.2-6.5c-.7 0-1.3.1-1.9.4-.6.3-1 .7-1.4 1.2-.4.5-.6 1.1-.8 1.7-.1.5-.2 1-.2 1.4 0 .5.1 1 .3 1.4.2.5.6.9 1 1.2.5.3 1.1.5 1.8.5.8 0 1.5-.2 2.2-.6.7-.4 1.2-1 1.5-1.7.4-.8.6-1.5.6-2.3 0-1-.3-1.7-.9-2.3-.5-.6-1.2-.9-2.2-.9zm-1 6.5c-.5 0-.9-.2-1.3-.5-.3-.3-.5-.8-.5-1.3 0-.9.2-1.6.7-2.4.5-.7 1.1-1.1 1.9-1.1.5 0 .9.2 1.2.5.3.3.5.8.5 1.4 0 .5-.1 1.1-.4 1.7-.3.6-.6 1-1 1.3-.2.3-.6.4-1.1.4zm-15-6.5c-.9 0-1.6.2-2.3.7-.7.5-1.2 1.1-1.5 1.9-.3.7-.4 1.4-.4 2.1 0 1.1.4 1.9 1 2.5.5.4 1.2.6 2.2.6.6 0 1.2-.1 1.8-.3.6-.2 1.1-.4 1.5-.6l.7-3.3h-3.4l-.3 1.3h2l-.2 1.1c-.3.1-.6.3-.9.3-.4.1-.7.1-1 .1-.6 0-1-.2-1.3-.4-.3-.3-.4-.8-.4-1.4 0-.7.1-1.3.4-1.8.2-.5.6-1 1-1.2.4-.3.9-.4 1.4-.4.4 0 .8.1 1.1.3.3.2.5.5.6 1l1.4-.2c-.2-.8-.5-1.4-1-1.8-.8-.3-1.5-.5-2.4-.5zm31.9.1h-3l-1.6 7.6h1.5l.6-2.9h1c.7 0 1.2 0 1.4-.1.4-.1.8-.1 1-.3.3-.1.5-.3.7-.5.2-.2.4-.5.6-.9.1-.4.2-.7.2-1.1 0-.4-.1-.8-.3-1.1-.2-.3-.5-.5-.8-.6-.2 0-.7-.1-1.3-.1zm-2.2 3.5l.5-2.2h1.1c.5 0 .8 0 1 .1.1 0 .3.1.3.3.1.1.1.3.1.4 0 .3-.1.5-.2.8-.2.2-.4.4-.7.5-.3.1-.8.2-1.7.2h-.4v-.1zm-2.4-3.5h-1.6l-.9 4.2c-.1.7-.3 1.1-.4 1.4-.1.3-.3.5-.6.6-.2.2-.5.2-.9.2s-.7-.1-1-.3c-.2-.2-.3-.4-.3-.7v-.2l.2-1 .9-4.1h-1.6l-.8 4c-.1.5-.2.8-.2 1v.5c0 .7.2 1.2.7 1.7.5.4 1.1.7 2 .7.7 0 1.3-.1 1.9-.4.5-.3.8-.7 1.1-1.1.3-.5.5-1.1.6-2l.9-4.5zm-18.7 0h-3.4l-1.6 7.6h1.6L58 18h.6c.4 0 .6.1.8.2.3.2.5.5.7 1 .4.9.7 1.6.8 2h1.7c-.4-1.1-.8-1.9-1.2-2.5-.2-.3-.4-.5-.6-.7.8-.1 1.4-.3 1.7-.8.4-.4.6-1 .6-1.6 0-.5-.1-.8-.3-1.2-.2-.3-.5-.5-.8-.7-.3 0-.8-.1-1.3-.1zm-2.5 3.3l.4-2h1.7c.5 0 .8.1.9.1.2.1.3.3.3.6 0 .2-.1.5-.2.7-.2.2-.4.4-.7.5-.3.1-.8.1-1.7.1h-.7zm-16.9-3.3h-1.6l-1.6 7.6h5.5l.3-1.3H40l1.3-6.3zm-5.5 0h-1.7l-4.3 7.6h1.6l.9-1.7h3l.3 1.7h1.5l-1.3-7.6zm-2.9 4.7l1.9-3.1.4 3.1h-2.3zm-1.1-4.7h-6l-.3 1.3h2.2l-1.3 6.3H28l1.3-6.3h2.2l.3-1.3zm-7.2 0h-1.4l-1.1 5.1-2-5.1h-1.5L17 21.2h1.5l1.1-5.1 2.1 5.1H23l1.6-7.6zm-7.5 0h-5.7l-1.6 7.6h6L16 20h-4.4l.5-2.1h4l.3-1.3h-4l.4-1.7h4.1l.2-1.3zm-11.3 0H3.7l-1.6 7.6h2.7c.7 0 1.2 0 1.5-.1.6-.1 1-.4 1.4-.6.5-.4.9-.9 1.2-1.5.3-.6.5-1.4.5-2.2 0-.4-.1-.7-.1-1.1-.1-.3-.2-.6-.3-.8-.2-.3-.3-.5-.5-.6-.2-.2-.4-.3-.7-.4-.3-.1-.5-.2-.8-.2-.3-.1-.6-.1-1.2-.1zM4 20l1-5.1h.9c.5 0 .8 0 1 .1.3.1.5.3.7.5.2.3.2.7.2 1.2 0 .6-.1 1.2-.3 1.7-.2.5-.5.8-.8 1.1-.2.2-.5.3-.7.4-.3.1-.7.1-1.2.1H4z"/></g></g><g id="XMLID_188_"><g id="XMLID_189_"><path id="XMLID_190_" class="st3" d="M21.6 10.8c-1.6 0-3-.1-4.1-.4-1.2-.3-2-.7-2.4-1.2-.5-.5-.7-1.1-.7-1.7l3.6-.1c0 .6.2 1 .6 1.2.6.4 1.6.5 3.1.5 1.3 0 2.1-.1 2.7-.4.6-.3.8-.6.8-.9 0-.3-.2-.6-.7-.8-.3-.1-1.2-.4-2.6-.7-1.4-.3-2.5-.6-3.1-.8-.7-.2-1.2-.5-1.5-.9-.4-.3-.5-.8-.5-1.2 0-.8.5-1.5 1.6-2.1 1.1-.6 2.7-.8 4.8-.8 2.2 0 3.8.3 5 .8 1.2.5 1.8 1.3 1.9 2.2h-3.6c-.1-.5-.4-.8-.9-1.1-.6-.3-1.4-.4-2.4-.4s-1.8.1-2.2.3c-.5.2-.7.5-.7.8 0 .3.2.5.7.7.4.2 1.3.5 2.7.8 2.1.5 3.4.9 4 1.2.8.4 1.3 1 1.3 1.7 0 .9-.6 1.6-1.9 2.2-1.4.8-3.2 1.1-5.5 1.1zm27.9-.2L53.3.7h3.5l4.9 6.7L64.4.7h3.5L64 10.6h-3.5l-4.9-6.7-2.6 6.7h-3.5zm-19.9 0L40 .7h4.2l2.9 9.9h-3.5L43 8.4h-7.3l-2.2 2.2h-3.9zm7.3-3.8l5.5.1-1.1-4.1m26.4 7.8L71.6.7h3.7l-3.9 9.9h-3.7z"/></g></g></g><g id="XMLID_185_"><path id="XMLID_186_" class="st4" d="M86.4 22.8v42.6L11.5 75.8V33.2z"/></g><g id="XMLID_182_"><path id="XMLID_184_" class="st1" d="M34.3 32.6c-.5-2.3-2.3-4.2-4.2-4.9-1.7-.8-3.6-1.5-5.5-1.3-3.6.2-6.5 1.7-8.8 3.1 0 0-.7.2-1.9.3-.3-.2-.7-.4-1-.6-1.6-.8-3.2-1.9-5.4-2-2.2-.1-4.4 1.3-5.6 3.1-.7.9-1.9 3.1-1.6 6.4.2 3.1 1.5 6 2.1 7.5.8 2 1.6 3.9 2.5 5.8.4.8 1 1.8.9 2.7-.3 3.1-.4 6.1 0 9.3.4 3.5 3.2 14 7.3 14.7 2.3.4 2.1-2.9 2-4.5-.3-3.6-.1-12.5 4.6-13 4.9-.2 5.6 8.5 5.9 12.2.2 1.8 0 4.6 2.3 4.5 2.4-.1 3.7-3.3 4.3-5.4C34.1 64 34 57 32 50.6c-.3-.9.2-1.9.4-2.8.2-.6.3-1.3.5-1.9.2-.4.3-.9.4-1.3.7-3.6 2-7.4 1-12z"/><path id="XMLID_183_" class="st0" d="M32.7 45.9c.2-.4.3-.9.4-1.3.9-3.5 2.1-7.4 1.1-11.9-.5-2.3-2.3-4.2-4.2-4.9-1.7-.8-3.6-1.5-5.5-1.3-3.6.2-6.5 1.7-8.8 3.1 2.6-.8 5.6-1.7 8.8-1.6 2.9.4 7 1.9 7.8 5.3.9 3.5-.1 7.5-.6 10.9-.1.3-.1.7-.2 1-.3.9-.5 1.8-.8 2.8-.2.8-.5 1.7-.5 2.6 0 .6.2 1 .4 1.6.1.6 1 4.1 1.2 5.6.4 3.6 0 7-.6 10.4-.3 1.8-1.6 5.8-3.3 6.1-.8.1-1.2-.5-1.3-1.2-.2-1.9-.5-3.9-.9-5.7-.8-3.7-1.9-9.3-6.3-9.3h-.2c-4.4.5-5.5 5.9-5.8 9.7-.1 1.9-.1 3.7 0 5.6 0 .6.3 1.9-.4 2-.5 0-1-.2-1.4-.5-1.5-1.1-2.3-3.2-2.9-4.9-1.1-3.3-2.1-6.6-2.4-10.1-.1-1.9 0-3.8.3-5.7.1-.7.3-1.3.2-2 0-.8-.5-1.7-.8-2.4-.5-2.1-1.2-3.8-2-5.6-.2-.4-.3-.8-.5-1.2-.1-.3-.2-.7-.3-1-.5-1.7-1.1-3.6-1.2-5.4-.1-2.8.9-4.2 1.4-5 1-1.5 2.5-2.4 4.1-2.5 1.6 0 3.3.8 4.8 1.4 3.2 1.4 6.4 2.6 9.1 2.5-2.8-.5-5.5-2.1-8.6-3.8-1.6-.8-3.2-1.9-5.4-2-2.2-.1-4.4 1.3-5.6 3.1-.7.9-1.9 3.1-1.6 6.4.2 3.1 1.5 6 2.1 7.5.8 2 1.6 3.9 2.5 5.8.4.8 1 1.8.9 2.7-.3 3.1-.4 6.1 0 9.3.4 3.5 3.2 14 7.3 14.7 2.3.4 2.1-2.9 2-4.5-.3-3.6-.1-12.5 4.6-13 4.9-.2 5.6 8.5 5.9 12.2.2 1.8 0 4.6 2.3 4.5 2.4-.1 3.7-3.3 4.3-5.4C34 64 33.9 57 31.9 50.6c-.3-.9.2-1.9.4-2.8.1-.7.3-1.3.4-1.9z"/></g><path id="XMLID_179_" class="st5" d="M51.2 62.6l3.3-28.7h4.2c1.2 0 1.9 0 2.2.1.6.1 1.2.3 1.7.7.5.4 1 .9 1.4 1.5.4.7.8 1.5 1.1 2.4.3.9.5 2 .7 3.2.2 1.2.3 2.5.3 4 0 3.1-.3 5.8-1 8.2-.6 2.4-1.4 4.3-2.4 5.7-.8 1.1-1.7 1.9-2.9 2.4-.7.3-1.7.4-3.1.4h-5.5v.1zm3.7-4.6h1.6c1.2 0 2-.1 2.6-.4.5-.3 1-.8 1.4-1.5.6-1.1 1.2-2.5 1.6-4.2.4-1.8.6-3.8.6-6.2 0-2-.2-3.6-.5-4.6-.4-1-.8-1.7-1.3-2-.4-.2-1-.4-2-.4H57L54.9 58z"/><path id="XMLID_178_" class="st5" d="M76 45.8h6.9l-1.4 12.3c-.8 1-1.8 1.8-3 2.5s-2.4 1-3.6 1c-1.9 0-3.4-.8-4.4-2.4-1.4-2.2-2.1-5.4-2.1-9.5 0-2.8.3-5.5.9-8 .7-3.1 1.8-5.5 3.1-7.2 1.3-1.7 2.9-2.5 4.7-2.5 1.8 0 3.2.8 4.3 2.3 1.1 1.5 1.8 3.8 2.1 6.7l-3 .6c-.3-1.6-.7-2.8-1.3-3.7-.6-.8-1.3-1.2-2.2-1.2-1 0-2 .5-2.8 1.5-.9 1-1.5 2.5-2 4.6-.5 2.1-.7 4.3-.7 6.8 0 2.4.3 4.2.9 5.4.6 1.2 1.5 1.7 2.6 1.7.7 0 1.4-.2 2.1-.5.7-.3 1.3-.8 1.9-1.3l.5-4.3h-4l.5-4.8z"/><path id="XMLID_177_" class="st5" d="M37.3 53.3l3-.3c0 1.8.2 3 .5 3.6.5 1 1.3 1.5 2.6 1.5 1.1 0 1.8-.3 2.3-1 .5-.7.7-1.5.7-2.5 0-.8-.2-1.6-.6-2.2-.3-.4-1-1.1-2.2-2.1-1.2-1-2.1-1.8-2.6-2.4-.5-.6-1-1.5-1.3-2.5-.3-1-.5-2.2-.5-3.6 0-2.4.5-4.4 1.4-6 1-1.6 2.3-2.4 4.1-2.4 1.8 0 3.2.8 4.2 2.4 1 1.6 1.5 3.7 1.6 6.3l-3.1.3c-.1-1.4-.3-2.4-.8-3.2-.5-.7-1.2-1.1-2-1.1-.9 0-1.5.3-1.9.9-.4.6-.6 1.3-.6 2.2 0 .8.2 1.5.5 2s1.1 1.3 2.3 2.2c1.8 1.4 2.9 2.6 3.4 3.5.7 1.3 1.1 3 1.1 5 0 2.5-.5 4.7-1.6 6.5-1.1 1.8-2.6 2.7-4.5 2.7-1.3 0-2.5-.4-3.5-1.2-1-.8-1.7-2-2.1-3.5-.3-1.5-.5-3.1-.4-5.1z"/><g id="XMLID_159_"><path id="XMLID_175_" class="st3" d="M92.7 89.1c0-.7-.1-1.5-.1-2.1-.2.6-.4 1.2-.6 1.9l-.9 2.4h-.5l-.8-2.4c-.2-.7-.4-1.3-.6-1.9 0 .6-.1 1.5-.1 2.2l-.1 2.1h-.6l.4-5h.8l.8 2.4c.2.6.4 1.2.5 1.7.1-.5.3-1 .5-1.7l.9-2.4h.8l.3 5h-.6l-.1-2.2z"/><path id="XMLID_160_" class="st3" d="M94.6 86.4c.3-.1.8-.1 1.2-.1.7 0 1.1.1 1.4.4.2.2.4.6.4.9 0 .7-.4 1.1-.9 1.3.4.1.6.5.7 1 .1.7.3 1.2.4 1.4h-.7c-.1-.2-.2-.6-.3-1.2-.1-.7-.4-.9-1-1h-.6v2.2h-.7v-4.9zm.6 2.3h.7c.7 0 1.1-.4 1.1-.9 0-.6-.5-.9-1.1-.9-.3 0-.5 0-.6.1v1.7z"/></g></g></svg>