<svg id="Layer_1" xmlns="http://www.w3.org/2000/svg" viewBox="175.4 -226.2 330.3 557.2"><style>.st0{fill:#F2F2F2;} .st1{fill:#C398C5;} .st2{fill:#732282;} .st3{fill:#26A9E0;} .st4{fill:#187999;} .st5{fill:#777777;} .st6{fill:#BBBDBF;} .st7{fill:#77BC1F;} .st8{fill:#5A8E3F;} .st9{fill:#D91C5C;} .st10{fill:#921941;} .st11{fill:#A01C4C;} .st12{fill:#F7B334;} .st13{fill:#AC782B;} .st14{fill:#E286A8;} .st15{fill:#EC1C24;} .st16{fill:#491C56;} .st17{fill:#C398C5;stroke:#732282;stroke-width:0.1899;stroke-miterlimit:10;} .st18{enable-background:new ;} .st19{fill:#EFEFEF;} .st20{fill:#FFFFFF;} .st21{opacity:0.8;fill:#59595A;enable-background:new ;} .st22{fill:#811619;} .st23{fill:#56873D;} .st24{fill:#FFFFFF;stroke:#77BC1F;stroke-miterlimit:10;} .st25{fill:#2D2D2D;} .st26{fill:#1B7592;} .st27{fill:#552264;} .st28{fill:#652D90;} .st29{fill:#831619;} .st30{fill:#FFFFFF;stroke:#EC1C24;stroke-miterlimit:10;} .st31{fill:#86171B;} .st32{fill:#808080;} .st33{fill:#09A0AE;} .st34{fill:#F5971E;} .st35{fill:#B61E53;} .st36{fill:#7FA55E;} .st37{fill:#B7C1E2;} .st38{fill:#2B388F;} .st39{fill:none;} .st40{fill:#BE1E2D;} .st41{fill:#815C24;} .st42{fill:#FFFFFF;stroke:#603916;stroke-miterlimit:10;} .st43{fill:#603813;} .st44{fill:#9A3621;} .st45{fill:#FFFFFF;stroke:#F05A29;stroke-miterlimit:10;} .st46{fill:#F05A29;}</style><path class="st0" d="M175.4-226.2h330.3V331H175.4z"/><g id="XMLID_545_"><path id="XMLID_141_" class="st1" d="M313.4 188.4h-49.7l-.2 6.6h-22v67h71.9z"/><g id="XMLID_136_"><path id="XMLID_140_" class="st2" d="M313.4 187.9h-49.7c-.3 0-.5.2-.5.5 0 1.1-.1 2.2-.1 3.3 0 .9-.5 3.3.2 2.8-1.1.7-5.1 0-6.4 0h-15.3c-.3 0-.5.2-.5.5v67c0 .3.2.5.5.5h71.9c.3 0 .5-.2.5-.5v-73.6c0-.6-.9-.6-.9 0v49.5c0 7.4-.9 15.5 0 22.9.2 1.4.7 1-1.1.8-3-.4-6.3 0-9.3 0h-58.1c-.7 0-1.7.2-2.4 0-.9-.2.3 1 0 0-.6-2.2 0-5.4 0-7.7v-30.8-17c0-3.3-.4-6.9 0-10.1.2-1.4-.8-.4.4-.4 2.4-.2 4.8 0 7.1 0h13.9c.3 0 .5-.2.5-.5 0-1.3.1-2.5.1-3.8 0-.8.5-2.9-.3-2.3.5-.4 2.7 0 3.3 0h46.3c.5-.1.5-1.1-.1-1.1z"/></g></g><g id="XMLID_529_"><g id="XMLID_165_"><path id="XMLID_166_" class="st3" d="M298 179.5v-19h14.8l.1-12.4h-56.4v-12.8l25.7.2V90.3l-43.7-.1v-255.8l58.5-.2.2-20.5 11.6-.2.2-35.3H190.4V262h50v-68h22v-6.4l51-.2v-7.9H298zm-1-1h-36v14h-23v-32h59v18z"/></g><g id="XMLID_157_"><path id="XMLID_164_" class="st4" d="M298.6 179.5c0-6.1-.1-12.2 0-18.2 0-.9-1-.4.6-.2 1.5.2 3.2 0 4.8 0h8.8c.3 0 .6-.3.6-.6 0-4.1.1-8.2.1-12.4 0-.3-.3-.6-.6-.6h-51.1c-1.3 0-3.9.5-5.1 0 1 .4.5-.3.5-1.8v-6.8c0-.7.1-3.7-.3-3.2-.5.5 1.6.3 2.2.3 7.7.1 15.5.1 23.2.2.3 0 .6-.3.6-.6V90.4c0-.3-.3-.6-.6-.6-13 0-25.9 0-38.9-.1-.8 0-4.9-.2-4.4.3.6.6.2-.1.3-.6.3-2.1 0-4.5 0-6.6V9.4-92.8v-68c0-1.3-.4-3.3 0-4.5.1-.4-1 .7-.4.5.5-.1 1.2 0 1.7 0 2.5.2 5.1 0 7.6 0 15.2-.1 30.4-.1 45.5-.2h3.5c.3 0 .6-.3.6-.6.1-5.9.1-11.9.2-17.8 0-.6-.3-2.1 0-2.6-.6 1.1 1.2.5 2.4.5 2.9 0 5.7-.1 8.6-.1.3 0 .6-.3.6-.6.1-11.8.2-23.6.2-35.3 0-.3-.3-.6-.6-.6H190.6c-.3 0-.6.3-.6.6v476.4c0 2-.5 4.6 0 6.5.1.2 0 .6 0 .8 0 .3.3.6.6.6h50c.3 0 .6-.3.6-.6v-35-23.5c0-2.5.2-5 0-7.5 0-.5-.1-1.1 0-1.6.1-.7-1.1.2.1.2 7.1.1 14.2 0 21.3 0 .3 0 .6-.3.6-.6v-3.7c0-1.3.4-2.6-.5-2.1.7-.4 2.7 0 3.5 0 5.8 0 11.6 0 17.4-.1 10 0 20-.1 29.9-.1.3 0 .6-.3.6-.6v-7.9c0-.3-.3-.6-.6-.6H298c-.8 0-.8 1.2 0 1.2h9.7c1.5 0 3.7-.4 5.2 0 1.2.3-.2-.8 0-.3.3.6 0 2 0 2.6 0 .9-.2 2 0 2.9.2 1-.6 2.2.6 1.4-.3.2-1.3 0-1.5 0-2.6-.4-5.6 0-8.2 0-13.8.1-27.5.1-41.3.2-.3 0-.6.3-.6.6v3.2c0 1.3-.5 3.1.5 2.6-1.4.7-5 0-6.5 0h-15.4c-.3 0-.6.3-.6.6v62.4c0 1.6.3 3.7 0 5.3-.1.6 1.1-.4.2-.3-.8.1-1.7 0-2.5 0H214c-7 0-15-1.1-21.9 0-1.6.2-1.2-.3-1 .5-.1-.2-.1-.8 0-1.1.4-1.5 0-3.6 0-5.1v-54.5-93V-2.3v-105.8-80.2-23.9c0-2.6-.9-7 0-9.5-.4 1.1-.8.2.6.6 1.4.4 3.5 0 4.9 0h72.3c12.6 0 25.6.7 38.2 0 .5 0 1-.1 1.5 0 .9.1-.1-.3-.2-.5.6 1.9 0 5 0 7-.1 8.3-.1 16.5-.2 24.8 0 .9.2 2.2 0 3.1-.1.4 0 .4.3.1.6-.6-.7-.2-1.1-.3-3.1-.6-7 .1-10.2.2-.3 0-.6.3-.6.6 0 3.3-.1 6.5-.1 9.8 0 2.2-.1 4.4-.1 6.6 0 .9.4 3.4-.1 4.1.6-1 .7-.4-.4-.6-.9-.1-2 0-2.9 0h-10.9c-14.5 0-29.1.1-43.6.1-.3 0-.6.3-.6.6V90.3c0 .3.3.6.6.6h37.2c1.5 0 3.1.1 4.7 0s1.5.4 1.1-.5c.7 2.1 0 5.9 0 8.1v30.3c0 1.6-.1 3.2 0 4.7s-.5 1.8.6 1.3c-1 .5-3.4 0-4.5 0-2.9 0-5.8 0-8.7-.1-4.1 0-8.2-.1-12.4-.1-.3 0-.6.3-.6.6V148c0 .3.3.6.6.6h46.6c2.8 0 5.9.3 8.7 0 1.5-.2.6.1.5-.2.5 1.6 0 4.2-.1 5.8 0 1.6.5 4.3-.1 5.8-.2.6 1.2-.4-.1-.2-.8.1-1.7 0-2.6 0h-11.5c-.3 0-.6.3-.6.6v19c0 .9 1.3.9 1.3.1z"/><path id="XMLID_163_" class="st4" d="M297 177.9h-36c-.3 0-.6.3-.6.6v11.6c0 1.3-.5 2.4.6 1.8-1.1.6-4.6 0-5.8 0h-10c-2.1 0-4.7.4-6.8 0-.7-.1.4 1.1.3.1-.1-.8 0-1.7 0-2.5v-18.9-8c0-.6-.1-1.3 0-1.8.2-.6-1.1.5-.3.4 3.4-.7 7.6 0 11 0H295c.5 0 1.2-.1 1.7 0 .6.2-.4-1.1-.3 0 .6 5.7 0 11.7 0 17.4 0 .8 1.2.8 1.2 0v-18c0-.3-.3-.6-.6-.6h-59c-.3 0-.6.3-.6.6v32c0 .3.3.6.6.6h23c.3 0 .6-.3.6-.6 0-4.4-.6-9.1 0-13.4.1-1-1 .3-.3.1.4-.1 1.2 0 1.6 0 2.1.2 4.4 0 6.6 0H297c.8-.2.8-1.4 0-1.4z"/></g></g><g id="XMLID_520_"><g id="XMLID_521_"><path id="XMLID_113_" class="st5" d="M400.5-41.2l.4 89.3 78.7-.3-3.8-89.3z"/><g id="XMLID_101_"><path id="XMLID_105_" class="st6" d="M399.8-41.2c.1 26.1.3 52.1.4 78.2 0 3.7 0 7.4.1 11.1 0 .3.3.6.6.6l78.7-.3c.3 0 .6-.3.6-.6-1.1-26-2.2-52-3.4-78.1-.2-3.8-.3-7.5-.5-11.3 0-.3-.3-.6-.6-.6l-75.3.3c-.8 0-.8 1.3 0 1.2l71.3-.3c1.2 0 2.5-.2 3.6 0-.1 0 .2-1-.2.5-.7 3.7.4 8.5.5 12.3.6 15.1 1.3 30.3 1.9 45.4.3 6.6.6 13.3.9 19.9.1 3.2 1 7.2.4 10.4.1-.6 1.1-.1-.4-.4-1.7-.3-3.8 0-5.5 0-6.3 0-12.5 0-18.8.1-14.8.1-29.6.1-44.5.2-2.2 0-6.8 1-8.9 0 1.1.5.6.1.6-1.4v-6.1c-.2-27-.3-54.1-.5-81.1.3-.8-1-.8-1 0z"/></g></g></g><g id="XMLID_512_"><path id="XMLID_133_" class="st7" d="M401 49.2l-.1 74.3 81.8.2-3-74.9z"/><g id="XMLID_128_"><path id="XMLID_132_" class="st8" d="M400.4 49.2c0 24.8 0 49.5-.1 74.3 0 .3.3.6.6.6 27.3.1 54.5.1 81.8.2.3 0 .6-.3.6-.6-1-25-2-49.9-3.1-74.9 0-.3-.3-.6-.6-.6-26.2.1-52.4.3-78.6.4-.8 0-.8 1.3 0 1.2 22.7-.1 45.4-.2 68.2-.4 3.3 0 6.8-.4 10.1-.1.4 0-.1-1.2-.2.2-.1 1.6.1 3.2.2 4.8.5 13.1 1.1 26.1 1.6 39.2.3 6.5.5 13.1.8 19.6.1 3.2.9 7 .4 10.2.1-.4 1.1-.1-.4-.4-1.5-.2-3.3 0-4.8 0h-16.3c-14.3 0-28.5-.1-42.8-.1h-14.4c-.6 0-1.9.2-2.5 0 1 .4.4.5.6-1 .6-5.3 0-11.1 0-16.4v-24-32.2c.1-.8-1.1-.8-1.1 0z"/></g></g><g id="XMLID_504_"><path id="XMLID_126_" class="st1" d="M483.4 137h-29.8l-.2 50h-52.2l.2 122.3 92 .8z"/><g id="XMLID_121_"><path id="XMLID_125_" class="st2" d="M483.4 135.9h-29.8c-.3 0-.6.3-.6.6-.1 14.8-.1 29.5-.2 44.3 0 1.4.6 4.4 0 5.7.5-1.1.6-.3-.5-.6s-2.6 0-3.8 0h-47.3c-.3 0-.6.3-.6.6.1 35.8.1 71.6.2 107.4v15.2c0 .3.3.6.6.6l80.4.6c3.8 0 7.7.1 11.5.1.3 0 .6-.3.6-.6-1.1-19.6-2.2-39.1-3.4-58.7-1.8-31-3.6-62-5.3-93-.4-7.2-.8-14.3-1.2-21.5 0-.8-1.3-.8-1.2 0 1.6 28.4 3.3 56.8 4.9 85.1 1.1 19.7 2.3 39.3 3.4 59 .4 6.7.8 13.4 1.2 20.2.1 2.5 1.2 6.4.5 8.9-.1.2 1.1-.6.3-.5-.7.1-1.4 0-2.1 0-2.8 0-5.6 0-8.3-.1-9.2-.1-18.5-.1-27.7-.2-10.5-.1-20.9-.1-31.4-.2-6.6 0-13.5-.6-20.1-.1-.5 0-1.2.1-1.7 0-.7-.1.5 1 .3.4-.3-1.2 0-2.9 0-4.2v-20.2c0-20.5-.1-41-.1-61.5 0-8.4 0-16.8-.1-25.2v-8c0-.9-.3-2.4 0-3.2-.4 1.1-.8.3.4.6 1.2.3 2.7 0 3.9 0H453.5c.3 0 .6-.3.6-.6.1-14.8.1-29.5.2-44.3 0-1.3-.6-4.4 0-5.7-.6 1.2 0 .4 1.3.6 1.9.2 3.9 0 5.8 0h22.1c.7-.3.7-1.5-.1-1.5z"/></g></g><g id="XMLID_496_"><ellipse id="XMLID_99_" class="st5" cx="356.6" cy="36" rx="13.2" ry="13"/><g id="XMLID_94_"><path id="XMLID_98_" class="st6" d="M369.2 36c-.8 15.8-25.2 16.1-25.2 0s24.4-15.9 25.2 0c0 .8 1.3.8 1.2 0-.4-7.5-6.1-13.6-13.8-13.6-7.4 0-13.9 6.1-13.8 13.6.1 17.7 26.8 17.5 27.7 0 0-.8-1.2-.8-1.3 0z"/></g></g><g id="XMLID_487_"><g id="XMLID_488_"><path id="XMLID_112_" class="st9" d="M400.9 135.8l.3 50.2h50.9l.2-49.4z"/><g id="XMLID_107_"><path id="XMLID_111_" class="st10" d="M400.3 135.6c.1 16.6.2 33.3.2 49.9 0 .3.3.6.6.6H452c.3 0 .6-.3.6-.6.1-16.4.1-32.8.2-49.2 0-.3-.3-.6-.6-.6-17.1-.2-34.3-.4-51.4-.7-.8 0-.8 1.2 0 1.2l43.7.6c2.3 0 4.9-.2 7.2.1 1 .1-.2-.9-.1-.3.2.8 0 1.8 0 2.6 0 8.4-.1 16.8-.1 25.2 0 6.7.9 14.1-.1 20.7-.1.9 1-.4.2-.2s-1.9 0-2.7 0h-38.1c-2.6 0-5.9-.5-8.5 0-1.2.2-1.1-.5-.6.6-.2-.4 0-1.5 0-2 .6-8.9-.1-18-.1-27 0-7-.1-14-.1-21 .1-.7-1.2-.7-1.2.1z"/></g></g></g><g id="XMLID_478_"><g id="XMLID_479_"><path id="XMLID_92_" class="st9" d="M370.4-222h10.5l-.2 11.1 9.9.2v9.4l8.5 11.9.4 35.6-23 .1-1-4.3h-17.4l.3-19h12.5z"/><g id="XMLID_87_"><path id="XMLID_91_" class="st11" d="M370.4-221h5.2c1.1 0 2.5.2 3.6 0s1.6.6 1-.5c.6 1.2-.1 4.5-.1 5.8 0 1.7 0 3.3-.1 5 0 .3.3.6.6.6 1.5 0 3 0 4.5.1.9 0 5.3 0 5.1-.2-.4-.4-.3 3.1-.3 3.8 0 1.5-.4 3.7 0 5.1 1.3 4.6 7.8 8.7 8.5 12.8.6 3 0 6.7 0 9.7v14c0 2.9-.7 7 0 9.8.3 1.3-.4.9.4.6-1 .4-2.9 0-4 0-4.9 0-9.9 0-14.8.1-.8 0-3.3.5-4.1 0 .8.5.4-.3.5-1.3.1-.9 0-1.9 0-2.9 0-.3-.3-.6-.6-.6h-13.2c-1 0-2.3-.2-3.3 0-1.2.3-1.2-.5-.7.6-.6-1.3.1-4.3.1-5.6 0-2.8.1-5.7.1-8.5 0-.9.2-4.8-.2-4.4-.6.5 1.3.3 1.8.3h10.3c.3 0 .6-.3.6-.6-.2-14.7-.4-29.4-.5-44.1 0-.8-1.3-.8-1.2 0 .1 10.2.2 20.5.4 30.7 0 3.9 1.1 9.2.2 13-.1.6 1.1-.3-.2-.3h-11.6c-.3 0-.6.3-.6.6l-.3 19c0 .3.3.6.6.6h12.3c1.2 0 4.1-.6 5.2 0 .5.3-.3-.4-.3-.4.2.3 0 1.4 0 1.8-.1.9 0 1.9 0 2.9 0 .3.3.6.6.6 7.7 0 15.5-.1 23.2-.1.3 0 .6-.3.6-.6 0-11.2-.1-22.3-.1-33.5 0-4-3.2-6.8-5.5-10-1.2-1.7-2.7-3.4-3-5-.5-2.6 0-5.7 0-8.4 0-.3-.3-.6-.6-.6-1.8 0-3.6-.1-5.5-.1-1.1 0-2.3.1-3.4-.1-1.4-.2-.4.2-.4.3-1-2.7.1-7.7.2-10.6 0-.3-.3-.6-.6-.6h-10.5c-.7 0-.7 1.2.1 1.2z"/></g></g></g><g id="XMLID_469_"><g id="XMLID_470_"><path id="XMLID_85_" class="st12" d="M309.8-151.9l21.2-.1-.2-7.2 26.9.7.7-17.5h12.5l-.5-45.4-60.3.4z"/><g id="XMLID_80_"><path id="XMLID_84_" class="st13" d="M309.8-151.2c7.1 0 14.1-.1 21.2-.1.3 0 .6-.3.6-.6 0-1.5-.1-3-.1-4.6 0-.6-.3-2-.1-2.5-.1.1-1 .7-.2.5 2.2-.7 6 .1 8.2.1l18.3.3c.3 0 .6-.3.6-.6.2-5.2 1.4-11.3.6-16.4 0-.2-.1-.8 0-1 .3-.5-1.1.6-.2.3 1.1-.3 2.8 0 3.9 0h8.2c.3 0 .6-.3.6-.6-.2-15-.4-30.1-.5-45.1 0-.3-.3-.6-.6-.6-20.1.1-40.2.3-60.3.4-.3 0-.6.3-.6.6l-.3 69.3c0 .8 1.2.8 1.2 0 .1-12.4.1-24.8.2-37.1 0-7.9.1-15.9.1-23.8 0-2.1.4-4.8 0-6.9-.1-.3-.1-1.1 0-1.4-.3.7-1 .5.1.5 14.3.9 29-.2 43.3-.3 3.6 0 7.1-.1 10.7-.1 1.6 0 3.7-.4 5.3 0 .6.1-.5-1.1-.4-.2.1.9 0 1.8 0 2.7 0 3.4.1 6.8.1 10.2l.3 27.4c0 1.1.1 2.3 0 3.5s1 .4-.5.2c-3.6-.6-7.7 0-11.3 0-.3 0-.6.3-.6.6-.2 3.9-.3 7.9-.5 11.8-.1 1.6.4 4.2-.2 5.7-.2.5 1.1-.5.2-.4-.6.1-1.4 0-2 0-8.2-.1-16.4-.3-24.6-.4-.3 0-.6.3-.6.6 0 1.3.4 6.8.4 6.8.2-.2-4.5-.2-5.4-.2-5.1 0-10.3.1-15.4.1-.5 0-.5 1.3.3 1.3z"/></g></g></g><g id="XMLID_460_"><g id="XMLID_461_"><path id="XMLID_78_" class="st14" d="M298.5-88.4v70.6h12.6l.4 153.6-28.4-.3V89.2h-43.3l-.3-177.7z"/><g id="XMLID_73_"><path id="XMLID_77_" class="st15" d="M297.8-88.4v70.6c0 .3.3.6.6.6h5.3c1.8 0 5.5-.7 7.2 0-.4-.2-.6-1-.5-.1.1.6 0 1.2 0 1.8V2.3c.1 21.2.1 42.4.2 63.6.1 19.6.1 39.2.2 58.7v7.5c0 .9.3 2.6 0 3.5.4-1 .5-.3-.9-.6-2.1-.5-4.8-.1-6.9-.1-5.4-.1-10.7-.1-16.1-.2-.9 0-1.9-.2-2.8 0-1.1.2-.9-.5-.4.6-.3-.7 0-2.1 0-2.8v-15.4V89c0-.3-.3-.6-.6-.6h-29.9c-4 0-9 .8-13 0-.8-.2.4 1.2.3.3-.1-.6 0-1.3 0-2 0-17.9-.1-35.9-.1-53.8 0-26.1-.1-52.1-.1-78.2 0-10 0-20-.1-30v-9.4c0-1-.4-2.9 0-3.9-.4 1-.6.2.9.5 1.9.4 4.2 0 6.1 0h51.4c.8 0 .8-1.2 0-1.2-19.6 0-39.3-.1-58.9-.1-.3 0-.6.3-.6.6 0 20 .1 39.9.1 59.9.1 31.9.1 63.7.2 95.6v22.2c0 .3.3.6.6.6h38.7c1 0 2.3.2 3.3 0 1.2-.3 1.1.5.6-.6.5 1.1 0 3.6 0 4.8v41.4c0 .3.3.6.6.6 9.5.1 18.9.2 28.4.4.3 0 .6-.3.6-.6-.1-44.8-.2-89.7-.4-134.5 0-6.4 0-12.8-.1-19.2 0-.3-.3-.6-.6-.6-3.9 0-7.9.1-11.8 0-1.3 0-.1 1.1-.2 0-.1-.7 0-1.5 0-2.3v-23.5-44.2c0-.4-1.3-.4-1.3.4z"/></g></g></g><g id="XMLID_451_"><g id="XMLID_452_"><path id="XMLID_71_" class="st14" d="M239.5 161.7l56.4-.1-.2 15.7h-36l.3 14.3-20.5.1z"/><g id="XMLID_62_"><path id="XMLID_66_" class="st15" d="M239.1 162.3c15.7 0 31.4 0 47.2-.1 2.8 0 5.7.1 8.5 0 1.4-.1.4 0 .3-.3.4 1.6 0 4 0 5.6v7c0 .7.1 1.6 0 2.4-.2 1 1-.3.3-.1-2.7.7-6.7 0-9.4 0-8.7 0-17.4 0-26.2-.1-.3 0-.6.3-.6.6v8.1c0 1.5-.3 3.4 0 4.9.3 1.5.5.5.1.6-6.1 1.4-13-.7-19.2.1-1.3.2-.3.4-.3.2-.2-.8 0-1.9 0-2.7v-10.4-16.5c0-.8-1.2-.8-1.2 0v30c0 .3.3.6.6.6 6.9 0 13.8-.1 20.7-.1.3 0 .6-.3.6-.6 0-4.4.3-9-.1-13.3-.1-1.3-.1-.5-.4-.4.3-.1 1.1 0 1.4 0 2.1.2 4.3 0 6.4 0 9.3 0 18.6 0 27.9.1.3 0 .6-.3.6-.6 0-5.2.1-10.5.1-15.8 0-.3-.3-.6-.6-.6-18.9 0-37.7.1-56.6.1-.9 0-.9 1.3-.1 1.3z"/></g></g></g><g id="XMLID_442_"><g id="XMLID_443_"><path id="XMLID_61_" class="st5" d="M299.5-88l.1 69h11.5l-.2-69z"/><g id="XMLID_55_"><path id="XMLID_60_" class="st6" d="M298.9-88.5c0 23.2.1 46.4.1 69.6 0 .3.3.6.6.6h11.5c.3 0 .6-.3.6-.6-.1-23.2-.1-46.4-.2-69.6 0-.3-.3-.6-.6-.6h-11.4c-.8 0-.8 1.2 0 1.2h8.5c.7 0 2.2-.3 2.9 0-.7-.3-.6-.9-.5.3.3 4.5 0 9.2 0 13.7 0 14.5.1 29 .1 43.5v7.1c0 1 .4 3.2 0 4.2.1-.1 1-.5-.2-.5h-9.8c-1.4 0-.1.7-.2.3-.4-1.1 0-2.9 0-4.1v-7.9-22.1-35.3c-.1-.6-1.4-.6-1.4.2z"/></g></g></g><g id="XMLID_434_"><path id="XMLID_390_" class="st5" d="M298.5 162h14v17h-14z"/><g id="XMLID_68_"><path id="XMLID_387_" class="st6" d="M312.3 161.5v17.1l.7-.7h-14.1l.7.7v-17.1l-.7.7H313c.9 0 .9-1.4 0-1.4h-14.1c-.4 0-.7.3-.7.7v17.1c0 .4.3.7.7.7H313c.4 0 .7-.3.7-.7v-17.1c-.1-.9-1.4-.9-1.4 0z"/></g></g><g id="XMLID_425_"><g id="XMLID_426_"><path id="XMLID_54_" class="st14" d="M400.5-87.3l73.9.1 1.3 44.7-75.2.3z"/><g id="XMLID_48_"><path id="XMLID_53_" class="st15" d="M400.5-86.7c17 0 34.1.1 51.1.1 7.4 0 14.7-.1 22.1 0 1.3 0 .1-.4.1-.4.3.9.1 2.5.1 3.4.1 4.7.3 9.5.4 14.2.2 8.6 1.5 17.7.8 26.3-.1.8 1.2-.2.1-.2H461c-19.5.1-38.9.2-58.4.2-.6 0-1.6.2-2.1 0 1 .4.6.2.6-1.5v-15-28c0-.8-1.2-.8-1.2 0v45.1c0 .3.3.6.6.6l75.2-.3c.3 0 .6-.3.6-.6-.4-14.9-.9-29.8-1.3-44.7 0-.3-.3-.6-.6-.6-24.6-.1-49.3-.1-73.9-.2-.8.3-.8 1.6 0 1.6z"/></g></g></g><g id="XMLID_416_"><g id="XMLID_417_"><path id="XMLID_47_" class="st2" d="M381.5-221.6h86.8l3.8 85.4-55.9-.3-9 9.5-6.7 1.8-.2-68.9-8-7.9-1.2-9.7-9.6-.1z"/><g id="XMLID_41_"><path id="XMLID_46_" class="st16" d="M382-221h74.9c3.6 0 7.7-.5 11.3 0 .1 0 0-1.1-.2.3-.2 1.6.1 3.5.2 5.1.6 14.4 1.2 28.7 1.8 43.1.3 7.5.6 14.9 1 22.4.2 4.2-.1 8.8.6 13 .2 1.4.2.3.3.3-1.7.3-3.8 0-5.6 0-7.3 0-14.7-.1-22-.1s-14.7-.1-22-.1c-3.3 0-5.5-.8-7.8 1.6-2.3 2.4-4.4 5.4-7 7.4-.8.6-1.2.7-2.3 1-.8.2-1.9.4-2.7.7-1.4.7-1.9-.2-1.2 1.1-.3-.7 0-2.2 0-2.9v-7.8c0-16.7-.1-33.5-.1-50.2 0-2.9.8-6.7-.9-9-1.6-2.3-6.4-5.2-7.2-6.9-1.1-2.5-.7-6.8-1-9.6 0-.3-.3-.6-.6-.6h-4.2c-1.1 0-2.4-.2-3.5 0-.4.1-1.8-.3-1.3.2.3.3.3-3.7.3-4.5v-4.9c0-.8-1.2-.8-1.2 0v9.8c0 .3.3.6.6.6h4.2c1.1 0 2.4.2 3.5 0 .9-.1 1.8.5 1-.5.7.8.4 4.2.5 5.2.1 1.3 0 3.3.5 4.5 1 2.4 4.8 5.1 6.8 6.9 1.5 1.4 1.2.8 1.2 3.1 0 16.6.1 33.3.1 49.9v16.8c0 .4.4.7.8.6 2.3-.6 5.3-.9 7.3-2.3 3-2.1 5.1-5.7 7.8-8.2 1-.9.4-.7.9-.8.8-.2 1.9 0 2.7 0 3.2 0 6.4 0 9.7.1 14.4.1 28.8.2 43.2.2.3 0 .6-.3.6-.6-1.1-24.9-2.1-49.8-3.2-74.7-.2-3.6-.3-7.1-.5-10.7 0-.3-.3-.6-.6-.6h-86.6c-1-.1-1 1.1-.1 1.1z"/></g></g></g><g id="XMLID_407_"><g id="XMLID_408_"><path id="XMLID_40_" class="st3" d="M400.5-125.2l.1 36.8 73.8.1-2-47.6-56-.1-9.3 9z"/><g id="XMLID_20_"><path id="XMLID_39_" class="st4" d="M399.9-125.2c0 12.3.1 24.5.1 36.8 0 .3.3.6.6.6 24.6 0 49.2.1 73.8.1.3 0 .6-.3.6-.6-.7-15.9-1.3-31.8-2-47.7 0-.3-.3-.6-.6-.6-14.5 0-29-.1-43.5-.1h-10c-.9 0-2.2-.2-3 .2-2.7 1.3-5.7 5.5-7.8 7.6-2.1 2-4.8 2.3-7.8 3.1-.8.2-.4 1.4.3 1.2 3-.8 5.8-1.1 8.1-3.2 1.7-1.6 3.4-3.3 5.1-5 .6-.6 2.9-2.8 2.6-2.7 2-.7 5.6 0 7.7 0h14.8c9.9 0 19.8 0 29.6.1h3.2s-.2-1 0-.1c.5 3.2.3 6.8.4 10.1.4 10.3.8 20.7 1.3 31 .1 1.4-.1 3.2.2 4.6.3 1.4-.4 1.2.6.8-1.5.6-4.3 0-5.9 0-20 0-39.9-.1-59.9-.1-2.2 0-5.6.7-7.7 0 .8.3.2.6.5-1 .3-2.1 0-4.4 0-6.5 0-9.6-.1-19.1-.1-28.7 0-.7-1.2-.7-1.2.1z"/></g></g></g><g id="XMLID_399_"><path id="XMLID_36_" class="st14" d="M297.7-185.5v20.9h-58.2v57.3h69.1v-78.2z"/><g id="XMLID_29_"><path id="XMLID_35_" class="st15" d="M297-185.5v9.5c0 3.1 1 8.2 0 11.2.1-.4 1-.3-.2-.4-1.1-.1-2.1 0-3.2 0h-54.3c-.3 0-.6.3-.6.6v57.2c0 .3.3.6.6.6h69.1c.3 0 .6-.3.6-.6v-78.1c0-.3-.3-.6-.6-.6h-10.9c-.8 0-.8 1.2 0 1.2h6.9c1.1 0 2.5-.2 3.6 0 .9.2-.5-1-.2-.4.8 2 0 6 0 8.1v66.7c0 .9.1 1.8 0 2.7 0 .1 1.1-.1-.3-.3-3.4-.4-7.2 0-10.7 0h-52.3c-1.3 0-2.8-.2-4.1 0-1.5.3-.7-.3-.5.3-.8-2.9 0-7.2 0-10.2v-18.1-18.5c0-2.8-.9-7.2 0-9.9.1-.4-1.1.6-.3.4.4-.1 1 0 1.4 0 2.1.2 4.2 0 6.3 0h50.2c.3 0 .6-.3.6-.6v-20.9c.2-.7-1.1-.7-1.1.1z"/></g></g><g id="XMLID_395_"><g id="XMLID_380_" class="st18"><path class="st19" d="M414.5-155.3l-1.9-5.4c0 .8.1 1.5.1 2.2v3.1h-1v-6.4h1.5l1.8 5.1 1.8-5.1h1.5v6.4h-1v-3.2-1.2-.9l-1.9 5.4h-.9zM419.8-161.4c0-.2.1-.3.2-.4.1-.1.2-.1.4-.1s.3 0 .4.1c.1.1.2.2.2.4s-.1.3-.2.4c-.1.1-.2.2-.4.2s-.3-.1-.4-.2c-.1-.1-.2-.2-.2-.4zm1.1 6.1h-1v-4.9h1v4.9zM426.7-155.3h-1v-3c0-.4-.1-.7-.2-.8-.2-.2-.4-.3-.7-.3-.4 0-.8.1-1 .4s-.3.7-.3 1.3v2.4h-1v-4.9h.8l.1.6h.1c.1-.2.4-.4.6-.5.3-.1.6-.2.9-.2 1.2 0 1.7.6 1.7 1.8v3.2zM428-161.4c0-.2.1-.3.2-.4.1-.1.2-.1.4-.1s.3 0 .4.1c.1.1.2.2.2.4s-.1.3-.2.4c-.1.1-.2.2-.4.2s-.3-.1-.4-.2c-.1-.1-.2-.2-.2-.4zm1.1 6.1h-1v-4.9h1v4.9zM435.8-155.3l-1.9-5.4c0 .8.1 1.5.1 2.2v3.1h-1v-6.4h1.5l1.8 5.1 1.8-5.1h1.5v6.4h-1v-3.2-1.2-.9l-1.9 5.4h-.9zM444.3-155.3l-.2-.7c-.2.3-.5.5-.7.6-.2.1-.5.2-.9.2-.5 0-.9-.1-1.1-.4-.3-.3-.4-.6-.4-1.1 0-.5.2-.9.6-1.1.4-.3.9-.4 1.7-.4h.8v-.3c0-.3-.1-.5-.2-.7-.1-.2-.4-.2-.7-.2-.2 0-.5 0-.7.1s-.4.2-.7.3l-.3-.7.9-.3c.3-.1.6-.1.9-.1.6 0 1.1.1 1.4.4.3.3.5.7.5 1.3v3.3h-.9zm-1.5-.7c.4 0 .7-.1.9-.3.2-.2.3-.5.3-.9v-.4h-.6c-.5 0-.8.1-1.1.2-.2.1-.3.4-.3.7 0 .2.1.4.2.5.1.2.3.2.6.2zM448.9-160.2h.5l-.1 1c-.1 0-.3-.1-.5-.1-.4 0-.7.1-1 .4-.3.3-.4.6-.4 1v2.5h-1v-4.9h.8l.1.9h.1c.2-.3.4-.5.6-.7.4 0 .6-.1.9-.1zM451.3-157.8l.6-.7 1.5-1.6h1.2l-2 2.1 2.1 2.8h-1.2l-1.6-2.1-.6.5v1.7h-1v-6.8h1v4.1zM457.6-155.2c-.8 0-1.3-.2-1.8-.7-.4-.4-.6-1-.6-1.8s.2-1.4.6-1.9c.4-.5.9-.7 1.6-.7.6 0 1.1.2 1.5.6s.6.9.6 1.6v.6h-3.2c0 .5.1.8.4 1.1.2.3.6.4 1 .4.3 0 .6 0 .8-.1.2-.1.5-.1.8-.3v.8c-.3.1-.5.2-.8.3-.3.1-.6.1-.9.1zm-.2-4.2c-.3 0-.6.1-.8.3-.2.2-.3.5-.4.9h2.2c0-.4-.1-.7-.3-.9-.1-.2-.3-.3-.7-.3zM462.5-156c.3 0 .5 0 .8-.1v.8c-.1 0-.3.1-.4.1-.2 0-.4.1-.6.1-1 0-1.5-.5-1.5-1.5v-2.6h-.7v-.5l.7-.4.4-1h.6v1.1h1.4v.8h-1.4v2.6c0 .2.1.4.2.6.1-.1.3 0 .5 0z"/></g></g><g id="XMLID_392_"><g id="XMLID_383_" class="st18"><path class="st19" d="M422.5-96.6c0 .7-.2 1.2-.7 1.5s-1.1.5-1.9.5h-.7v2.4h-1v-6.4h1.8c.8 0 1.4.2 1.8.5.5.4.7.9.7 1.5zm-3.2 1.2h.6c.5 0 .9-.1 1.2-.3s.4-.5.4-.9-.1-.6-.3-.8-.6-.3-1.1-.3h-.7v2.3zM427.9-92.1h-1v-3c0-.4-.1-.7-.2-.8-.2-.2-.4-.3-.7-.3-.4 0-.8.1-1 .4-.2.3-.3.7-.3 1.3v2.4h-1v-6.8h1v1.7c0 .3 0 .6-.1.9h.1c.1-.2.3-.4.6-.5.2-.1.5-.2.9-.2 1.2 0 1.8.6 1.8 1.8v3.1zM432.4-92.1l-.2-.7c-.2.3-.5.5-.7.6-.2.1-.5.2-.9.2-.5 0-.9-.1-1.1-.4-.3-.3-.4-.6-.4-1.1 0-.5.2-.9.6-1.1.4-.3.9-.4 1.7-.4h.8v-.3c0-.3-.1-.5-.2-.7-.1-.2-.4-.2-.7-.2-.2 0-.5 0-.7.1s-.4.2-.7.3l-.3-.7.9-.3c.3-.1.6-.1.9-.1.6 0 1.1.1 1.4.4.3.3.5.7.5 1.3v3.3h-.9zm-1.5-.7c.4 0 .7-.1.9-.3.2-.2.3-.5.3-.9v-.4h-.6c-.5 0-.8.1-1.1.2-.2.1-.3.4-.3.7 0 .2.1.4.2.5.1.2.3.2.6.2zM437.1-97h.5l-.1 1c-.1 0-.3-.1-.5-.1-.4 0-.7.1-1 .4-.3.3-.4.6-.4 1v2.5h-1v-4.9h.8l.1.9h.1c.2-.3.4-.5.6-.7.3 0 .6-.1.9-.1zM442.6-92.1h-1v-3c0-.4-.1-.6-.2-.8-.1-.2-.4-.3-.7-.3-.4 0-.7.1-.9.4-.2.3-.3.7-.3 1.3v2.4h-1V-97h.8l.1.6h.1c.1-.2.3-.4.6-.5.3-.1.5-.2.8-.2.7 0 1.2.3 1.5.8h.1c.1-.2.3-.4.6-.6s.6-.2.9-.2c.6 0 1 .1 1.3.4.3.3.4.7.4 1.3v3.2h-1v-3c0-.4-.1-.6-.2-.8-.1-.2-.4-.3-.7-.3-.4 0-.7.1-.9.4-.2.2-.3.6-.3 1.2v2.6zM450.1-92.1l-.2-.7c-.2.3-.5.5-.7.6-.2.1-.5.2-.9.2-.5 0-.9-.1-1.1-.4-.3-.3-.4-.6-.4-1.1 0-.5.2-.9.6-1.1.4-.3.9-.4 1.7-.4h.8v-.3c0-.3-.1-.5-.2-.7-.1-.2-.4-.2-.7-.2-.2 0-.5 0-.7.1s-.4.2-.7.3l-.3-.7.9-.3c.3-.1.6-.1.9-.1.6 0 1.1.1 1.4.4.3.3.5.7.5 1.3v3.3h-.9zm-1.5-.7c.4 0 .7-.1.9-.3.2-.2.3-.5.3-.9v-.4h-.6c-.5 0-.8.1-1.1.2-.2.1-.3.4-.3.7 0 .2.1.4.2.5.1.2.3.2.6.2zM454.3-92c-.7 0-1.3-.2-1.7-.6-.4-.4-.6-1-.6-1.8s.2-1.4.6-1.9c.4-.4 1-.7 1.7-.7.5 0 1 .1 1.4.3l-.3.8c-.4-.2-.8-.3-1.1-.3-.8 0-1.3.6-1.3 1.7 0 .5.1 1 .3 1.2.2.3.5.4.9.4.5 0 .9-.1 1.3-.3v.9c-.2.1-.4.2-.6.2-.1.1-.4.1-.6.1zM456-96.9h1.1l1 2.8c.1.4.2.8.3 1.1 0-.2.1-.4.1-.6.1-.2.4-1.3 1.1-3.3h1.1l-2.1 5.5c-.4 1-1 1.5-1.9 1.5-.2 0-.5 0-.7-.1v-.8c.2 0 .3.1.5.1.5 0 .8-.3 1-.9l.2-.5-1.7-4.8z"/></g></g><g id="XMLID_389_"><g class="st18"><path class="st19" d="M428.2-64.5h-1.1v-2.9h-3v2.9h-1v-6.4h1v2.6h3v-2.6h1.1v6.4zM429.1-69.3h1.1l1 2.8c.1.4.2.8.3 1.1 0-.2.1-.4.1-.6.1-.2.4-1.3 1.1-3.3h1.1l-2.1 5.5c-.4 1-1 1.5-1.9 1.5-.2 0-.5 0-.7-.1v-.8c.2 0 .3.1.5.1.5 0 .8-.3 1.1-.9l.2-.5-1.8-4.8zM437.1-64.4c-.6 0-1.1-.2-1.4-.7h-.1c0 .4.1.7.1.7v2h-1v-7h.8c0 .1.1.3.1.7h.1c.3-.5.8-.7 1.5-.7.6 0 1.1.2 1.4.7.3.4.5 1.1.5 1.8 0 .8-.2 1.4-.5 1.9-.4.4-.9.6-1.5.6zm-.3-4.2c-.4 0-.7.1-.9.4-.2.2-.3.6-.3 1.2v.2c0 .6.1 1 .3 1.3.2.3.5.4.9.4s.6-.1.8-.4.3-.7.3-1.3c0-.5-.1-1-.3-1.2-.1-.4-.4-.6-.8-.6zM442.4-64.4c-.8 0-1.3-.2-1.8-.7-.4-.4-.6-1-.6-1.8s.2-1.4.6-1.9c.4-.5.9-.7 1.6-.7.6 0 1.1.2 1.5.6s.6.9.6 1.6v.6H441c0 .5.1.8.4 1.1.2.3.6.4 1 .4.3 0 .6 0 .8-.1.2-.1.5-.1.8-.3v.8c-.3.1-.5.2-.8.3-.2.1-.5.1-.8.1zm-.2-4.2c-.3 0-.6.1-.8.3-.2.2-.3.5-.4.9h2.2c0-.4-.1-.7-.3-.9-.1-.2-.4-.3-.7-.3zM447.9-69.4h.5l-.1 1c-.1 0-.3-.1-.5-.1-.4 0-.7.1-1 .4-.3.3-.4.6-.4 1v2.5h-1v-4.9h.8l.1.9h.1c.2-.3.4-.5.6-.7.3 0 .6-.1.9-.1zM451.8-69.4c.6 0 1.1.2 1.4.7.3.4.5 1.1.5 1.8 0 .8-.2 1.4-.5 1.9-.3.4-.8.7-1.4.7-.6 0-1.1-.2-1.4-.7h-.1l-.2.6h-.8v-6.8h1v2.6c.4-.6.8-.8 1.5-.8zm-.3.8c-.4 0-.7.1-.9.4-.2.2-.3.7-.3 1.2v.1c0 .6.1 1 .3 1.3.2.3.5.4.9.4s.6-.1.8-.4c.2-.3.3-.7.3-1.3.1-1.1-.3-1.7-1.1-1.7zM458-64.5l-.2-.7c-.2.3-.5.5-.7.6-.2.1-.5.2-.9.2-.5 0-.9-.1-1.1-.4-.3-.3-.4-.6-.4-1.1 0-.5.2-.9.6-1.1.4-.3.9-.4 1.7-.4h.8v-.3c0-.3-.1-.5-.2-.7-.1-.2-.4-.2-.7-.2-.2 0-.5 0-.7.1s-.4.2-.7.3l-.3-.7.9-.3c.3-.1.6-.1.9-.1.6 0 1.1.1 1.4.4.3.3.5.7.5 1.3v3.3h-.9zm-1.6-.7c.4 0 .7-.1.9-.3.2-.2.3-.5.3-.9v-.4h-.6c-.5 0-.8.1-1.1.2-.2.1-.3.4-.3.7 0 .2.1.4.2.5.2.2.4.2.6.2zM462.6-69.4h.5l-.1 1c-.1 0-.3-.1-.5-.1-.4 0-.7.1-1 .4-.3.3-.4.6-.4 1v2.5h-1v-4.9h.8l.1.9h.1c.2-.3.4-.5.6-.7.3 0 .6-.1.9-.1zM463.9-70.6c0-.2.1-.3.2-.4.1-.1.2-.1.4-.1s.3 0 .4.1c.1.1.2.2.2.4s-.1.3-.2.4c-.1.1-.2.2-.4.2s-.3-.1-.4-.2c-.1-.1-.2-.2-.2-.4zm1.1 6.1h-1v-4.9h1v4.9zM468.5-64.4c-.7 0-1.3-.2-1.7-.6-.4-.4-.6-1-.6-1.8s.2-1.4.6-1.9c.4-.4 1-.7 1.7-.7.5 0 1 .1 1.4.3l-.3.8c-.4-.2-.8-.3-1.1-.3-.8 0-1.3.6-1.3 1.7 0 .5.1 1 .3 1.2.2.3.5.4.9.4.5 0 .9-.1 1.3-.3v.9c-.2.1-.4.2-.6.2-.1.1-.3.1-.6.1z"/></g><g class="st18"><path class="st19" d="M431-61.7c-.6 0-1.1.2-1.4.6s-.5 1-.5 1.8.2 1.4.5 1.8c.3.4.8.6 1.4.6.3 0 .5 0 .8-.1.3-.1.5-.1.8-.2v.9c-.5.2-1.1.3-1.7.3-.9 0-1.7-.3-2.2-.9-.5-.6-.8-1.4-.8-2.4 0-.7.1-1.3.4-1.8.2-.5.6-.9 1.1-1.2s1-.4 1.6-.4c.7 0 1.3.1 1.8.4l-.4.9c-.2-.1-.4-.2-.7-.3h-.7zM438.1-56.1h-1v-3c0-.4-.1-.7-.2-.8-.2-.2-.4-.3-.7-.3-.4 0-.8.1-1 .4-.2.3-.3.7-.3 1.3v2.4h-1v-6.8h1v1.7c0 .3 0 .6-.1.9h.1c.1-.2.3-.4.6-.5.2-.1.5-.2.9-.2 1.2 0 1.8.6 1.8 1.8v3.1zM442.6-56.1l-.2-.7c-.2.3-.5.5-.7.6-.2.1-.5.2-.9.2-.5 0-.9-.1-1.1-.4-.3-.3-.4-.6-.4-1.1 0-.5.2-.9.6-1.1.4-.3.9-.4 1.7-.4h.8v-.3c0-.3-.1-.5-.2-.7-.1-.2-.4-.2-.7-.2-.2 0-.5 0-.7.1s-.4.2-.7.3l-.3-.7.9-.3c.3-.1.6-.1.9-.1.6 0 1.1.1 1.4.4.3.3.5.7.5 1.3v3.3h-.9zm-1.5-.7c.4 0 .7-.1.9-.3.2-.2.3-.5.3-.9v-.4h-.6c-.5 0-.8.1-1.1.2-.2.1-.3.4-.3.7 0 .2.1.4.2.5.1.2.3.2.6.2zM448.9-56.1h-1v-3c0-.4-.1-.6-.2-.8-.1-.2-.4-.3-.7-.3-.4 0-.7.1-.9.4-.2.3-.3.7-.3 1.3v2.4h-1V-61h.8l.1.6h.1c.1-.2.3-.4.6-.5.3-.1.5-.2.8-.2.7 0 1.2.3 1.5.8h.1c.1-.2.3-.4.6-.6s.6-.2.9-.2c.6 0 1 .1 1.3.4.3.3.4.7.4 1.3v3.2h-1v-3c0-.4-.1-.6-.2-.8-.1-.2-.4-.3-.7-.3-.4 0-.7.1-.9.4-.2.2-.3.6-.3 1.2v2.6zM455.9-61c.6 0 1.1.2 1.4.7.3.4.5 1.1.5 1.8 0 .8-.2 1.4-.5 1.9-.3.4-.8.7-1.4.7-.6 0-1.1-.2-1.4-.7h-.1l-.2.6h-.8v-6.8h1v2.6c.3-.6.8-.8 1.5-.8zm-.3.8c-.4 0-.7.1-.9.4-.2.2-.3.7-.3 1.2v.1c0 .6.1 1 .3 1.3.2.3.5.4.9.4s.6-.1.8-.4c.2-.3.3-.7.3-1.3 0-1.1-.3-1.7-1.1-1.7zM461.1-56c-.8 0-1.3-.2-1.8-.7-.4-.4-.6-1-.6-1.8s.2-1.4.6-1.9c.4-.5.9-.7 1.6-.7.6 0 1.1.2 1.5.6s.6.9.6 1.6v.6h-3.2c0 .5.1.8.4 1.1.2.3.6.4 1 .4.3 0 .6 0 .8-.1.2-.1.5-.1.8-.3v.8c-.3.1-.5.2-.8.3-.3.1-.6.1-.9.1zm-.2-4.2c-.3 0-.6.1-.8.3-.2.2-.3.5-.4.9h2.2c0-.4-.1-.7-.3-.9-.1-.2-.3-.3-.7-.3zM466.6-61h.5l-.1 1c-.1 0-.3-.1-.5-.1-.4 0-.7.1-1 .4-.3.3-.4.6-.4 1v2.5h-1v-4.9h.8l.1.9h.1c.2-.3.4-.5.6-.7.4 0 .6-.1.9-.1z"/></g></g><g class="st18"><path class="st20" d="M410.1 168.9c-.3 0-.5 0-.7-.1v-.9c.2.1.5.1.6.1.6 0 .9-.4.9-1.1v-6.2h1.1v6.2c0 .7-.2 1.2-.5 1.5-.3.3-.8.5-1.4.5zM415.6 167.2c-.8 0-1.3-.2-1.8-.7-.4-.4-.6-1-.6-1.8s.2-1.4.6-1.9c.4-.5.9-.7 1.6-.7.6 0 1.1.2 1.5.6s.6.9.6 1.6v.6h-3.2c0 .5.1.8.4 1.1.2.3.6.4 1 .4.3 0 .6 0 .8-.1.2-.1.5-.1.8-.3v.8c-.3.1-.5.2-.8.3-.2 0-.5.1-.9.1zm-.1-4.3c-.3 0-.6.1-.8.3-.2.2-.3.5-.4.9h2.2c0-.4-.1-.7-.3-.9-.2-.2-.4-.3-.7-.3zM422.7 167.1l-.6-2.3c-.1-.2-.2-.8-.4-1.7-.2.8-.3 1.4-.4 1.7l-.6 2.3h-1.1l-1.4-4.9h1.1l.6 2.4c.1.6.2 1.1.3 1.5 0-.2.1-.5.1-.7.1-.3.1-.5.2-.6l.7-2.6h1.1l.7 2.6c0 .1.1.4.2.7.1.3.1.5.1.7 0-.4.1-.9.3-1.5l.6-2.4h1l-1.4 4.9h-1.1zM428.2 167.2c-.8 0-1.3-.2-1.8-.7-.4-.4-.6-1-.6-1.8s.2-1.4.6-1.9c.4-.5.9-.7 1.6-.7.6 0 1.1.2 1.5.6s.6.9.6 1.6v.6h-3.2c0 .5.1.8.4 1.1.2.3.6.4 1 .4.3 0 .6 0 .8-.1.2-.1.5-.1.8-.3v.8c-.3.1-.5.2-.8.3-.3 0-.6.1-.9.1zm-.2-4.3c-.3 0-.6.1-.8.3-.2.2-.3.5-.4.9h2.2c0-.4-.1-.7-.3-.9-.1-.2-.4-.3-.7-.3zM432.3 167.1h-1v-6.8h1v6.8zM436.2 162.1h.5l-.1 1c-.1 0-.3-.1-.5-.1-.4 0-.7.1-1 .4-.3.3-.4.6-.4 1v2.5h-1V162h.8l.1.9h.1c.2-.3.4-.5.6-.7.3 0 .6-.1.9-.1zM436.9 162.2h1.1l1 2.8c.1.4.2.8.3 1.1 0-.2.1-.4.1-.6.1-.2.4-1.3 1.1-3.3h1.1l-2.1 5.5c-.4 1-1 1.5-1.9 1.5-.2 0-.5 0-.7-.1v-.8c.2 0 .3.1.5.1.5 0 .8-.3 1-.9l.2-.5-1.7-4.8z"/></g><g class="st18"><path class="st20" d="M404.7 173.8c0-.4.1-.7.3-1 .2-.3.5-.6 1-.8-.3-.3-.5-.6-.6-.8-.1-.2-.2-.5-.2-.7 0-.4.2-.8.5-1.1.3-.3.7-.4 1.3-.4.5 0 .9.1 1.2.4.3.3.4.6.4 1 0 .3-.1.6-.3.9-.2.3-.5.5-1 .8l1.5 1.5c.2-.3.4-.8.6-1.4h1.1c-.2.8-.5 1.5-1 2l1.3 1.3h-1.3l-.7-.6c-.3.2-.6.4-1 .5-.3.1-.7.2-1.1.2-.7 0-1.2-.2-1.6-.5s-.4-.8-.4-1.3zm2.2.9c.5 0 1-.2 1.4-.5l-1.7-1.7c-.3.2-.5.4-.6.6-.1.2-.2.4-.2.6 0 .3.1.5.3.7.2.2.5.3.8.3zm-.6-4.3c0 .2 0 .4.1.5.1.2.2.3.4.5.3-.2.6-.4.7-.5.1-.2.2-.3.2-.5s-.1-.3-.2-.5c-.1-.1-.3-.2-.5-.2s-.4.1-.6.2c-.1.2-.1.3-.1.5zM416.9 169.9c-.6 0-1.1.2-1.4.6s-.5 1-.5 1.8.2 1.4.5 1.8c.3.4.8.6 1.4.6.3 0 .5 0 .8-.1.3-.1.5-.1.8-.2v.9c-.5.2-1.1.3-1.7.3-.9 0-1.7-.3-2.2-.9-.5-.6-.8-1.4-.8-2.4 0-.7.1-1.3.4-1.8.2-.5.6-.9 1.1-1.2s1-.4 1.6-.4c.7 0 1.3.1 1.8.4l-.4.9c-.2-.1-.4-.2-.7-.3h-.7zM420.8 175.5h-1v-6.8h1v6.8zM426.6 173c0 .8-.2 1.4-.6 1.9s-1 .7-1.7.7c-.5 0-.9-.1-1.2-.3s-.6-.5-.8-.9c-.2-.4-.3-.8-.3-1.3 0-.8.2-1.4.6-1.8.4-.4 1-.7 1.7-.7s1.3.2 1.7.7c.3.4.6 1 .6 1.7zm-3.6 0c0 1.1.4 1.7 1.2 1.7.8 0 1.2-.6 1.2-1.7s-.4-1.7-1.2-1.7c-.4 0-.7.1-.9.4-.2.4-.3.8-.3 1.3zM429.6 174.7c.3 0 .5 0 .8-.1v.8c-.1 0-.3.1-.4.1-.2 0-.4.1-.6.1-1 0-1.5-.5-1.5-1.5v-2.6h-.7v-.5l.7-.4.4-1h.6v1.1h1.4v.8h-1.4v2.6c0 .2.1.4.2.6h.5zM435.6 175.5h-1v-3c0-.4-.1-.7-.2-.8-.2-.2-.4-.3-.7-.3-.4 0-.8.1-1 .4-.2.3-.3.7-.3 1.3v2.4h-1v-6.8h1v1.7c0 .3 0 .6-.1.9h.1c.1-.2.3-.4.6-.5.2-.1.5-.2.9-.2 1.2 0 1.8.6 1.8 1.8v3.1zM436.9 169.3c0-.2.1-.3.2-.4.1-.1.2-.1.4-.1s.3 0 .4.1c.1.1.2.2.2.4s-.1.3-.2.4c-.1.1-.2.2-.4.2s-.3-.1-.4-.2c-.1-.1-.2-.2-.2-.4zm1.1 6.2h-1v-4.9h1v4.9zM443.8 175.5h-1v-3c0-.4-.1-.7-.2-.8-.2-.2-.4-.3-.7-.3-.4 0-.8.1-1 .4s-.3.7-.3 1.3v2.4h-1v-4.9h.8l.1.6h.1c.1-.2.4-.4.6-.5.3-.1.6-.2.9-.2 1.2 0 1.7.6 1.7 1.8v3.2zM449.3 170.6v.6l-.8.2c.1.1.1.2.2.4s.1.3.1.5c0 .5-.2.9-.5 1.2-.3.3-.8.4-1.4.4h-.4c-.2.1-.3.3-.3.5 0 .1.1.2.2.3.1.1.3.1.6.1h.8c.5 0 .9.1 1.2.3.3.2.4.6.4 1 0 .6-.2 1-.7 1.3-.5.3-1.1.4-2 .4-.7 0-1.2-.1-1.5-.4s-.5-.6-.5-1c0-.3.1-.5.3-.8.2-.2.5-.3.8-.4-.1-.1-.3-.2-.3-.3-.1-.1-.1-.3-.1-.4 0-.2.1-.3.2-.5.1-.1.3-.2.5-.4-.3-.1-.5-.3-.6-.5-.2-.2-.2-.5-.2-.9 0-.5.2-.9.5-1.2.3-.3.8-.4 1.4-.4h.4c.2 0 .3 0 .3.1h1.4zm-3.8 5.6c0 .2.1.4.3.5.2.1.5.2.8.2.6 0 1-.1 1.3-.2.3-.2.4-.4.4-.6 0-.2-.1-.4-.2-.5-.2-.1-.4-.1-.8-.1h-.8c-.3 0-.5.1-.7.2-.2.1-.3.3-.3.5zm.4-4c0 .3.1.5.2.7.2.2.4.2.7.2.6 0 .9-.3.9-1 0-.3-.1-.6-.2-.7-.1-.2-.4-.3-.7-.3-.3 0-.5.1-.7.3-.1.2-.2.5-.2.8z"/></g><g id="XMLID_385_"><g class="st18"><path class="st19" d="M418.5 241.5v2.6h-1v-6.4h1.8c.8 0 1.4.2 1.8.5s.6.8.6 1.4c0 .8-.4 1.4-1.2 1.7l1.8 2.8h-1.2l-1.5-2.6h-1.1zm0-.8h.7c.5 0 .8-.1 1.1-.3s.3-.5.3-.8c0-.4-.1-.6-.4-.8s-.6-.2-1.1-.2h-.7v2.1zM425.3 244.2c-.8 0-1.3-.2-1.8-.7-.4-.4-.6-1-.6-1.8s.2-1.4.6-1.9c.4-.5.9-.7 1.6-.7.6 0 1.1.2 1.5.6s.6.9.6 1.6v.6H424c0 .5.1.8.4 1.1.2.3.6.4 1 .4.3 0 .6 0 .8-.1.2-.1.5-.1.8-.3v.8c-.3.1-.5.2-.8.3-.3.1-.6.1-.9.1zm-.2-4.3c-.3 0-.6.1-.8.3-.2.2-.3.5-.4.9h2.2c0-.4-.1-.7-.3-.9-.1-.2-.4-.3-.7-.3zM431.6 242.7c0 .5-.2.8-.5 1.1-.3.3-.8.4-1.5.4-.6 0-1.2-.1-1.6-.3v-.9c.6.3 1.1.4 1.6.4.6 0 1-.2 1-.6 0-.1 0-.2-.1-.3l-.3-.3s-.4-.2-.7-.3c-.6-.2-.9-.4-1.1-.7-.2-.2-.3-.5-.3-.8 0-.4.2-.7.5-1 .3-.2.8-.3 1.4-.3.6 0 1.1.1 1.6.3l-.3.8c-.5-.2-1-.3-1.3-.3-.5 0-.8.2-.8.5 0 .2.1.3.2.4.1.1.5.3.9.4.4.2.7.3.9.4s.3.3.4.4c-.1.3 0 .5 0 .7zM434.5 243.4c.3 0 .5 0 .8-.1v.8c-.1 0-.3.1-.4.1-.2 0-.4.1-.6.1-1 0-1.5-.5-1.5-1.5V240h-.7v-.5l.7-.4.4-1h.6v1.1h1.4v.8h-1.4v2.6c0 .2.1.4.2.6.2.1.3.2.5.2zM439.3 244.1l-.2-.7c-.2.3-.5.5-.7.6-.2.1-.5.2-.9.2-.5 0-.9-.1-1.1-.4-.3-.3-.4-.6-.4-1.1 0-.5.2-.9.6-1.1.4-.3.9-.4 1.7-.4h.8v-.3c0-.3-.1-.5-.2-.7-.1-.2-.4-.2-.7-.2-.2 0-.5 0-.7.1s-.4.2-.7.3l-.3-.7.9-.3c.3-.1.6-.1.9-.1.6 0 1.1.1 1.4.4.3.3.5.7.5 1.3v3.3h-.9zm-1.6-.7c.4 0 .7-.1.9-.3.2-.2.3-.5.3-.9v-.4h-.6c-.5 0-.8.1-1.1.2-.2.1-.3.4-.3.7 0 .2.1.4.2.5.2.1.4.2.6.2zM444.9 244.1l-.1-.6h-.1c-.1.2-.3.4-.6.5-.3.1-.6.2-.9.2-.6 0-1-.1-1.3-.4s-.4-.7-.4-1.3v-3.2h1v3c0 .4.1.7.2.8.2.2.4.3.7.3.4 0 .8-.1 1-.4.2-.3.3-.7.3-1.3v-2.4h1v4.9h-.8zM449.6 239.1h.5l-.1 1c-.1 0-.3-.1-.5-.1-.4 0-.7.1-1 .4-.3.3-.4.6-.4 1v2.5h-1V239h.8l.1.9h.1c.2-.3.4-.5.6-.7.4 0 .6-.1.9-.1zM454.1 244.1l-.2-.7c-.2.3-.5.5-.7.6-.2.1-.5.2-.9.2-.5 0-.9-.1-1.1-.4-.3-.3-.4-.6-.4-1.1 0-.5.2-.9.6-1.1.4-.3.9-.4 1.7-.4h.8v-.3c0-.3-.1-.5-.2-.7-.1-.2-.4-.2-.7-.2-.2 0-.5 0-.7.1s-.4.2-.7.3l-.3-.7.9-.3c.3-.1.6-.1.9-.1.6 0 1.1.1 1.4.4.3.3.5.7.5 1.3v3.3h-.9zm-1.5-.7c.4 0 .7-.1.9-.3.2-.2.3-.5.3-.9v-.4h-.6c-.5 0-.8.1-1.1.2-.2.1-.3.4-.3.7 0 .2.1.4.2.5.1.1.3.2.6.2zM460.6 244.1h-1v-3c0-.4-.1-.7-.2-.8-.2-.2-.4-.3-.7-.3-.4 0-.8.1-1 .4s-.3.7-.3 1.3v2.4h-1v-4.9h.8l.1.6h.1c.1-.2.4-.4.6-.5.3-.1.6-.2.9-.2 1.2 0 1.7.6 1.7 1.8v3.2zM463.8 243.4c.3 0 .5 0 .8-.1v.8c-.1 0-.3.1-.4.1-.2 0-.4.1-.6.1-1 0-1.5-.5-1.5-1.5V240h-.7v-.5l.7-.4.4-1h.6v1.1h1.4v.8h-1.4v2.6c0 .2.1.4.2.6.1.1.3.2.5.2z"/></g><g class="st18"><path class="st19" d="M428.9 250.8c0-.4.1-.7.3-1 .2-.3.5-.6 1-.8-.3-.3-.5-.6-.6-.8-.1-.2-.2-.5-.2-.7 0-.4.2-.8.5-1.1.3-.3.7-.4 1.3-.4.5 0 .9.1 1.2.4.3.3.4.6.4 1 0 .3-.1.6-.3.9-.2.3-.5.5-1 .8l1.5 1.5c.2-.3.4-.8.6-1.4h1.1c-.2.8-.5 1.5-1 2l1.3 1.3h-1.3l-.7-.6c-.3.2-.6.4-1 .5-.3.1-.7.2-1.1.2-.7 0-1.2-.2-1.6-.5s-.4-.7-.4-1.3zm2.2.9c.5 0 1-.2 1.4-.5l-1.7-1.7c-.3.2-.5.4-.6.6-.1.2-.2.4-.2.6 0 .3.1.5.3.7.2.2.4.3.8.3zm-.7-4.2c0 .2 0 .4.1.5.1.2.2.3.4.5.3-.2.6-.4.7-.5.1-.2.2-.3.2-.5s-.1-.3-.2-.5c-.1-.1-.3-.2-.5-.2s-.4.1-.6.2c0 .1-.1.3-.1.5zM438.3 246.1h1.9c.9 0 1.5.1 1.9.4.4.3.6.7.6 1.2 0 .4-.1.7-.3.9-.2.2-.5.4-.8.5.5.1.8.3 1 .5.2.3.3.6.3 1 0 .6-.2 1-.6 1.4-.4.3-1 .5-1.7.5h-2.3v-6.4zm1 2.6h1c.4 0 .8-.1 1-.2.2-.1.3-.4.3-.7 0-.3-.1-.5-.3-.7-.2-.1-.6-.2-1-.2h-.9v1.8zm0 .9v2h1.1c.4 0 .8-.1 1-.3.2-.2.3-.4.3-.8 0-.3-.1-.6-.3-.7s-.6-.2-1-.2h-1.1zM447.2 252.5l-.2-.7c-.2.3-.5.5-.7.6-.2.1-.5.2-.9.2-.5 0-.9-.1-1.1-.4-.3-.3-.4-.6-.4-1.1 0-.5.2-.9.6-1.1.4-.3.9-.4 1.7-.4h.8v-.3c0-.3-.1-.5-.2-.7-.1-.2-.4-.2-.7-.2-.2 0-.5 0-.7.1s-.4.2-.7.3l-.3-.7.9-.3c.3-.1.6-.1.9-.1.6 0 1.1.1 1.4.4.3.3.5.7.5 1.3v3.3h-.9zm-1.6-.7c.4 0 .7-.1.9-.3.2-.2.3-.5.3-.9v-.4h-.6c-.5 0-.8.1-1.1.2-.2.1-.3.4-.3.7 0 .2.1.4.2.5.2.1.4.2.6.2zM451.8 247.5h.5l-.1 1c-.1 0-.3-.1-.5-.1-.4 0-.7.1-1 .4-.3.3-.4.6-.4 1v2.5h-1v-4.9h.8l.1.9h.1c.2-.3.4-.5.6-.7.3 0 .6-.1.9-.1z"/></g></g><g id="XMLID_382_"><g class="st18"><path class="st19" d="M256.2 29.9c0 .6-.2 1-.6 1.3-.4.3-1 .5-1.7.5s-1.3-.1-1.8-.3v-1l.9.3c.3.1.6.1.9.1.4 0 .7-.1.9-.2.2-.2.3-.4.3-.6 0-.2-.1-.4-.3-.6s-.6-.4-1.1-.6c-.6-.2-1-.5-1.2-.8s-.4-.7-.4-1.1c0-.5.2-1 .6-1.3s.9-.5 1.5-.5 1.2.1 1.8.4l-.3.9c-.6-.2-1.1-.4-1.5-.4-.3 0-.6.1-.8.2-.2.1-.3.3-.3.6 0 .2 0 .3.1.4l.3.3s.5.2.9.4c.5.2.8.4 1 .5s.4.4.5.6.3.6.3.9zM259.2 30.9c.3 0 .5 0 .8-.1v.8c-.1 0-.3.1-.4.1-.2 0-.4.1-.6.1-1 0-1.5-.5-1.5-1.5v-2.6h-.7v-.5l.7-.4.4-1h.6v1.1h1.4v.8h-1.4v2.6c0 .2.1.4.2.6.1-.1.3 0 .5 0zM263 31.7c-.8 0-1.3-.2-1.8-.7-.4-.4-.6-1-.6-1.8s.2-1.4.6-1.9c.4-.5.9-.7 1.6-.7.6 0 1.1.2 1.5.6s.6.9.6 1.6v.6h-3.2c0 .5.1.8.4 1.1.2.3.6.4 1 .4.3 0 .6 0 .8-.1.2-.1.5-.1.8-.3v.8c-.3.1-.5.2-.8.3-.2.1-.5.1-.9.1zm-.2-4.2c-.3 0-.6.1-.8.3-.2.2-.3.5-.4.9h2.2c0-.4-.1-.7-.3-.9-.1-.2-.3-.3-.7-.3zM270.2 31.6h-1v-3c0-.4-.1-.6-.2-.8-.1-.2-.4-.3-.7-.3-.4 0-.7.1-.9.4-.2.3-.3.7-.3 1.3v2.4h-1v-4.9h.8l.1.6h.1c.1-.2.3-.4.6-.5.3-.1.5-.2.8-.2.7 0 1.2.3 1.5.8h.1c.1-.2.3-.4.6-.6s.6-.2.9-.2c.6 0 1 .1 1.3.4.3.3.4.7.4 1.3v3.2h-1v-3c0-.4-.1-.6-.2-.8-.1-.2-.4-.3-.7-.3-.4 0-.7.1-.9.4-.2.2-.3.6-.3 1.2v2.6zM279.9 26c-.6 0-1.1.2-1.4.6s-.5 1-.5 1.8.2 1.4.5 1.8.8.6 1.4.6c.3 0 .5 0 .8-.1.3-.1.5-.1.8-.2v.9c-.5.2-1.1.3-1.7.3-.9 0-1.7-.3-2.2-.9-.5-.6-.8-1.4-.8-2.4 0-.7.1-1.3.4-1.8s.6-.9 1.1-1.2 1-.4 1.6-.4c.7 0 1.3.1 1.8.4l-.4.9c-.2-.1-.4-.2-.7-.3-.2.1-.5 0-.7 0zM284.9 31.7c-.8 0-1.3-.2-1.8-.7-.4-.4-.6-1-.6-1.8s.2-1.4.6-1.9c.4-.5.9-.7 1.6-.7.6 0 1.1.2 1.5.6s.6.9.6 1.6v.6h-3.2c0 .5.1.8.4 1.1.2.3.6.4 1 .4.3 0 .6 0 .8-.1.2-.1.5-.1.8-.3v.8c-.3.1-.5.2-.8.3-.3.1-.6.1-.9.1zm-.2-4.2c-.3 0-.6.1-.8.3-.2.2-.3.5-.4.9h2.2c0-.4-.1-.7-.3-.9-.1-.2-.4-.3-.7-.3zM289 31.6h-1v-6.8h1v6.8zM291.5 31.6h-1v-6.8h1v6.8zM296.2 30.3c0 .5-.2.8-.5 1.1-.3.3-.8.4-1.5.4-.6 0-1.2-.1-1.6-.3v-.9c.6.3 1.1.4 1.6.4.6 0 1-.2 1-.6 0-.1 0-.2-.1-.3l-.3-.3s-.4-.2-.7-.3c-.6-.2-.9-.4-1.1-.7-.2-.2-.3-.5-.3-.8 0-.4.2-.7.5-1 .3-.2.8-.3 1.4-.3.6 0 1.1.1 1.6.3l-.3.8c-.5-.2-1-.3-1.3-.3-.5 0-.8.2-.8.5 0 .2.1.3.2.4s.5.3.9.4c.4.2.7.3.9.4s.3.3.4.4v.7z"/></g><g class="st18"><path class="st19" d="M267.4 34.4c-.6 0-1.1.2-1.4.6s-.5 1-.5 1.8.2 1.4.5 1.8.8.6 1.4.6c.3 0 .5 0 .8-.1.3-.1.5-.1.8-.2v.9c-.5.2-1.1.3-1.7.3-.9 0-1.7-.3-2.2-.9-.5-.6-.8-1.4-.8-2.4 0-.7.1-1.3.4-1.8s.6-.9 1.1-1.2 1-.4 1.6-.4c.7 0 1.3.1 1.8.4l-.4.9c-.2-.1-.4-.2-.7-.3-.2.1-.4 0-.7 0zM271.3 40h-1v-6.8h1V40zM272.7 33.9c0-.2.1-.3.2-.4.1-.1.2-.1.4-.1s.3 0 .4.1c.1.1.2.2.2.4s-.1.3-.2.4c-.1.1-.2.2-.4.2s-.3-.1-.4-.2c-.1-.1-.2-.2-.2-.4zm1.1 6.1h-1v-4.9h1V40zM279.6 40h-1v-3c0-.4-.1-.7-.2-.8-.2-.2-.4-.3-.7-.3-.4 0-.8.1-1 .4s-.3.7-.3 1.3V40h-1v-4.9h.8l.1.6h.1c.1-.2.4-.4.6-.5.3-.1.6-.2.9-.2 1.2 0 1.7.6 1.7 1.8V40zM280.9 33.9c0-.2.1-.3.2-.4.1-.1.2-.1.4-.1s.3 0 .4.1c.1.1.2.2.2.4s-.1.3-.2.4c-.1.1-.2.2-.4.2s-.3-.1-.4-.2c-.1-.1-.2-.2-.2-.4zM282 40h-1v-4.9h1V40zM285.5 40.1c-.7 0-1.3-.2-1.7-.6-.4-.4-.6-1-.6-1.8s.2-1.4.6-1.9c.4-.4 1-.7 1.7-.7.5 0 1 .1 1.4.3l-.3.8c-.4-.2-.8-.3-1.1-.3-.8 0-1.3.6-1.3 1.7 0 .5.1 1 .3 1.2.2.3.5.4.9.4.5 0 .9-.1 1.3-.3v.9c-.2.1-.4.2-.6.2-.1.1-.3.1-.6.1z"/></g></g><g id="XMLID_379_"><g class="st18"><path class="st19" d="M261.9-125c-.6 0-1.1.2-1.4.6s-.5 1-.5 1.8.2 1.4.5 1.8.8.6 1.4.6c.3 0 .5 0 .8-.1.3-.1.5-.1.8-.2v.9c-.5.2-1.1.3-1.7.3-.9 0-1.7-.3-2.2-.9-.5-.6-.8-1.4-.8-2.4 0-.7.1-1.3.4-1.8s.6-.9 1.1-1.2 1-.4 1.6-.4c.7 0 1.3.1 1.8.4l-.4.9c-.2-.1-.4-.2-.7-.3-.2.1-.4 0-.7 0zM265.8-119.4h-1v-6.8h1v6.8zM267.2-125.5c0-.2.1-.3.2-.4.1-.1.2-.1.4-.1s.3 0 .4.1c.1.1.2.2.2.4s-.1.3-.2.4c-.1.1-.2.2-.4.2s-.3-.1-.4-.2c-.1-.1-.2-.2-.2-.4zm1.1 6.1h-1v-4.9h1v4.9zM274.1-119.4h-1v-3c0-.4-.1-.7-.2-.8-.2-.2-.4-.3-.7-.3-.4 0-.8.1-1 .4s-.3.7-.3 1.3v2.4h-1v-4.9h.8l.1.6h.1c.1-.2.4-.4.6-.5.3-.1.6-.2.9-.2 1.2 0 1.7.6 1.7 1.8v3.2zM275.4-125.5c0-.2.1-.3.2-.4.1-.1.2-.1.4-.1s.3 0 .4.1c.1.1.2.2.2.4s-.1.3-.2.4c-.1.1-.2.2-.4.2s-.3-.1-.4-.2c-.1-.1-.2-.2-.2-.4zm1.1 6.1h-1v-4.9h1v4.9zM280-119.3c-.7 0-1.3-.2-1.7-.6-.4-.4-.6-1-.6-1.8s.2-1.4.6-1.9c.4-.4 1-.7 1.7-.7.5 0 1 .1 1.4.3l-.3.8c-.4-.2-.8-.3-1.1-.3-.8 0-1.3.6-1.3 1.7 0 .5.1 1 .3 1.2.2.3.5.4.9.4.5 0 .9-.1 1.3-.3v.9c-.2.1-.4.2-.6.2-.1.1-.3.1-.6.1zM285.5-119.4l-.2-.7c-.2.3-.5.5-.7.6-.2.1-.5.2-.9.2-.5 0-.9-.1-1.1-.4-.3-.3-.4-.6-.4-1.1 0-.5.2-.9.6-1.1.4-.3.9-.4 1.7-.4h.8v-.3c0-.3-.1-.5-.2-.7-.1-.2-.4-.2-.7-.2-.2 0-.5 0-.7.1s-.4.2-.7.3l-.3-.7.9-.3c.3-.1.6-.1.9-.1.6 0 1.1.1 1.4.4s.5.7.5 1.3v3.3h-.9zm-1.5-.7c.4 0 .7-.1.9-.3.2-.2.3-.5.3-.9v-.4h-.6c-.5 0-.8.1-1.1.2-.2.1-.3.4-.3.7 0 .2.1.4.2.5.1.2.3.2.6.2zM288.7-119.4h-1v-6.8h1v6.8z"/></g><g class="st18"><path class="st19" d="M252.8-111v-6.4h1.1v5.5h2.7v.9h-3.8zM260.6-111l-.2-.7c-.2.3-.5.5-.7.6-.2.1-.5.2-.9.2-.5 0-.9-.1-1.1-.4-.3-.3-.4-.6-.4-1.1 0-.5.2-.9.6-1.1.4-.3.9-.4 1.7-.4h.8v-.3c0-.3-.1-.5-.2-.7-.1-.2-.4-.2-.7-.2-.2 0-.5 0-.7.1s-.4.2-.7.3l-.3-.7.9-.3c.3-.1.6-.1.9-.1.6 0 1.1.1 1.4.4s.5.7.5 1.3v3.3h-.9zm-1.6-.7c.4 0 .7-.1.9-.3.2-.2.3-.5.3-.9v-.4h-.6c-.5 0-.8.1-1.1.2-.2.1-.3.4-.3.7 0 .2.1.4.2.5.2.2.4.2.6.2zM265.3-115.9c.6 0 1.1.2 1.4.7.3.4.5 1.1.5 1.8 0 .8-.2 1.4-.5 1.9-.3.4-.8.7-1.4.7-.6 0-1.1-.2-1.4-.7h-.1l-.2.6h-.8v-6.8h1v2.6c.3-.6.8-.8 1.5-.8zm-.3.8c-.4 0-.7.1-.9.4-.2.2-.3.7-.3 1.2v.1c0 .6.1 1 .3 1.3.2.3.5.4.9.4s.6-.1.8-.4c.2-.3.3-.7.3-1.3 0-1.1-.4-1.7-1.1-1.7zM272.7-113.4c0 .8-.2 1.4-.6 1.9s-1 .7-1.7.7c-.5 0-.9-.1-1.2-.3s-.6-.5-.8-.9c-.2-.4-.3-.8-.3-1.3 0-.8.2-1.4.6-1.8.4-.4 1-.7 1.7-.7s1.3.2 1.7.7c.4.3.6.9.6 1.7zm-3.6 0c0 1.1.4 1.7 1.2 1.7.8 0 1.2-.6 1.2-1.7s-.4-1.7-1.2-1.7c-.4 0-.7.1-.9.4s-.3.8-.3 1.3zM276.3-115.9h.5l-.1 1c-.1 0-.3-.1-.5-.1-.4 0-.7.1-1 .4s-.4.6-.4 1v2.5h-1v-4.9h.8l.1.9h.1c.2-.3.4-.5.6-.7.4 0 .6-.1.9-.1zM280.8-111l-.2-.7c-.2.3-.5.5-.7.6-.2.1-.5.2-.9.2-.5 0-.9-.1-1.1-.4-.3-.3-.4-.6-.4-1.1 0-.5.2-.9.6-1.1.4-.3.9-.4 1.7-.4h.8v-.3c0-.3-.1-.5-.2-.7-.1-.2-.4-.2-.7-.2-.2 0-.5 0-.7.1s-.4.2-.7.3l-.3-.7.9-.3c.3-.1.6-.1.9-.1.6 0 1.1.1 1.4.4s.5.7.5 1.3v3.3h-.9zm-1.5-.7c.4 0 .7-.1.9-.3.2-.2.3-.5.3-.9v-.4h-.6c-.5 0-.8.1-1.1.2-.2.1-.3.4-.3.7 0 .2.1.4.2.5.1.2.3.2.6.2zM284.8-111.7c.3 0 .5 0 .8-.1v.8c-.1 0-.3.1-.4.1-.2 0-.4.1-.6.1-1 0-1.5-.5-1.5-1.5v-2.6h-.7v-.5l.7-.4.4-1h.6v1.1h1.4v.8h-1.4v2.6c0 .2.1.4.2.6.1-.1.3 0 .5 0zM290.8-113.4c0 .8-.2 1.4-.6 1.9s-1 .7-1.7.7c-.5 0-.9-.1-1.2-.3s-.6-.5-.8-.9c-.2-.4-.3-.8-.3-1.3 0-.8.2-1.4.6-1.8.4-.4 1-.7 1.7-.7s1.3.2 1.7.7c.4.3.6.9.6 1.7zm-3.5 0c0 1.1.4 1.7 1.2 1.7.8 0 1.2-.6 1.2-1.7s-.4-1.7-1.2-1.7c-.4 0-.7.1-.9.4s-.3.8-.3 1.3zM294.5-115.9h.5l-.1 1c-.1 0-.3-.1-.5-.1-.4 0-.7.1-1 .4s-.4.6-.4 1v2.5h-1v-4.9h.8l.1.9h.1c.2-.3.4-.5.6-.7.3 0 .6-.1.9-.1zM295.2-115.8h1.1l1 2.8c.2.4.2.8.3 1.1 0-.2.1-.4.1-.6.1-.2.4-1.3 1.1-3.3h1.1l-2.1 5.5c-.4 1-1 1.5-1.9 1.5-.2 0-.5 0-.7-.1v-.8c.2 0 .3.1.5.1.5 0 .8-.3 1.1-.9l.2-.5-1.8-4.8z"/></g></g><g id="XMLID_376_"><g class="st18"><path class="st19" d="M251.9 238.5c-.6 0-1.1.2-1.4.6s-.5 1-.5 1.8.2 1.4.5 1.8.8.6 1.4.6c.3 0 .5 0 .8-.1.3-.1.5-.1.8-.2v.9c-.5.2-1.1.3-1.7.3-.9 0-1.7-.3-2.2-.9-.5-.6-.8-1.4-.8-2.4 0-.7.1-1.3.4-1.8s.6-.9 1.1-1.2 1-.4 1.6-.4c.7 0 1.3.1 1.8.4l-.4.9c-.2-.1-.4-.2-.7-.3h-.7zM259 241.7c0 .8-.2 1.4-.6 1.9s-1 .7-1.7.7c-.5 0-.9-.1-1.2-.3s-.6-.5-.8-.9c-.2-.4-.3-.8-.3-1.3 0-.8.2-1.4.6-1.8.4-.4 1-.7 1.7-.7s1.3.2 1.7.7c.4.3.6.9.6 1.7zm-3.5 0c0 1.1.4 1.7 1.2 1.7.8 0 1.2-.6 1.2-1.7s-.4-1.7-1.2-1.7c-.4 0-.7.1-.9.4s-.3.7-.3 1.3zM262.6 240h-1.2v4.1h-1V240h-.8v-.5l.8-.3v-.3c0-.6.1-1 .4-1.3.3-.3.7-.4 1.2-.4.4 0 .7.1 1.1.2l-.3.8c-.3-.1-.5-.1-.7-.1-.2 0-.4.1-.5.2-.1.1-.2.4-.2.7v.3h1.2v.7zm3.3 0h-1.2v4.1h-1V240h-.8v-.5l.8-.3v-.3c0-.6.1-1 .4-1.3.3-.3.7-.4 1.2-.4.4 0 .7.1 1.1.2l-.3.8c-.3-.1-.5-.1-.7-.1-.2 0-.4.1-.5.2-.1.1-.2.4-.2.7v.3h1.2v.7zM268.9 244.2c-.8 0-1.3-.2-1.8-.7-.4-.4-.6-1-.6-1.8s.2-1.4.6-1.9c.4-.5.9-.7 1.6-.7.6 0 1.1.2 1.5.6s.6.9.6 1.6v.6h-3.2c0 .5.1.8.4 1.1.2.3.6.4 1 .4.3 0 .6 0 .8-.1.2-.1.5-.1.8-.3v.8c-.3.1-.5.2-.8.3-.3.1-.6.1-.9.1zm-.2-4.3c-.3 0-.6.1-.8.3-.2.2-.3.5-.4.9h2.2c0-.4-.1-.7-.3-.9-.1-.2-.4-.3-.7-.3zM274.1 244.2c-.8 0-1.3-.2-1.8-.7-.4-.4-.6-1-.6-1.8s.2-1.4.6-1.9c.4-.5.9-.7 1.6-.7.6 0 1.1.2 1.5.6s.6.9.6 1.6v.6h-3.2c0 .5.1.8.4 1.1.2.3.6.4 1 .4.3 0 .6 0 .8-.1.2-.1.5-.1.8-.3v.8c-.3.1-.5.2-.8.3-.3.1-.6.1-.9.1zm-.2-4.3c-.3 0-.6.1-.8.3-.2.2-.3.5-.4.9h2.2c0-.4-.1-.7-.3-.9-.2-.2-.4-.3-.7-.3zM283.3 242.4c0 .6-.2 1-.6 1.3-.4.3-1 .5-1.7.5s-1.3-.1-1.8-.3v-1l.9.3c.3.1.6.1.9.1.4 0 .7-.1.9-.2.2-.2.3-.4.3-.6 0-.2-.1-.4-.3-.6s-.6-.4-1.1-.6c-.6-.2-1-.5-1.2-.8s-.4-.7-.4-1.1c0-.5.2-1 .6-1.3s.9-.5 1.5-.5 1.2.1 1.8.4l-.3.9c-.6-.2-1.1-.4-1.5-.4-.3 0-.6.1-.8.2-.2.1-.3.3-.3.6 0 .2 0 .3.1.4l.3.3s.5.2.9.4c.5.2.8.4 1 .5s.4.4.5.6.3.6.3.9zM288.7 244.1h-1v-3c0-.4-.1-.7-.2-.8-.2-.2-.4-.3-.7-.3-.4 0-.8.1-1 .4-.2.3-.3.7-.3 1.3v2.4h-1v-6.8h1v1.7c0 .3 0 .6-.1.9h.1c.1-.2.3-.4.6-.5.2-.1.5-.2.9-.2 1.2 0 1.8.6 1.8 1.8v3.1zM294.4 241.7c0 .8-.2 1.4-.6 1.9s-1 .7-1.7.7c-.5 0-.9-.1-1.2-.3s-.6-.5-.8-.9c-.2-.4-.3-.8-.3-1.3 0-.8.2-1.4.6-1.8.4-.4 1-.7 1.7-.7s1.3.2 1.7.7c.4.3.6.9.6 1.7zm-3.5 0c0 1.1.4 1.7 1.2 1.7.8 0 1.2-.6 1.2-1.7s-.4-1.7-1.2-1.7c-.4 0-.7.1-.9.4-.2.3-.3.7-.3 1.3zM298.1 244.2c-.6 0-1.1-.2-1.4-.7h-.1c0 .4.1.7.1.7v2h-1v-7h.8c0 .1.1.3.1.7h.1c.3-.5.8-.7 1.4-.7.6 0 1.1.2 1.4.7.3.4.5 1.1.5 1.8 0 .8-.2 1.4-.5 1.9-.3.4-.8.6-1.4.6zm-.3-4.2c-.4 0-.7.1-.9.4-.2.2-.3.6-.3 1.2v.2c0 .6.1 1 .3 1.3.2.3.5.4.9.4s.6-.1.8-.4.3-.7.3-1.3c0-.5-.1-1-.3-1.2-.1-.5-.4-.6-.8-.6z"/></g><g class="st18"><path class="st19" d="M264 250.8c0-.4.1-.7.3-1 .2-.3.5-.6 1-.8-.3-.3-.5-.6-.6-.8-.1-.2-.2-.5-.2-.7 0-.4.2-.8.5-1.1.3-.3.7-.4 1.3-.4.5 0 .9.1 1.2.4.3.3.4.6.4 1 0 .3-.1.6-.3.9-.2.3-.5.5-1 .8l1.5 1.5c.2-.3.4-.8.6-1.4h1.1c-.2.8-.5 1.5-1 2l1.3 1.3h-1.3l-.7-.6c-.3.2-.6.4-1 .5-.3.1-.7.2-1.1.2-.7 0-1.2-.2-1.6-.5s-.4-.7-.4-1.3zm2.2.9c.5 0 1-.2 1.4-.5l-1.7-1.7c-.3.2-.5.4-.6.6-.1.2-.2.4-.2.6 0 .3.1.5.3.7.2.2.5.3.8.3zm-.6-4.2c0 .2 0 .4.1.5s.2.3.4.5c.3-.2.6-.4.7-.5.1-.2.2-.3.2-.5s-.1-.3-.2-.5c-.1-.1-.3-.2-.5-.2s-.4.1-.6.2c-.1.1-.1.3-.1.5zM278.6 249.2c0 1.1-.3 1.9-.9 2.4-.6.6-1.4.8-2.5.8h-1.8V246h2c1 0 1.8.3 2.4.8s.8 1.4.8 2.4zm-1.1.1c0-1.5-.7-2.3-2.2-2.3h-.9v4.7h.7c1.7-.1 2.4-.9 2.4-2.4zM282 252.6c-.8 0-1.3-.2-1.8-.7-.4-.4-.6-1-.6-1.8s.2-1.4.6-1.9c.4-.5.9-.7 1.6-.7.6 0 1.1.2 1.5.6s.6.9.6 1.6v.6h-3.2c0 .5.1.8.4 1.1.2.3.6.4 1 .4.3 0 .6 0 .8-.1.2-.1.5-.1.8-.3v.8c-.3.1-.5.2-.8.3-.2.1-.5.1-.9.1zm-.2-4.3c-.3 0-.6.1-.8.3-.2.2-.3.5-.4.9h2.2c0-.4-.1-.7-.3-.9-.1-.2-.3-.3-.7-.3zM286.1 252.5h-1v-6.8h1v6.8zM287.5 246.3c0-.2.1-.3.2-.4.1-.1.2-.1.4-.1s.3 0 .4.1c.1.1.2.2.2.4s-.1.3-.2.4c-.1.1-.2.2-.4.2s-.3-.1-.4-.2c-.1 0-.2-.2-.2-.4zm1.1 6.2h-1v-4.9h1v4.9z"/></g></g><g id="XMLID_373_"><g id="XMLID_435_" class="st18"><path class="st19" d="M243.2 172.9v2.6h-1.1v-6.4h1.8c.8 0 1.4.2 1.8.5s.6.8.6 1.4c0 .8-.4 1.4-1.2 1.7l1.8 2.8h-1.2l-1.5-2.6h-1zm0-.8h.7c.5 0 .8-.1 1.1-.3s.3-.5.3-.8c0-.4-.1-.6-.4-.8s-.6-.2-1.1-.2h-.7v2.1zM252.7 175.5h-1.2l-1.6-2.6-1.6 2.6h-1.1l2.1-3.3-2-3.1h1.2l1.5 2.4 1.5-2.4h1.1l-2 3.1 2.1 3.3z"/></g></g><g class="st18"><path class="st20" d="M368.1-168.3c-.2 0-.4 0-.6-.1v-.7c.2 0 .4.1.5.1.5 0 .7-.3.7-.9v-5h.8v5c0 .5-.1.9-.4 1.2-.2.2-.5.4-1 .4zM372.5-169.7c-.6 0-1.1-.2-1.4-.5s-.5-.8-.5-1.5c0-.6.2-1.1.5-1.5.3-.4.8-.5 1.3-.5s.9.2 1.2.5c.3.3.4.7.4 1.3v.4h-2.6c0 .4.1.7.3.9.2.2.5.3.8.3.2 0 .4 0 .6-.1.2 0 .4-.1.6-.2v.7c-.2.1-.4.2-.6.2h-.6zm-.1-3.4c-.3 0-.5.1-.6.3-.2.2-.3.4-.3.7h1.8c0-.3-.1-.6-.2-.7s-.5-.3-.7-.3zM378.2-169.8l-.5-1.8c-.1-.2-.2-.6-.3-1.3-.1.6-.2 1.1-.3 1.4l-.5 1.8h-.9l-1.1-3.9h.8l.5 1.9c.1.5.2.9.2 1.2 0-.2.1-.4.1-.6 0-.2.1-.4.1-.5l.6-2.1h.9l.6 2.1c0 .1.1.3.1.5.1.2.1.4.1.6 0-.3.1-.7.2-1.2l.5-1.9h.8l-1.1 3.9h-.8zM382.6-169.7c-.6 0-1.1-.2-1.4-.5-.3-.4-.5-.8-.5-1.5 0-.6.2-1.1.5-1.5.3-.4.8-.5 1.3-.5s.9.2 1.2.5c.3.3.4.7.4 1.3v.4h-2.6c0 .4.1.7.3.9.2.2.5.3.8.3.2 0 .4 0 .6-.1s.4-.1.6-.2v.7c-.2.1-.4.2-.6.2h-.6zm-.2-3.4c-.3 0-.5.1-.6.3s-.3.4-.3.7h1.8c0-.3-.1-.6-.2-.7-.2-.2-.4-.3-.7-.3zM385.9-169.8h-.8v-5.5h.8v5.5zM389.1-173.7h.4l-.1.8h-.4c-.3 0-.6.1-.8.3s-.3.5-.3.8v2h-.8v-3.9h.6l.1.7c.1-.2.3-.4.5-.6.3-.1.5-.1.8-.1zM389.6-173.7h.9l.8 2.2c.1.3.2.6.2.9 0-.1.1-.3.1-.5.1-.2.4-1.1.9-2.6h.9l-1.7 4.4c-.3.8-.8 1.2-1.5 1.2-.2 0-.4 0-.5-.1v-.7h.4c.4 0 .7-.2.8-.7l.1-.4-1.4-3.7z"/></g><g class="st18"><path class="st20" d="M367.7-163.5c0-.3.1-.6.2-.8.2-.2.4-.5.8-.7-.2-.3-.4-.5-.5-.7s-.1-.4-.1-.6c0-.4.1-.6.4-.8.3-.2.6-.3 1-.3s.7.1 1 .3c.2.2.4.5.4.8 0 .3-.1.5-.2.7-.2.2-.4.4-.8.7l1.2 1.2c.2-.3.3-.6.5-1.1h.9c-.2.7-.4 1.2-.8 1.6l1.1 1h-1.1l-.5-.5c-.2.2-.5.3-.8.4s-.6.1-.9.1c-.5 0-1-.1-1.3-.4-.3-.1-.5-.5-.5-.9zm1.8.7c.4 0 .8-.1 1.1-.4l-1.4-1.3c-.2.2-.4.3-.5.5-.1.1-.1.3-.1.5s.1.4.2.6c.2 0 .4.1.7.1zm-.5-3.4c0 .1 0 .3.1.4s.2.3.3.4c.3-.2.5-.3.6-.4.1-.1.2-.3.2-.4 0-.2-.1-.3-.2-.4-.1-.1-.2-.1-.4-.1s-.3 0-.4.1c-.2.1-.2.2-.2.4zM377.5-166.7c-.5 0-.9.2-1.1.5s-.4.8-.4 1.4c0 .6.1 1.1.4 1.4.3.3.7.5 1.2.5.2 0 .4 0 .6-.1.2 0 .4-.1.6-.2v.7c-.4.2-.9.2-1.4.2-.8 0-1.3-.2-1.7-.7-.4-.5-.6-1.1-.6-2 0-.5.1-1 .3-1.4.2-.4.5-.7.9-.9s.8-.3 1.3-.3 1 .1 1.5.3l-.3.7c-.2-.1-.4-.2-.6-.2s-.5.1-.7.1zM381.8-166.1h.4l-.1.8h-.4c-.3 0-.6.1-.8.3s-.3.5-.3.8v2h-.8v-3.9h.6l.1.7c.1-.2.3-.4.5-.6.3-.1.5-.1.8-.1zM385.3-162.2l-.2-.5c-.2.2-.4.4-.6.5s-.4.1-.7.1c-.4 0-.7-.1-.9-.3s-.3-.5-.3-.9.1-.7.4-.9.8-.3 1.4-.3h.7v-.2c0-.2-.1-.4-.2-.6-.1-.1-.3-.2-.5-.2s-.4 0-.6.1-.4.1-.5.2l-.3-.6c.2-.1.4-.2.7-.3.3-.1.5-.1.7-.1.5 0 .9.1 1.1.3.3.2.4.6.4 1v2.6h-.6zm-1.2-.5c.3 0 .5-.1.7-.3.2-.2.3-.4.3-.7v-.3h-.5c-.4 0-.7.1-.9.2-.2.1-.3.3-.3.5s.1.3.2.4.3.2.5.2zM389-165.4h-1v3.3h-.8v-3.3h-.6v-.4l.6-.3v-.3c0-.5.1-.8.3-1s.5-.3 1-.3c.3 0 .6 0 .9.1l-.2.6c-.2-.1-.4-.1-.6-.1-.2 0-.3.1-.4.2s-.1.3-.1.5v.3h1v.7zM391.2-162.8c.2 0 .4 0 .6-.1v.6c-.1 0-.2.1-.4.1h-.5c-.8 0-1.2-.4-1.2-1.2v-2.1h-.5v-.4l.6-.3.3-.8h.5v.9h1.1v.6h-1.1v2.1c0 .2.1.3.2.4.1.2.2.2.4.2zM395.2-163.3c0 .4-.1.7-.4.9-.3.2-.7.3-1.2.3s-.9-.1-1.3-.2v-.7c.5.2.9.3 1.3.3.5 0 .8-.2.8-.5 0-.1 0-.2-.1-.2-.1-.1-.2-.1-.3-.2-.1-.1-.3-.2-.5-.2-.5-.2-.8-.3-.9-.5-.2-.2-.2-.4-.2-.7 0-.3.1-.6.4-.8.3-.2.6-.3 1.1-.3.5 0 .9.1 1.3.3l-.3.6c-.4-.2-.8-.3-1.1-.3-.4 0-.7.1-.7.4 0 .1.1.2.2.3.1.1.4.2.7.3.3.1.6.2.7.3.1.1.3.2.3.4s.2.3.2.5z"/></g><g id="XMLID_369_"><g class="st18"><path class="st19" d="M329.6-177h-1.1v-2.9h-3v2.9h-1.1v-6.4h1.1v2.6h3v-2.6h1.1v6.4zM335.5-179.4c0 .8-.2 1.4-.6 1.9s-1 .7-1.7.7c-.5 0-.9-.1-1.2-.3s-.6-.5-.8-.9c-.2-.4-.3-.8-.3-1.3 0-.8.2-1.4.6-1.8.4-.4 1-.7 1.7-.7s1.3.2 1.7.7c.4.3.6.9.6 1.7zm-3.5 0c0 1.1.4 1.7 1.2 1.7.8 0 1.2-.6 1.2-1.7s-.4-1.7-1.2-1.7c-.4 0-.7.1-.9.4s-.3.7-.3 1.3zM338.5-177.7c.3 0 .5 0 .8-.1v.8c-.1 0-.3.1-.4.1-.2 0-.4.1-.6.1-1 0-1.5-.5-1.5-1.5v-2.6h-.7v-.5l.7-.4.4-1h.6v1.1h1.4v.8h-1.4v2.6c0 .2.1.4.2.6.1-.1.3 0 .5 0zM342.3-176.9c-.8 0-1.3-.2-1.8-.7-.4-.4-.6-1-.6-1.8s.2-1.4.6-1.9c.4-.5.9-.7 1.6-.7.6 0 1.1.2 1.5.6s.6.9.6 1.6v.6H341c0 .5.1.8.4 1.1.2.3.6.4 1 .4.3 0 .6 0 .8-.1.2-.1.5-.1.8-.3v.8c-.3.1-.5.2-.8.3-.2.1-.5.1-.9.1zm-.1-4.3c-.3 0-.6.1-.8.3-.2.2-.3.5-.4.9h2.2c0-.4-.1-.7-.3-.9-.2-.2-.4-.3-.7-.3zM346.4-177h-1v-6.8h1v6.8z"/></g><g class="st18"><path class="st19" d="M315.1-171.2v2.6H314v-6.4h1.8c.8 0 1.4.2 1.8.5s.6.8.6 1.4c0 .8-.4 1.4-1.2 1.7l1.8 2.8h-1.2l-1.5-2.6h-1zm0-.8h.7c.5 0 .8-.1 1.1-.3s.3-.5.3-.8c0-.4-.1-.6-.4-.8s-.6-.2-1.1-.2h-.7v2.1zM321.8-168.5c-.8 0-1.3-.2-1.8-.7-.4-.4-.6-1-.6-1.8s.2-1.4.6-1.9c.4-.5.9-.7 1.6-.7.6 0 1.1.2 1.5.6s.6.9.6 1.6v.6h-3.2c0 .5.1.8.4 1.1.2.3.6.4 1 .4.3 0 .6 0 .8-.1.2-.1.5-.1.8-.3v.8c-.3.1-.5.2-.8.3-.3.1-.6.1-.9.1zm-.2-4.3c-.3 0-.6.1-.8.3-.2.2-.3.5-.4.9h2.2c0-.4-.1-.7-.3-.9-.1-.2-.4-.3-.7-.3zM326.8-168.5c-.7 0-1.3-.2-1.7-.6-.4-.4-.6-1-.6-1.8s.2-1.4.6-1.9c.4-.4 1-.7 1.7-.7.5 0 1 .1 1.4.3l-.3.8c-.4-.2-.8-.3-1.1-.3-.8 0-1.3.6-1.3 1.7 0 .5.1 1 .3 1.2.2.3.5.4.9.4.5 0 .9-.1 1.3-.3v.9c-.2.1-.4.2-.6.2 0 .1-.3.1-.6.1zM331.4-168.5c-.8 0-1.3-.2-1.8-.7-.4-.4-.6-1-.6-1.8s.2-1.4.6-1.9c.4-.5.9-.7 1.6-.7.6 0 1.1.2 1.5.6s.6.9.6 1.6v.6h-3.2c0 .5.1.8.4 1.1.2.3.6.4 1 .4.3 0 .6 0 .8-.1.2-.1.5-.1.8-.3v.8c-.3.1-.5.2-.8.3-.2.1-.5.1-.9.1zm-.1-4.3c-.3 0-.6.1-.8.3-.2.2-.3.5-.4.9h2.2c0-.4-.1-.7-.3-.9-.2-.2-.4-.3-.7-.3zM337-168.5c-.6 0-1.1-.2-1.4-.7h-.1c0 .4.1.7.1.7v2h-1v-7h.8c0 .1.1.3.1.7h.1c.3-.5.8-.7 1.5-.7.6 0 1.1.2 1.4.7.3.4.5 1.1.5 1.8 0 .8-.2 1.4-.5 1.9-.4.4-.9.6-1.5.6zm-.3-4.2c-.4 0-.7.1-.9.4-.2.2-.3.6-.3 1.2v.2c0 .6.1 1 .3 1.3.2.3.5.4.9.4s.6-.1.8-.4.3-.7.3-1.3c0-.5-.1-1-.3-1.2-.1-.5-.4-.6-.8-.6zM341.9-169.3c.3 0 .5 0 .8-.1v.8c-.1 0-.3.1-.4.1-.2 0-.4.1-.6.1-1 0-1.5-.5-1.5-1.5v-2.6h-.7v-.5l.7-.4.4-1h.6v1.1h1.4v.8h-1.4v2.6c0 .2.1.4.2.6.2-.1.3 0 .5 0zM343.6-174.7c0-.2.1-.3.2-.4.1-.1.2-.1.4-.1s.3 0 .4.1c.1.1.2.2.2.4s-.1.3-.2.4c-.1.1-.2.2-.4.2s-.3-.1-.4-.2c-.2-.1-.2-.3-.2-.4zm1.1 6.1h-1v-4.9h1v4.9zM350.5-171c0 .8-.2 1.4-.6 1.9s-1 .7-1.7.7c-.5 0-.9-.1-1.2-.3s-.6-.5-.8-.9c-.2-.4-.3-.8-.3-1.3 0-.8.2-1.4.6-1.8.4-.4 1-.7 1.7-.7s1.3.2 1.7.7c.4.3.6.9.6 1.7zm-3.6 0c0 1.1.4 1.7 1.2 1.7.8 0 1.2-.6 1.2-1.7s-.4-1.7-1.2-1.7c-.4 0-.7.1-.9.4s-.3.7-.3 1.3zM355.9-168.6h-1v-3c0-.4-.1-.7-.2-.8-.2-.2-.4-.3-.7-.3-.4 0-.8.1-1 .4s-.3.7-.3 1.3v2.4h-1v-4.9h.8l.1.6h.1c.1-.2.4-.4.6-.5.3-.1.6-.2.9-.2 1.2 0 1.7.6 1.7 1.8v3.2z"/></g></g><g id="XMLID_366_"><g class="st18"><path class="st19" d="M211.1 35.4c0 .6-.2 1-.6 1.3-.4.3-1 .5-1.7.5s-1.3-.1-1.8-.3v-1l.9.3c.3.1.6.1.9.1.4 0 .7-.1.9-.2.2-.2.3-.4.3-.6 0-.2-.1-.4-.3-.6s-.6-.4-1.1-.6c-.6-.2-1-.5-1.2-.8s-.4-.7-.4-1.1c0-.5.2-1 .6-1.3s.9-.5 1.5-.5 1.2.1 1.8.4l-.3.9c-.6-.2-1.1-.4-1.5-.4-.3 0-.6.1-.8.2-.2.1-.3.3-.3.6 0 .2 0 .3.1.4l.3.3s.5.2.9.4c.5.2.8.4 1 .5s.4.4.5.6.3.6.3.9zM215.3 37.2l-.2-.7c-.2.3-.5.5-.7.6-.2.1-.5.2-.9.2-.5 0-.9-.1-1.1-.4-.3-.3-.4-.6-.4-1.1 0-.5.2-.9.6-1.1.4-.3.9-.4 1.7-.4h.8V34c0-.3-.1-.5-.2-.7-.1-.2-.4-.2-.7-.2-.2 0-.5 0-.7.1s-.4.2-.7.3l-.3-.7.9-.3c.3-.1.6-.1.9-.1.6 0 1.1.1 1.4.4s.5.7.5 1.3v3.3h-.9zm-1.6-.7c.4 0 .7-.1.9-.3.2-.2.3-.5.3-.9v-.4h-.6c-.5 0-.8.1-1.1.2-.2.1-.3.4-.3.7 0 .2.1.4.2.5.2.1.4.2.6.2zM221.7 37.2h-1v-3c0-.4-.1-.7-.2-.8-.2-.2-.4-.3-.7-.3-.4 0-.8.1-1 .4s-.3.7-.3 1.3v2.4h-1v-4.9h.8l.1.6h.1c.1-.2.4-.4.6-.5.3-.1.6-.2.9-.2 1.2 0 1.7.6 1.7 1.8v3.2zM223.1 31c0-.2.1-.3.2-.4.1-.1.2-.1.4-.1s.3 0 .4.1c.1.1.2.2.2.4s-.1.3-.2.4c-.1.1-.2.2-.4.2s-.3-.1-.4-.2c-.2-.1-.2-.2-.2-.4zm1.1 6.2h-1v-4.9h1v4.9z"/></g><g class="st18"><path class="st19" d="M208 42.3c0 1.1-.3 1.9-.9 2.4-.6.6-1.4.8-2.5.8h-1.8v-6.4h2c1 0 1.8.3 2.4.8s.8 1.4.8 2.4zm-1.1 0c0-1.5-.7-2.3-2.2-2.3h-.9v4.7h.7c1.6 0 2.4-.8 2.4-2.4zM211.4 45.7c-.8 0-1.3-.2-1.8-.7-.4-.4-.6-1-.6-1.8s.2-1.4.6-1.9c.4-.5.9-.7 1.6-.7.6 0 1.1.2 1.5.6s.6.9.6 1.6v.6H210c0 .5.1.8.4 1.1.2.3.6.4 1 .4.3 0 .6 0 .8-.1.2-.1.5-.1.8-.3v.8c-.3.1-.5.2-.8.3-.2 0-.5.1-.8.1zm-.2-4.3c-.3 0-.6.1-.8.3-.2.2-.3.5-.4.9h2.2c0-.4-.1-.7-.3-.9-.1-.2-.4-.3-.7-.3zM218.7 45.6h-1v-3c0-.4-.1-.7-.2-.8-.2-.2-.4-.3-.7-.3-.4 0-.8.1-1 .4s-.3.7-.3 1.3v2.4h-1v-4.9h.8l.1.6h.1c.1-.2.4-.4.6-.5.3-.1.6-.2.9-.2 1.2 0 1.7.6 1.7 1.8v3.2zM222 44.8c.3 0 .5 0 .8-.1v.8c-.1 0-.3.1-.4.1-.2 0-.4.1-.6.1-1 0-1.5-.5-1.5-1.5v-2.6h-.7V41l.7-.4.4-1h.6v1.1h1.4v.8h-1.4v2.6c0 .2.1.4.2.6.1.1.3.1.5.1zM226.8 45.6l-.2-.7c-.2.3-.5.5-.7.6-.2.1-.5.2-.9.2-.5 0-.9-.1-1.1-.4-.3-.3-.4-.6-.4-1.1 0-.5.2-.9.6-1.1.4-.3.9-.4 1.7-.4h.8v-.3c0-.3-.1-.5-.2-.7-.1-.2-.4-.2-.7-.2-.2 0-.5 0-.7.1s-.4.2-.7.3l-.3-.7.9-.3c.3-.1.6-.1.9-.1.6 0 1.1.1 1.4.4s.5.7.5 1.3v3.3h-.9zm-1.6-.7c.4 0 .7-.1.9-.3.2-.2.3-.5.3-.9v-.4h-.6c-.5 0-.8.1-1.1.2-.2.1-.3.4-.3.7 0 .2.1.4.2.5.2.1.4.2.6.2zM230 45.6h-1v-6.8h1v6.8z"/></g><g class="st18"><path class="st19" d="M207.3 50.5h2.4v3.2c-.4.1-.8.2-1.1.3-.4.1-.7.1-1.2.1-1 0-1.7-.3-2.2-.9-.5-.6-.8-1.4-.8-2.4s.3-1.8.9-2.4c.6-.6 1.4-.9 2.5-.9.7 0 1.3.1 1.9.4l-.4.9c-.5-.2-1-.4-1.6-.4-.7 0-1.2.2-1.6.6-.4.4-.6 1-.6 1.8s.2 1.4.5 1.8c.4.4.9.6 1.5.6.3 0 .7 0 1.1-.1v-1.7h-1.3v-.9zM213.6 49h.5l-.1 1c-.1 0-.3-.1-.5-.1-.4 0-.7.1-1 .4s-.4.6-.4 1V54h-1v-4.9h.8l.1.9h.1c.2-.3.4-.5.6-.7.3-.2.6-.3.9-.3zM219.3 51.5c0 .8-.2 1.4-.6 1.9s-1 .7-1.7.7c-.5 0-.9-.1-1.2-.3s-.6-.5-.8-.9c-.2-.4-.3-.8-.3-1.3 0-.8.2-1.4.6-1.8.4-.4 1-.7 1.7-.7s1.3.2 1.7.7c.4.4.6 1 .6 1.7zm-3.5 0c0 1.1.4 1.7 1.2 1.7.8 0 1.2-.6 1.2-1.7s-.4-1.7-1.2-1.7c-.4 0-.7.1-.9.4s-.3.8-.3 1.3zM223.9 54l-.1-.6h-.1c-.1.2-.3.4-.6.5-.3.1-.6.2-.9.2-.6 0-1-.1-1.3-.4s-.4-.7-.4-1.3v-3.2h1v3c0 .4.1.7.2.8.2.2.4.3.7.3.4 0 .8-.1 1-.4.2-.3.3-.7.3-1.3v-2.4h1V54h-.8zM228.7 54.1c-.6 0-1.1-.2-1.4-.7h-.1c0 .4.1.7.1.7v2h-1v-7h.8c0 .1.1.3.1.7h.1c.3-.5.8-.7 1.5-.7.6 0 1.1.2 1.4.7.3.4.5 1.1.5 1.8 0 .8-.2 1.4-.5 1.9-.5.3-.9.6-1.5.6zm-.3-4.2c-.4 0-.7.1-.9.4-.2.2-.3.6-.3 1.2v.2c0 .6.1 1 .3 1.3.2.3.5.4.9.4s.6-.1.8-.4.3-.7.3-1.3c0-.5-.1-1-.3-1.2-.1-.5-.4-.6-.8-.6z"/></g></g><g id="XMLID_365_" class="st18"><path class="st20" d="M451.6 90.6c0 .6-.2 1-.6 1.3-.4.3-1 .5-1.7.5s-1.3-.1-1.8-.3v-1l.9.3c.3.1.6.1.9.1.4 0 .7-.1.9-.2.2-.2.3-.4.3-.6 0-.2-.1-.4-.3-.6s-.6-.4-1.1-.6c-.6-.2-1-.5-1.2-.8s-.4-.7-.4-1.1c0-.5.2-1 .6-1.3s.9-.5 1.5-.5 1.2.1 1.8.4l-.3.9c-.6-.2-1.1-.4-1.5-.4-.3 0-.6.1-.8.2-.2.1-.3.3-.3.6 0 .2 0 .3.1.4l.3.3s.5.2.9.4c.5.2.8.4 1 .5s.4.4.5.6.3.6.3.9zM455.2 92.4c-.6 0-1.1-.2-1.4-.7h-.1c0 .4.1.7.1.7v2h-1v-7h.8c0 .1.1.3.1.7h.1c.3-.5.8-.7 1.5-.7.6 0 1.1.2 1.4.7.3.4.5 1.1.5 1.8 0 .8-.2 1.4-.5 1.9-.4.4-.9.6-1.5.6zm-.2-4.2c-.4 0-.7.1-.9.4-.2.2-.3.6-.3 1.2v.2c0 .6.1 1 .3 1.3.2.3.5.4.9.4s.6-.1.8-.4.3-.7.3-1.3c0-.5-.1-1-.3-1.2-.2-.4-.5-.6-.8-.6zM461.4 92.3l-.2-.7c-.2.3-.5.5-.7.6-.2.1-.5.2-.9.2-.5 0-.9-.1-1.1-.4-.3-.3-.4-.6-.4-1.1 0-.5.2-.9.6-1.1.4-.3.9-.4 1.7-.4h.8v-.3c0-.3-.1-.5-.2-.7-.1-.2-.4-.2-.7-.2-.2 0-.5 0-.7.1s-.4.2-.7.3l-.3-.7.9-.3c.3-.1.6-.1.9-.1.6 0 1.1.1 1.4.4.3.3.5.7.5 1.3v3.3h-.9zm-1.5-.7c.4 0 .7-.1.9-.3.2-.2.3-.5.3-.9V90h-.6c-.5 0-.8.1-1.1.2-.2.1-.3.4-.3.7 0 .2.1.4.2.5.1.2.3.2.6.2z"/></g><circle id="XMLID_364_" class="st21" cx="241.4" cy="286.6" r="15.7"/><g id="XMLID_358_"><circle id="XMLID_363_" class="st22" cx="275.8" cy="6.6" r="15.7"/><circle id="XMLID_362_" class="st15" cx="273.1" cy="4.6" r="15.7"/><g id="XMLID_359_"><path id="XMLID_361_" class="st20" d="M263.2 3.2h7.5l1.2-3.5 1.6 5.5.6-2h8.9c.3-1.6.1-3.3-.8-4.9-1.7-3.1-6.4-3.5-8.5-.7-.5.7-.8.6-1.2 0-1.6-2.1-4.6-2.4-6.6-1.2-1.4.9-2.5 2.2-2.7 4-.1.9-.1 1.8 0 2.8 0-.1 0 0 0 0z"/><path id="XMLID_360_" class="st20" d="M274.6 3.9l-1 3.8-1.7-5.8-.7 2h-7.8c.7 3.3 3.5 5.6 6.2 7.6.9.7 1.9 1.3 2.9 1.8.4.2.7.3 1.1.1 3.4-1.9 6.5-4.1 8.4-7.6.3-.6.6-1.2.8-1.9h-8.2z"/></g></g><g id="XMLID_352_"><circle id="XMLID_357_" class="st22" cx="275.8" cy="169.7" r="15.7"/><circle id="XMLID_356_" class="st15" cx="273.1" cy="167.7" r="15.7"/><g id="XMLID_353_"><path id="XMLID_355_" class="st20" d="M263.2 166.3h7.5l1.2-3.5 1.6 5.5.6-2h8.9c.3-1.6.1-3.3-.8-4.9-1.7-3.1-6.4-3.5-8.5-.7-.5.7-.8.6-1.2 0-1.6-2.1-4.6-2.4-6.6-1.2-1.4.9-2.5 2.2-2.7 4-.1.9-.1 1.8 0 2.7v.1z"/><path id="XMLID_354_" class="st20" d="M274.6 167l-1 3.8-1.7-5.8-.7 2h-7.8c.7 3.3 3.5 5.6 6.2 7.6.9.7 1.9 1.3 2.9 1.8.4.2.7.3 1.1.1 3.4-1.9 6.5-4.1 8.4-7.6.3-.6.6-1.2.8-1.9h-8.2z"/></g></g><g id="XMLID_346_"><circle id="XMLID_351_" class="st22" cx="275.8" cy="-143.1" r="15.7"/><circle id="XMLID_350_" class="st15" cx="273.1" cy="-145.1" r="15.7"/><g id="XMLID_347_"><path id="XMLID_349_" class="st20" d="M263.2-146.5h7.5l1.2-3.5 1.6 5.5.6-2h8.9c.3-1.6.1-3.3-.8-4.9-1.7-3.1-6.4-3.5-8.5-.7-.5.7-.8.6-1.2 0-1.6-2.1-4.6-2.4-6.6-1.2-1.4.9-2.5 2.2-2.7 4-.1.9-.1 1.8 0 2.8 0-.1 0 0 0 0z"/><path id="XMLID_348_" class="st20" d="M274.6-145.8l-1 3.8-1.7-5.8-.7 2h-7.8c.7 3.3 3.5 5.6 6.2 7.6.9.7 1.9 1.3 2.9 1.8.4.2.7.3 1.1.1 3.4-1.9 6.5-4.1 8.4-7.6.3-.6.6-1.2.8-1.9h-8.2z"/></g></g><g id="XMLID_340_"><circle id="XMLID_345_" class="st22" cx="406.8" cy="-62.7" r="15.7"/><circle id="XMLID_344_" class="st15" cx="404.1" cy="-64.7" r="15.7"/><g id="XMLID_341_"><path id="XMLID_343_" class="st20" d="M394.2-66h7.5l1.2-3.5 1.6 5.5.6-2h8.9c.3-1.6.1-3.3-.8-4.9-1.7-3.1-6.4-3.5-8.5-.7-.5.7-.8.6-1.2 0-1.6-2.1-4.6-2.4-6.6-1.2-1.4.9-2.5 2.2-2.7 4-.1.9-.1 1.8 0 2.8 0-.1 0-.1 0 0z"/><path id="XMLID_342_" class="st20" d="M405.6-65.4l-1 3.8-1.7-5.8-.7 2h-7.8c.7 3.3 3.5 5.6 6.2 7.6.9.7 1.9 1.3 2.9 1.8.4.2.7.3 1.1.1 3.4-1.9 6.5-4.1 8.4-7.6.3-.6.6-1.2.8-1.9h-8.2z"/></g></g><g id="XMLID_329_"><circle id="XMLID_339_" class="st23" cx="428.7" cy="91.8" r="15.7"/><circle id="XMLID_338_" class="st24" cx="427.1" cy="88.5" r="15.7"/><g id="XMLID_332_"><g id="XMLID_333_"><path id="XMLID_337_" class="st7" d="M426.7 85.2c-2.9 0-5.6-.3-7.3-.9.4 2.9 3.5 5.2 7.3 5.2s6.9-2.3 7.3-5.2c-1.8.5-4.4.9-7.3.9z"/><path id="XMLID_336_" class="st7" d="M428.3 82.5c-.1.1-.2.3-.2.4 2.3.1 4.1.3 4.1.7 0 .4-2.4.7-5.4.7s-5.4-.3-5.4-.7c0-.3 1.7-.6 4.1-.7-.1-.1-.2-.3-.3-.4-3.2.1-5.7.6-5.7 1.1 0 .6 3.3 1.1 7.3 1.1s7.3-.5 7.3-1.1c-.1-.6-2.5-1-5.8-1.1z"/><path id="XMLID_335_" class="st7" d="M426.6 83.8s0-.1-.1-.2c0-.1 0-.1-.1-.2 0-.1 0-.2-.1-.3v-.3-.4-.4-.4-.2-.2-.2-.2-.2-.2-.3-.3-.2-.1V83.1c0 .1 0 .2-.1.3 0 .1 0 .2-.1.2.6.2.5.2.5.2z"/><path id="XMLID_334_" class="st7" d="M426.8 76.4s-3.8 4-.5 6.8v-.1c-2-1.9.5-4.5.5-4.5 1.9 2.2.9 3.8.3 4.5v.1c.8-.9 2.7-3.3-.3-6.8z"/></g></g><g id="XMLID_330_"><path id="XMLID_331_" class="st7" d="M418.8 95.2h12c.8 0 2.2.3 3-.1s2-2 .6-2.7c-2.9-1.4-7.8-.4-11-.4-1.6 0-8-.9-7.1 2.7s5.5 2.4 8.3 2.4c3.1 0 8 1 10.8-.6 3.2-1.9.7-6.4-2.3-6.4H421c-.7 0-.7 1.1 0 1.1h12.4c1.8 0 1.7 4.8-.2 4.8H419c-1.2 0-1.4-2.9-.2-2.9h13.9s1.4.9.7.9h-14.7c-.6.1-.6 1.2.1 1.2z"/></g></g><circle id="XMLID_328_" class="st25" cx="239.4" cy="283.9" r="15.7"/><g id="XMLID_319_"><circle id="XMLID_327_" class="st26" cx="218.1" cy="11.5" r="15.7"/><circle id="XMLID_326_" class="st3" cx="216.1" cy="9.5" r="15.7"/><g id="XMLID_320_"><g id="XMLID_321_"><path id="XMLID_325_" class="st20" d="M220.3 18.1c1.2 0 1.5-1.3 1.9-2.2.5-1.3.6-2.8.6-4.1 0-1.5.5-2.8.9-4.2.5-1.5.9-3.1-.2-4.7-1-1.5-2.4-2.6-4.6-1.6-2 .8-4 .8-5.9.1-1.3-.5-2.5-.6-3.6.4-1.3 1.2-1.9 2.7-1.5 4.5.2.6.3 1.2.6 1.8.8 1.8.6 3.7.9 5.6.2 1.2.3 2.4.9 3.5.3.6.7 1.2 1.5 1.1.7-.1 1.1-.7 1.3-1.3.4-1.1.8-2.3 1.1-3.5.2-.7.5-1.3 1.1-1.4.9-.2 1.6 0 2 1.1.5 1.2.6 2.4 1.1 3.6.3.8.8 1.5 1.6 1.5"/><path id="XMLID_322_" class="st20" d="M220.3 18.5h-.1c-1.3 0-1.8-1.4-2-1.8-.3-.6-.4-1.3-.6-1.9-.1-.6-.3-1.1-.5-1.7-.4-.9-.9-1-1.5-.8-.4.1-.6.5-.8 1.1-.3 1.2-.7 2.4-1.1 3.5-.1.4-.5 1.5-1.7 1.6-1.2.2-1.7-.8-2-1.3-.6-1.1-.8-2.3-1-3.5v-.2c-.1-.6-.1-1.3-.2-1.9-.1-1.3-.2-2.5-.7-3.6-.3-.6-.4-1.2-.6-1.9-.5-1.9.1-3.5 1.6-4.9 1.4-1.2 2.8-.9 4.1-.4 1.9.7 3.8.7 5.6-.1 2.1-.9 3.8-.3 5.1 1.8 1.2 1.7.7 3.5.2 5.1-.4 1.2-.8 2.6-.9 4 0 1.2-.1 2.8-.7 4.3l-.1.2c-.2 1.1-.7 2.4-2.1 2.4zm-4.3-7.2c.9 0 1.5.5 1.9 1.5.2.6.4 1.2.5 1.8.2.6.3 1.2.5 1.8.4.9.7 1.3 1.2 1.3h.2c.7 0 1-.7 1.4-1.7l.1-.2c.5-1.4.6-2.8.6-4 0-1.6.5-3 .9-4.3.5-1.5.8-2.9-.1-4.3-1.2-1.7-2.4-2.2-4.1-1.5-2 .9-4.1.9-6.3.1-1.4-.5-2.3-.5-3.1.3-1.3 1.2-1.7 2.5-1.3 4 .2.6.3 1.2.5 1.7.6 1.3.7 2.6.7 3.9 0 .6.1 1.2.2 1.8v.2c.2 1.1.3 2.2.9 3.1.4.6.6 1 1.1.9.4-.1.7-.4 1-1 .4-1.1.8-2.3 1.1-3.4.3-1.3 1-1.7 1.5-1.8.2-.2.4-.2.6-.2z"/></g></g></g><g id="XMLID_298_"><circle id="XMLID_318_" class="st27" cx="279.5" cy="218.5" r="15.7"/><circle id="XMLID_317_" class="st2" cx="276.8" cy="215.1" r="15.7"/><g id="XMLID_299_"><g id="XMLID_309_"><g id="XMLID_314_"><g id="XMLID_315_"><path id="XMLID_316_" class="st20" d="M277.4 214.5l-8.4-8.7c-.1.3-.2.5-.3.8h16.7c-.1-.3-.2-.5-.3-.8l-8.4 8.7c-.4.4.2 1.1.7.7l8.4-8.7c.3-.3.1-.8-.3-.8h-16.7c-.4 0-.6.5-.3.8l8.4 8.7c.2.4.9-.3.5-.7z"/></g></g><g id="XMLID_312_"><path id="XMLID_313_" class="st20" d="M276.6 214.8h1v9.1h-1z"/></g><g id="XMLID_310_"><path id="XMLID_311_" class="st20" d="M274.1 223.6h5.8v.7h-5.8z"/></g></g><g id="XMLID_307_"><path id="XMLID_308_" class="st20" d="M268.2 209.6h.3V213.5h.4v-3.9h.4v3.9h.3v-3.9h.4v3.9h.4v-.4-.2-1.6-.9-.8h.4c0 .1 0 .2.1.4 0 .4.1.7.1 1.1 0 .3.1.7.1 1s.1.7.1 1c0 .2-.1.4-.1.6-.1.3-.3.5-.4.7-.4.4-.6.8-.6 1.3-.1.5 0 1.1.1 1.6v6.3c0 .4-.2.6-.6.7-.3 0-.6-.2-.7-.5v-.3-5.6c0-.3 0-.5.1-.8.1-.4.2-.7.2-1.1 0-.5-.2-1-.6-1.4-.2-.2-.4-.4-.5-.6-.2-.3-.3-.7-.2-1 0-.3.1-.6.1-1 0-.3.1-.6.1-1 0-.3.1-.5.1-.8-.1-.1 0-.3 0-.6z"/></g><g id="XMLID_300_"><g id="XMLID_305_"><path id="XMLID_306_" class="st20" d="M272.6 224.5c-.4 0-.8-.3-.8-.7v-3.5c0-.5 0-.8.1-1.2.1-.4.1-.7-.1-1-.1-.2-.3-.3-.5-.4-.2 0-.2-.1-.2-.3v-.7-.8c0-.4 0-.9.1-1.3l.3-2.1c.1-1 .4-1.8.8-2.5.1-.2.2-.3.3-.4l.1-.1c.1-.1.3-.4.5-.4.1 0 .2 0 .2.1v14.5c0 .2-.1.4-.2.5-.2.2-.4.3-.6.3z"/></g><g id="XMLID_301_"><path id="XMLID_302_" class="st28" d="M273.1 209.3s.1 0 .1.1v14.4c0 .3-.3.6-.6.6s-.6-.3-.6-.6v-3.5c0-.4 0-.7.1-1.1.1-.4.1-.7-.1-1.1-.1-.2-.3-.3-.6-.4-.1 0-.1-.1-.1-.2v-1.4s0-.9.1-1.3l.3-2.1c.1-.9.4-1.7.8-2.5.1-.2.2-.3.3-.5 0-.2.1-.4.3-.4m0-.2c-.3 0-.5.3-.6.4l-.1.1c-.1.1-.2.2-.3.4-.4.7-.6 1.6-.8 2.5-.1.7-.2 1.5-.3 2.1 0 .4-.1.9-.1 1.3v1.5c0 .2 0 .3.3.4.2.1.3.2.4.3.2.2.2.5.1.9s-.2.7-.1 1.2v3.5c0 .5.4.9.9.9.2 0 .5-.1.6-.3.2-.2.3-.4.3-.6v-14.5l-.1-.1h-.2z"/></g></g></g></g><g id="XMLID_277_"><circle id="XMLID_297_" class="st27" cx="438.7" cy="218.5" r="15.7"/><circle id="XMLID_296_" class="st2" cx="436.1" cy="215.1" r="15.7"/><g id="XMLID_278_"><g id="XMLID_288_"><g id="XMLID_293_"><g id="XMLID_294_"><path id="XMLID_295_" class="st20" d="M436.6 214.5l-8.4-8.7c-.1.3-.2.5-.3.8h16.7c-.1-.3-.2-.5-.3-.8l-8.4 8.7c-.4.4.2 1.1.7.7l8.4-8.7c.3-.3.1-.8-.3-.8H428c-.4 0-.6.5-.3.8l8.4 8.7c.3.4.9-.3.5-.7z"/></g></g><g id="XMLID_291_"><path id="XMLID_292_" class="st20" d="M435.8 214.8h1v9.1h-1z"/></g><g id="XMLID_289_"><path id="XMLID_290_" class="st20" d="M433.4 223.6h5.8v.7h-5.8z"/></g></g><g id="XMLID_286_"><path id="XMLID_287_" class="st20" d="M427.4 209.6h.3V213.5h.4v-3.9h.4v3.9h.3v-3.9h.4v3.9h.4v-.4-.2-1.6-.9-.8h.4c0 .1 0 .2.1.4 0 .4.1.7.1 1.1 0 .3.1.7.1 1s.1.7.1 1c0 .2-.1.4-.1.6-.1.3-.3.5-.4.7-.4.4-.6.8-.6 1.3-.1.5 0 1.1.1 1.6v6.3c0 .4-.2.6-.6.7-.3 0-.6-.2-.7-.5v-.3-5.6c0-.3 0-.5.1-.8.1-.4.2-.7.2-1.1 0-.5-.2-1-.6-1.4-.2-.2-.4-.4-.5-.6-.2-.3-.3-.7-.2-1 0-.3.1-.6.1-1 0-.3.1-.6.1-1 0-.3.1-.5.1-.8v-.6z"/></g><g id="XMLID_279_"><g id="XMLID_284_"><path id="XMLID_285_" class="st20" d="M431.8 224.5c-.4 0-.8-.3-.8-.7v-3.5c0-.5 0-.8.1-1.2.1-.4.1-.7-.1-1-.1-.2-.3-.3-.5-.4-.2 0-.2-.1-.2-.3v-.7-.8c0-.4 0-.9.1-1.3l.3-2.1c.1-1 .4-1.8.8-2.5.1-.2.2-.3.3-.4l.1-.1c.1-.1.3-.4.5-.4.1 0 .2 0 .2.1v14.5c0 .2-.1.4-.2.5-.2.2-.4.3-.6.3z"/></g><g id="XMLID_280_"><path id="XMLID_281_" class="st28" d="M432.3 209.3s.1 0 .1.1v14.4c0 .3-.3.6-.6.6s-.6-.3-.6-.6v-3.5c0-.4 0-.7.1-1.1s.1-.7-.1-1.1c-.1-.2-.3-.3-.6-.4-.1 0-.1-.1-.1-.2v-1.4s0-.9.1-1.3l.3-2.1c.1-.9.4-1.7.8-2.5.1-.2.2-.3.3-.5 0-.2.2-.4.3-.4m0-.2c-.3 0-.5.3-.6.4l-.1.1c-.1.1-.2.2-.3.4-.4.7-.6 1.6-.8 2.5-.1.7-.2 1.5-.3 2.1 0 .4-.1.9-.1 1.3v1.5c0 .2 0 .3.3.4.2.1.3.2.4.3.2.2.2.5.1.9s-.2.7-.1 1.2v3.5c0 .5.4.9.9.9.2 0 .5-.1.6-.3.2-.2.3-.4.3-.6v-14.5l-.1-.1h-.2z"/></g></g></g></g><g id="XMLID_265_"><circle id="XMLID_276_" class="st29" cx="429.8" cy="143.3" r="15.7"/><circle id="XMLID_275_" class="st30" cx="427.2" cy="141.3" r="15.7"/><g id="XMLID_266_"><path id="XMLID_274_" class="st15" d="M434.9 145.2h-15.4l-.6 4.8h16.6z"/><path id="XMLID_270_" class="st15" d="M433.9 136.8h-13.4l-.7 5.7h14.8l-.7-5.7zm-12.2 1.2c-.2 0-.4-.2-.4-.4s.2-.4.4-.4.4.2.4.4c0 .3-.2.4-.4.4zm10.8 0c-.2 0-.4-.2-.4-.4s.2-.4.4-.4.4.2.4.4c0 .3-.2.4-.4.4z"/><path id="XMLID_267_" class="st15" d="M422.2 136.8c.3-2.7 2.4-4.8 5-4.8s4.7 2.1 5 4.8h.8c0-3.4-2.6-6.2-5.8-6.2-3.2 0-5.8 2.8-5.8 6.2h.8zm5-5.7c2.7 0 4.9 2.1 5.3 4.9-.6-2.6-2.7-4.5-5.3-4.5s-4.7 1.9-5.3 4.5c.4-2.8 2.6-4.9 5.3-4.9z"/></g></g><g id="XMLID_253_"><circle id="XMLID_264_" class="st31" cx="385.5" cy="-191.5" r="15.7"/><circle id="XMLID_263_" class="st30" cx="382.8" cy="-194.2" r="15.7"/><g id="XMLID_254_"><path id="XMLID_262_" class="st15" d="M390.5-189.3h-15.4l-.6 4.8h16.6z"/><path id="XMLID_258_" class="st15" d="M389.5-197.7h-13.4l-.7 5.7h14.8l-.7-5.7zm-12.1 1.2c-.2 0-.4-.2-.4-.4s.2-.4.4-.4.4.2.4.4c0 .3-.2.4-.4.4zm10.7 0c-.2 0-.4-.2-.4-.4s.2-.4.4-.4.4.2.4.4c0 .3-.2.4-.4.4z"/><path id="XMLID_255_" class="st15" d="M377.8-197.7c.3-2.7 2.4-4.8 5-4.8s4.7 2.1 5 4.8h.8c0-3.4-2.6-6.2-5.8-6.2-3.2 0-5.8 2.8-5.8 6.2h.8zm5-5.7c2.7 0 4.9 2.1 5.3 4.9-.6-2.6-2.7-4.5-5.3-4.5s-4.7 1.9-5.3 4.5c.4-2.8 2.6-4.9 5.3-4.9z"/></g></g><path id="XMLID_247_" class="st20" d="M227.1 287.2v-1.4c.1-.2.2-.4.5-.5v-1.4h1.1c.2 0 .2-.1.2-.2v-.5c0-.3-.1-.3-.3-.3h-1.1v-2.3c0-.6.1-1.2.3-1.7.4-1.1 1.3-1.7 2.4-1.7h9.6c1.1.2 2 .6 2.9 1.2.7.4 1.3.9 2 1.4.6.5 1.2 1 1.7 1.5.1.1.1.1.2.1.5.2 1 .3 1.5.5.6.2 1.2.5 1.7.7.3.1.5.4.7.7.4.6.5 1.2.6 1.8 0 .1.1.1.1.1.3.1.5.3.5.6 0 .4.1.7 0 1.1 0 .4-.2.7-.6.8-.2.1-.5 0-.7 0h-1.2c-.2 1.6-1.3 2.3-2.5 2.3s-2.2-.9-2.3-2.3h-10c-.1 1.4-1.1 2.2-2.3 2.3-.6 0-1.2-.2-1.6-.6-.5-.4-.8-1-.8-1.7h-2c-.1 0-.3-.1-.4-.2 0 0-.1-.2-.2-.3zm9-5.5h6.3c.1 0 .3 0 .4-.1.2-.1.4-.4.2-.6-.1-.2-.3-.3-.5-.5-.8-.6-1.6-1.2-2.5-1.5-.6-.2-1.1-.4-1.8-.4H236c.1 1 .1 2 .1 3.1zm-1.6-3.1h-2.9c-.5 0-.9.3-1.2.7-.4.5-.5 1.1-.5 1.7 0 .2.2.6.6.6h4.1c-.1-1-.1-2-.1-3zm-2.3 9.8c.4 0 .8-.4.8-.8s-.3-.8-.8-.8-.9.4-.9.8c.1.5.4.8.9.8zm14.8 0c.4 0 .9-.3.9-.8s-.4-.8-.8-.8c-.5 0-.9.4-.9.8 0 .5.4.9.8.8z"/><g id="XMLID_182_"><g id="XMLID_235_"><path id="XMLID_246_" class="st32" d="M351.3 307.2c.3 0 .5 0 .7-.1.2-.1.3-.2.5-.3.1-.1.2-.3.3-.4.1-.2.1-.3.1-.5s0-.4-.1-.5-.2-.3-.3-.3c-.1-.1-.3-.1-.4-.2-.2 0-.3-.1-.5-.1-.3 0-.5 0-.7.1-.2.1-.3.2-.5.3-.1.1-.2.3-.3.4-.1.2-.1.3-.1.4 0 .4.1.6.3.9.2.2.5.3 1 .3z"/><path id="XMLID_236_" class="st32" d="M365.3 312.5c0-.1.1-.4.1-.5s.2-.3.2-.4c.2-.5.6-.9.8-1.4l.9-1.5c.3-.5.6-1 .8-1.5.3-.5.5-1 .7-1.5.2-.5.4-1 .5-1.5s.2-1 .2-1.5c0-.2 0-.4-.1-.6 0-.2-.1-.4-.2-.5s-.2-.3-.4-.4c-.2-.1-.4-.1-.6-.1-.3 0-.6.1-1 .3-.3.2-.6.4-.9.8-.3.3-.6.7-.8 1.2-.3.4-.5.9-.7 1.4-.1.3-.2.6-.4 1 0-.5-.1-1-.3-1.4-.2-.5-.5-.9-1-1.3-.4-.4-1-.7-1.6-.9-.7-.2-1.4-.4-2.3-.4-.7 0-1.3.1-1.9.3s-1.1.5-1.6.9-.9.9-1.3 1.4-.7 1.1-1 1.8c-.3.7-.5 1.4-.6 2.1-.1.8-.2 1.5-.2 2.3 0 .5 0 1 .1 1.5 0 .3.1.6.1 1-.2.2-.4.4-.6.5-.2.2-.5.3-.7.5-.2.1-.4.2-.6.2s-.3-.1-.3-.2c-.1-.1-.1-.3-.1-.6 0-.2 0-.5.1-.8s.1-.6.2-.9c0-.3.1-.6.3-1.1.1-.4.2-.8.3-1 .1-.3.1-.5.2-.7.1-.2.1-.4.1-.5s0-.2-.1-.3-.2-.1-.4-.1h-.4c-.1 0-.3.1-.4.1-.1.1-.3.1-.4.2-.1.1-.2.2-.2.3 0 .2-.2.6-.4 1.2-.2.8-.4 1.2-.4 1.5 0 .1-.1.5-.2 1.2-.2.2-.4.3-.6.5-.1.1-.2.2-.4.3-.1.1-.3.2-.4.2-.1.1-.2.1-.4.2-.1 0-.2.1-.3.1s-.2 0-.2-.1c-.1-.1-.1-.1-.2-.3 0-.1-.1-.2-.1-.4v-.4-.4c0-.1 0-.3.1-.4 0-.1 0-.2.1-.3 0-.1.1-.2.1-.3.1-.3.4-1 .9-1.9.3-.6.5-1.2.8-1.8.2-.6.4-1.2.6-1.9.2-.6.3-1.3.3-2.1v-.6c0-.3 0-.6-.1-.9 0-.3-.1-.5-.2-.7s-.2-.4-.4-.5c-.2-.1-.4-.2-.6-.2-.3 0-.7.1-1 .3-.3.2-.6.5-.9.8-.3.4-.5.8-.8 1.3-.2.5-.4 1-.6 1.6-.1.6-.3 1.1-.4 1.6-.1.5-.2 1.1-.2 1.8-.4 0-.8.1-1.1.3-.3.1-.7.4-1 .6-.3.3-.6.6-.8 1-.2.3-.4.7-.5 1-.2.3-.3.7-.4 1 0 .2-.1.4-.1.5l-.9.6c-.3.2-.7.3-1 .5-.3.1-.7.2-1 .2h-.3l-.2-.1c-.1 0-.2-.1-.2-.2-.1-.1-.2-.2-.2-.3.4-.1.9-.3 1.2-.5.4-.2.7-.5 1-.7.3-.3.5-.6.7-1 .2-.4.3-.7.3-1s-.1-.6-.2-.8c-.1-.2-.2-.4-.4-.6-.2-.2-.4-.3-.6-.4-.2-.1-.5-.1-.8-.1-.4 0-.7.1-1 .2-.3.1-.5.3-.8.5-.2.2-.4.5-.6.7-.2.3-.3.6-.4.9-.1.3-.2.7-.3 1-.1.4-.2.7-.2 1v.5c-.1.1-.2.3-.4.4l-.4.4c-.1.1-.3.2-.4.3-.1.1-.3.1-.4.1-.2 0-.4 0-.5-.2-.1-.1-.2-.3-.2-.5s0-.4.1-.8c.1-.3.1-.7.2-1.1.1-.4.2-.9.2-1.3.1-.5.2-.9.3-1.4s.2-1 .3-1.4c.1-.5.1-.9.1-1.4s0-.9-.1-1.3-.2-.8-.4-1.1c-.2-.3-.4-.6-.6-.8-.2-.2-.5-.3-.8-.3-.5 0-.9.1-1.3.3-.4.2-.8.6-1.2 1s-.7.9-1 1.5c-.3.6-.5 1.3-.7 2.1h-.2c0-.4.1-.7.1-1v-.4-.4-.3-.2c0-.5 0-.8-.1-1.2-.1-.3-.2-.6-.3-.8s-.3-.4-.5-.5c-.2-.1-.4-.2-.7-.2-.3 0-.6.1-1 .3-.3.2-.7.4-1 .7-.3.3-.6.7-.9 1.1-.3.4-.6.9-.9 1.5-.3.5-.5 1.1-.7 1.8-.2.6-.4 1.3-.6 2l.3-1.2s.2-.8.2-1.3c.1-.4.1-.8.2-1.2s.1-.7.1-1c0-.4 0-.7-.1-1 0-.3-.1-.6-.3-.8-.1-.2-.3-.4-.5-.5-.2-.1-.5-.2-.8-.2-.2 0-.5.1-.8.2-.3.1-.5.3-.8.5-.3.2-.5.6-.7 1-.2.4-.4.9-.6 1.5V306.1c0 .1 0 .1.1.2 0 .1 0 .1.1.2l.1.1c.1 0 .1 0 .2-.1.1 0 .1-.1.1-.2.2-.2.3-.4.5-.6.2-.2.4-.4.6-.5.2-.1.4-.3.5-.3.2-.1.3-.1.4-.1s.1 0 .2.1c0 0-.4-.1-.4 0s-.4.1-.4.2.1.3.1.3c0 .5.4 1 .4 1.5s.2.9.1 1.4c0 .4 0 .9-.1 1.3 0 .4-.1.9-.2 1.3-.1.5-.3.9-.4 1.5-.1.5-.2 1.1-.4 1.7 0 .2-.1.4-.1.5v.6c0 .1 0 .2.1.3s.1.2.2.2c.1.1.2.1.3.1h.8c.1 0 .2-.1.3-.1.1-.1.2-.1.3-.2.1-.1.1-.2.1-.4.1-.5.2-1 .4-1.6.1-.6.3-1.1.4-1.7.1-.6.3-1.2.5-1.8.2-.6.4-1.2.7-1.7.2-.5.5-1 .7-1.5.2-.5.5-.9.7-1.2.2-.3.4-.6.6-.8s.4-.3.5-.3c.2 0 .3 0 .4.1.1.1.2.2.3.4s.1.4.1.6v.9c0 .5-.1 1-.2 1.5s-.2 1.1-.3 1.7c-.1.5-.2 1.1-.3 1.7-.1.6-.2 1.1-.3 1.5-.1.5-.2.8-.2 1.2-.1.3 0 .6.1.7 0 .2 0 .4.1.5 0 .1.1.3.2.3.1.1.2.2.3.2s.2.1.3.1h.3s.2-.1.3-.1c.1-.1.2-.1.3-.2.1-.1.1-.2.2-.4.1-.5.2-1 .3-1.6s.2-1.1.3-1.8c.1-.6.3-1.2.4-1.8s.3-1.1.5-1.7l.6-1.5c.2-.5.4-.8.6-1.2.2-.3.5-.6.7-.8.3-.2.5-.3.8-.3.1 0 .3 0 .3.1.1.1.2.2.2.3s.1.3.1.5v.6c0 .3 0 .7-.1 1.1-.1.4-.1.8-.2 1.3-.1.4-.2.9-.2 1.3-.1.4-.2.9-.2 1.3-.1.4-.1.8-.2 1.2-.1.4-.1.8-.1 1.1v.2c0 .4.1.7.2 1 .1.3.3.5.5.7.2.2.4.3.7.4.3.1.5.1.8.1.3 0 .6 0 .9-.1.3-.1.6-.2.9-.4.3-.2.5-.4.8-.7.1.1.1.2.2.3.2.3.5.5.9.7s.8.3 1.3.3c.3 0 .6 0 .9-.1l.9-.3s.5-.3.8-.4c.2-.1.4-.3.6-.4.1.2.1.3.2.4l.6.6c.2.1.5.2.9.2.2 0 .5 0 .7-.1.2-.1.5-.2.7-.3.2-.1.4-.3.7-.5l.6-.6c.1.3.3.6.4.8.2.2.3.3.5.4.2.1.3.2.5.2h.3c.1 0 .3 0 .4-.1.1 0 .3-.1.5-.2s.3-.2.5-.3c.2-.1.3-.2.5-.3.1-.1.3-.2.4-.3v.2c0 .2.1.4.2.5.1.1.3.2.4.3.2.1.4.1.7.1.3 0 .6-.1.9-.2.3-.1.7-.2 1-.4.3-.2.6-.3.9-.5.1-.1.2-.2.3-.2.1.3.2.5.3.8.2.5.4.9.6 1.3.2.4.5.7.9.9.3.2.7.3 1.1.3.4 0 .8-.1 1.1-.2.3-.1.6-.3.9-.6.3-.2.5-.5.7-.9.2-.3.4-.7.5-1 .1-.4.3-.7.3-1.1.1-.4.1-.8.1-1.1v-.2-.3-.4-.4-1c.8-.1 1.5-.3 2.1-.6s1.1-.7 1.5-1.1c.2-.2.4-.5.5-.7 0 0-.1.4-.2 1.3-.1.8-.2 1.5-.2 2 0 .6 0 1.1.1 1.7.1.5.2 1 .4 1.4.2.4.4.7.6 1 .2.2.5.4.8.4.2 0 .4 0 .6-.1.2 0 .4-.1.6-.2l.6-.3s.3-.2.5-.2l.2.2c.2.2.4.3.6.4.2.1.5.2.7.2.2 0 .5 0 .7-.1.2-.1.5-.2.7-.3.2-.1.4-.3.6-.4.2-.1.3-.3.5-.4.2.4.4.7.6.9s.5.3.9.3c.3 0 .6-.1.8-.2.2-.1.3-.2.5-.3h.3s.3 0 .5-.1l.6.3s.4.1.5.2c.1 0 .3.1.3.1h.2c.3 0 .5 0 .8-.1.3-.1.6-.1.8-.2.3-.1.5-.2.8-.4.1 0 .2-.1.2-.1 0 .1.1.1.1.2.2.2.4.3.6.4.2.1.5.2.7.2.2 0 .5 0 .7-.1.2-.1.5-.2.7-.3.2-.1.4-.3.6-.4.2-.1.3-.3.5-.4.2.4.4.7.6.9.2.2.5.3.9.3.3 0 .6-.1.8-.2.3-.1.5-.3.8-.5.2-.2.5-.4.7-.6.2-.2.4-.4.5-.6l-.4-1.7c-.3.3-.5.7-.8.9l-.3.3s-.2.2-.4.3c-.1.1-.2.2-.4.2-.1.1-.2.1-.3.1s-.2-.1-.3-.2c0-.1-.1-.3-.1-.6s0-.6.1-1 .2-.8.2-1.1c.1-.3.1-.6.2-.9.1-.3.1-.6.1-.8v-.4c0-.1-.1-.2-.1-.2-.1-.1-.1-.1-.2-.1h-1s-.1-.1-.2-.1c0-.1-.1-.1-.1-.2s-.1-.1-.2-.2c-.1 0-.2-.1-.3-.1-.4 0-.7.1-1.1.2-.3.2-.7.4-1 .6l-.9.9c-.3.3-.5.8-.7 1.2-.2.5-.4.9-.5 1.3-.1.4-.2.7-.2 1.1-.1.1-.2.1-.2.2-.1.1-.3.2-.4.3-.2.1-.3.2-.5.2-.2.1-.4.1-.6.1-.1 0-.2 0-.3-.1-.1 0-.3-.1-.4-.1-.1 0-.2-.1-.3-.1s-.1-.1-.1-.1v-.2c0-.1.1-.2.3-.4.1-.2.3-.4.5-.6.2-.2.4-.5.6-.8l.6-.9c.2-.3.4-.5.5-.7s.2-.4.3-.5c.2-.1.4-.1.5-.2l.2-.2v-.5s0-.4-.1-.5-.2-.2-.4-.2h-.2c-.1 0-.2.3-.3.3s-.3.2-.5.2h-.2c-.1 0-.2-.2-.3-.2s-.3-.2-.4-.2c-.1-.1-.2-.2-.4-.3-.1-.1-.2-.2-.4-.2-.1-.1-.2-.1-.4-.1s-.3 0-.5.1l-.6.3c-.2.2-.3.4-.5.6-.1.3-.3.6-.3 1.1v.7s.1.1.2.1.2-.1.3-.2c.1-.1.2-.3.4-.5.1-.1.1-.2.2-.3.1-.1.1-.1.2-.1s.2 0 .3-.1H375.8s.1 0 .2.1c.1 0 .1.1.2.1s.1.1.2.1l-1.9 2.6c-.1.2-.3.4-.4.5l-.3.3s-.2.2-.4.3c-.1.1-.2.2-.4.2-.1.1-.2.1-.3.1s-.2-.1-.3-.2c0-.1-.1-.3-.1-.6s0-.6.1-1 .2-.8.2-1.1c.1-.3.1-.6.2-.9.1-.3.1-.6.1-.8v-.4c0-.1-.1-.2-.1-.2-.1-.1-.1-.1-.2-.1h-1c-.1 0-.1-.1-.2-.1 0-.1-.1-.1-.1-.2s-.1-.1-.2-.2c-.1 0-.2-.1-.3-.1-.4 0-.7.1-1.1.2-.3.2-.7.4-1 .6l-.9.9c-.3.3-.5.8-.7 1.2-.2.5-.4.9-.5 1.3-.1.3-.1.6-.2 1-.1 0-.2.1-.2.1-.2.1-.3.2-.4.2-.1.1-.3.1-.4.2-.1 0-.2.1-.3.1l-.3-.1c0-.1-.1-.1-.2-.2.7 0 .7-.3.7-.7zm-29.5-.8c0-.2.1-.4.1-.6.1-.2.2-.4.2-.6.1-.2.1-.3.3-.4.1-.1.2-.2.4-.3.2-.1.3-.1.6-.1.1 0 .2.1.3.2.1.1.1.3.1.6 0 .2-.1.4-.3.6l-.6.6c-.2.1-.4.3-.6.4-.2.1-.4.1-.6.1.1-.2.1-.4.1-.5zm7.7 1.6c-.1.1-.1.2-.2.3l-.2.2c-.1.1-.2.1-.3.2-.1 0-.2.1-.3.1-.2 0-.3 0-.4-.1-.1 0-.2-.1-.3-.2-.1-.1-.1-.1-.1-.2v-.2c0-.3 0-.5.1-.9.1-.3.2-.7.4-1.2.2-.4.4-.8.7-1.1.3-.3.6-.5.9-.7v3c0 .4-.1.6-.3.8zm2-3.3v-.4c0-.1.1-.3.1-.5s.1-.4.1-.6c0-.2.1-.5.1-.7 0-.1 0-.3.1-.6 0-.3.1-.6.1-1s.1-.7.2-1.1c.1-.4.2-.7.3-1.1.1-.3.2-.6.3-.8s.3-.3.5-.3c.1 0 .2.1.2.2s.1.3.1.6v.9c0 .3-.1.6-.1.9-.1.3-.1.6-.2.9l-.3.9c-.1.3-.3.6-.4.9-.5.4-1.1 1.1-1.1 1.8zm17-3.1c-.1.3-.3.5-.5.8-.2.2-.5.4-.9.6-.4.2-.8.3-1.3.4l.1-.6.5-2v-.1-.1s0-.2-.1-.3l-.2-.2c-.1 0-.2-.1-.3-.1h-.3c-.3 0-.6.1-.8.2-.2.2-.4.3-.5.6-.1.2-.2.5-.3.8s-.1.5-.1.8v1.1c-.1 0-.2-.1-.3-.1s-.2-.1-.4-.2c-.1-.1-.3-.1-.5-.2-.1 0-.1-.1-.2-.1h-.1c-.1 0-.1 0-.2.1 0 0-.1.1-.1.2v.5c0 .2 0 .3.1.5 0 .1.1.3.2.4l.4.4c.2.1.8.3.8.4v.4c0 .2.1.5.1.9v1.1c0 .4-.1.7-.1 1.1-.1.4-.1.7-.3 1-.1.3-.3.5-.5.7-.2.2-.4.3-.7.3-.3 0-.5-.1-.6-.3-.2-.2-.3-.5-.4-.8s-.2-.7-.2-1.1c-.1-.4-.1-.8-.1-1.2v-1.1-.8c0-.5 0-1 .1-1.6.1-.5.2-1.1.3-1.6l.6-1.5s.5-.8.9-1.2c.3-.3.7-.6 1.1-.8s.9-.3 1.4-.3c.7 0 1.3.1 1.7.2.5.2.8.4 1.1.6.3.2.5.5.6.8s.2.6.2.9c-.1-.1-.1.2-.2.5zm3.1.9c.1-.7.2-1 .2-1s.1-.4.3-1.1c.2-.8.4-1.3.6-1.6.2-.3.3-.6.5-.8.2-.2.3-.3.5-.3 0 0 .1.1.1.2v.4c0 .5-.2 1-.3 1.5-.2.5-.4 1.1-.6 1.6-.2.5-.5 1.1-.7 1.6-.3.5-.5 1-.7 1.4-.1-.6 0-1.2.1-1.9zm5.6 4.3c0 .2-.1.4-.1.6-.1.2-.2.5-.3.7s-.2.4-.4.6c-.2.2-.3.2-.5.2-.1 0-.2 0-.3-.1l-.2-.2c0-.1-.1-.2-.1-.3v-.4c0-.2 0-.5.1-.7l.3-.9c.1-.3.3-.6.4-.8.1-.2.3-.4.5-.6.2-.2.4-.3.6-.4.2-.1.4-.2.6-.2l-.6 2.5zm11.8 0c0 .2-.1.4-.1.6-.1.2-.2.5-.3.7s-.2.4-.4.6c-.2.2-.3.2-.5.2-.1 0-.2 0-.3-.1l-.2-.2c0-.1-.1-.2-.1-.3v-.4c0-.2 0-.5.1-.7l.3-.9c.1-.3.3-.6.4-.8s.3-.4.5-.6c.2-.2.4-.3.6-.4.2-.1.4-.2.6-.2l-.6 2.5z"/></g><path id="XMLID_232_" class="st32" d="M376.4 278.1c0-2.4-1.5-4.6-3.7-5.7.6-1.9 1.1-3.8 1.1-5.8 0-1.9-.4-3.9-1.9-5.2-1.5-1.4-3.7-2-5.8-2-2.2-.1-4.5.4-6.7.9-.3.1-.5.1-.8.2-3-4.4-10.2-4.3-13.3-.2-2.3-.5-4.6-.8-7-.6-1.2.1-2.3.3-3.4.7-.9.3-1.9.8-2.5 1.5l-.1.1s-.1 0-.1.1c-3 2.5-2.3 7.2-1.4 10.6-2.1 1.2-3.6 3.3-3.6 5.8 0 1.2.4 2.3 1 3.3s1.5 1.7 2.6 2.2c-.6 1.9-1.1 3.9-1.1 5.9 0 1.9.5 3.9 2 5.2 1.5 1.2 3.4 1.6 5.3 1.7 2.2.2 4.4-.1 6.5-.5.5-.1.9-.2 1.4-.3 3 4.4 10.2 4.4 13.4.2 2.1.5 4.3.8 6.4.7 2 0 4.2-.4 5.8-1.7.6-.5 1.2-1 1.7-1.6.6-.8.9-1.7 1.1-2.7.4-2.1.1-4.2-.4-6.3-.1-.3-.1-.6-.2-.8 2.2-1.1 3.7-3.2 3.7-5.7zm-4.5 5.1c-.2.1-.3.4-.2.6.6 1.9 1 4 .8 6-.1.9-.3 1.8-.7 2.7-.4.8-1 1.3-1.7 1.9-1.4 1.2-3.4 1.6-5.2 1.6-2.2.1-4.5-.3-6.7-.8-.2-.1-.4 0-.6.2-2.7 4-9.6 3.9-12.1-.3-.1-.2-.4-.3-.6-.2-2.1.5-4.2.8-6.3.9-1.9 0-4-.1-5.7-1.1-1.7-.9-2.2-2.8-2.3-4.6 0-2.1.5-4.3 1.2-6.3.1-.2 0-.5-.2-.6-1-.4-1.9-1-2.5-2-.6-.8-.9-1.8-.9-2.8-.1-2.3 1.5-4.2 3.5-5.2.2-.1.3-.4.2-.6-.9-3-1.8-7.5.8-9.9.1-.1.3-.2.4-.3.1 0 .1-.1.1-.1.5-.6 1.3-.9 2-1.2 1-.4 2.1-.5 3.1-.6 2.3-.1 4.7.2 6.9.7.2.1.4 0 .6-.2 2.7-3.9 9.5-4 12 .2.1.2.4.3.6.2 2.1-.5 4.2-1 6.4-1.1 2-.1 4.1.2 5.8 1.3 1.6 1.1 2 2.9 2.1 4.7 0 2.1-.5 4.1-1.2 6.1-.1.2 0 .5.2.6 2 .9 3.4 2.6 3.5 4.8.3 2.5-1.3 4.4-3.3 5.4z"/><g id="XMLID_215_"><path id="XMLID_228_" class="st33" d="M337.7 289.7l.2.1s-4.8-3 7.8-6.9c0 .1-.1.1-.2.1l1.6-1.4.1.1c-2.4-2.1-2.8-4.8.2-7.3l-1.3-1.2c-.5.5.1.1.1.1-12.6-3.9-7.9-6.8-7.9-6.8s-.5.4 0 0l-3.5-3c-.5.4-.1.1-.2.2-2.5 2.2-2 6.2-1 9.5-.5.2-1 .6-1.4.9-2.6 2.2-2.6 5.8-.1 8 .5.4.8.6 1.4.8-1.1 3.4-2 7.7.5 9.9l3.7-3.1zm-1-15.5s-.7-3.8 8.8 0c-9.6 3.8-8.8 0-8.8 0zm.1 8.2s-.7-3.8 8.8 0c-9.5 3.8-8.8 0-8.8 0z"/><path id="XMLID_224_" class="st34" d="M333.9 293c2.5 2.1 7.9 1.7 11.8.7.3.5.7 1 1.2 1.4 2.6 2.2 6.8 2.2 9.4 0 .4-.4.8-.8 1.1-1.2 3.8.9 8.6 1.3 11.1-.9l.2-.2-3.5-3c-.5.4 0 0 0 0s-3.4 4-7.9-6.8c.1 0-.4.5.2.1l-1.3-1.2c-3 2.6-6.5 1.9-8.9-.1l-.2-.2-1.6 1.4c.1 0 .3.1.4.1-4.5 10.8-8 6.7-8 6.7l-.1-.1-3.9 3.3zm22.6-9.3c4.4 8.1 0 7.5 0 7.5s-4.4.6 0-7.5zm-9.6-.2c4.4 8.1 0 7.5 0 7.5s-4.4.6 0-7.5z"/><path id="XMLID_220_" class="st35" d="M365.8 266.5s-.1-.1 0 0c-.1 0 4.6 2.9-7.9 6.8 0-.1.1-.1.2-.1l-1.6 1.4h-.1c2.4 2.1 2.3 5.4-.2 7.5l1.3 1.2v-.2c12.6 3.9 7.9 6.8 7.9 6.8l-.1.1 3.5 3 .3-.3c2.5-2.2 2.1-6.3 1.1-9.6.5-.3 1-.6 1.4-.9 2.6-2.2 2.6-5.8.1-8-.5-.4-.9-.7-1.5-.9 1.1-3.4 1.9-7.8-.6-9.9l-3.8 3.1zm1.3 15.7s.7 3.8-8.8 0c9.5-3.9 8.8 0 8.8 0zm-.2-8.3s.7 3.8-8.8 0c9.5-3.8 8.8 0 8.8 0z"/><path id="XMLID_216_" class="st36" d="M369.6 263.2c-3-2.5-7.8-1.6-11.8-.6-.3-.5-.7-1-1.2-1.4-2.6-2.2-6.8-2.2-9.4 0-.4.4-.8.8-1.1 1.2-3.8-.9-8.7-1.2-11.2 1l-.3.3 3.5 3 .1-.1s3.3-4 7.9 6.8h-.2l1.3 1.2c2.5-2.1 6.5-2.1 8.9 0l.2.1 1.6-1.4h-.3c4.5-10.8 8-6.7 8-6.7h.1l3.9-3.4zm-22.4 9.4c-4.5-8.1 0-7.5 0-7.5s4.4-.6 0 7.5zm9.6.2c-4.5-8.1 0-7.5 0-7.5s4.4-.6 0 7.5z"/></g><g id="XMLID_183_"><path id="XMLID_213_" class="st33" d="M327.8 317.9h.7v6.3h2.5v.6h-3.2v-6.9z"/><path id="XMLID_210_" class="st33" d="M333.3 320c.5 0 .9.2 1.3.7.3.4.5 1 .5 1.8 0 .4-.1.8-.2 1.2s-.3.7-.6.9c-.3.2-.6.3-1 .3-.6 0-1-.2-1.3-.7-.3-.5-.5-1-.5-1.7 0-.6.1-1 .3-1.4.2-.4.5-.7.7-.8.3-.2.6-.3.8-.3zm.1.6c-.4 0-.7.2-.9.5-.2.3-.3.8-.3 1.4 0 .5.1.9.3 1.3.2.3.5.5.9.5.3 0 .6-.2.9-.5.2-.3.3-.8.3-1.4 0-.6-.1-1-.3-1.4-.4-.3-.6-.4-.9-.4z"/><path id="XMLID_208_" class="st33" d="M335.8 323.8c.5.4.9.6 1.3.6.3 0 .6-.1.8-.2.2-.2.3-.4.3-.6 0-.2-.1-.3-.2-.5-.1-.1-.4-.2-.8-.4-.5-.1-.8-.3-1.1-.5-.2-.2-.3-.5-.3-.8 0-.4.2-.7.5-1 .3-.3.7-.4 1.1-.4s.8.1 1.2.4v.7c-.4-.3-.8-.5-1.2-.5-.3 0-.5.1-.7.2-.2.2-.3.3-.3.5s.1.3.2.4c.2.1.4.2.8.3.9.3 1.4.7 1.4 1.3 0 .4-.2.8-.5 1-.3.3-.7.4-1.2.4-.4 0-.9-.1-1.3-.4v-.5z"/><path id="XMLID_205_" class="st33" d="M343.3 317.9h.7l1.9 6.8h-.7l-.6-2.4h-1.8l-.6 2.4h-.7l1.8-6.8zm.3.9l-.8 3.1h1.5l-.7-3.1z"/><path id="XMLID_203_" class="st33" d="M346.4 317.9h.6v6.8h-.6v-6.8z"/><path id="XMLID_200_" class="st33" d="M350.8 320.1h.5v4.9c0 .6-.2 1.1-.5 1.5-.3.4-.8.5-1.2.5s-.9-.2-1.4-.5v-.7c.5.5.9.7 1.3.7.3 0 .6-.1.8-.4.2-.3.3-.6.3-1.1v-1c-.2.2-.3.4-.5.6-.2.1-.4.2-.6.2-.5 0-.9-.2-1.2-.7-.3-.5-.5-1-.5-1.6 0-.7.2-1.3.5-1.7.4-.5.8-.7 1.2-.7.2 0 .4 0 .6.1s.3.2.5.4l.2-.5zm-.2 1c-.1-.2-.3-.3-.4-.4-.2-.1-.3-.1-.5-.1-.4 0-.7.2-.9.5-.2.4-.3.8-.3 1.3s.1.9.3 1.3c.2.3.5.5.8.5.3 0 .5-.1.7-.4.2-.3.3-.6.3-1.1v-1.6z"/><path id="XMLID_197_" class="st33" d="M353.8 320c.5 0 .9.2 1.3.7.3.4.5 1 .5 1.8 0 .4-.1.8-.2 1.2s-.3.7-.6.9c-.3.2-.6.3-1 .3-.6 0-1-.2-1.3-.7-.3-.5-.5-1-.5-1.7 0-.6.1-1 .3-1.4.2-.4.5-.7.7-.8.4-.2.6-.3.8-.3zm.1.6c-.4 0-.7.2-.9.5-.2.3-.3.8-.3 1.4 0 .5.1.9.3 1.3.2.3.5.5.9.5.3 0 .6-.2.9-.5.2-.3.3-.8.3-1.4 0-.6-.1-1-.3-1.4-.3-.3-.6-.4-.9-.4z"/><path id="XMLID_194_" class="st33" d="M359.1 317.9h.6v6.8h-.6v-.7c-.2.3-.3.4-.5.6-.2.1-.4.2-.6.2-.5 0-.9-.2-1.2-.7-.3-.5-.5-1-.5-1.7s.2-1.3.5-1.8.8-.7 1.3-.7c.2 0 .3 0 .5.1s.3.2.5.3v-2.4zm0 3.1c-.1-.2-.3-.3-.4-.4-.1-.1-.3-.1-.5-.1-.4 0-.7.2-.9.5-.2.3-.4.8-.4 1.4 0 .5.1 1 .3 1.3.2.4.5.5.8.5.3 0 .5-.1.7-.4.2-.3.3-.6.3-1l.1-1.8z"/><path id="XMLID_191_" class="st33" d="M362.4 320c.5 0 .9.2 1.3.7.3.4.5 1 .5 1.8 0 .4-.1.8-.2 1.2-.1.4-.3.7-.6.9-.3.2-.6.3-1 .3-.6 0-1-.2-1.3-.7-.3-.5-.5-1-.5-1.7 0-.6.1-1 .3-1.4.2-.4.5-.7.7-.8.3-.2.6-.3.8-.3zm.1.6c-.4 0-.7.2-.9.5-.2.3-.3.8-.3 1.4 0 .5.1.9.3 1.3.2.3.5.5.9.5.3 0 .6-.2.9-.5.2-.3.3-.8.3-1.4 0-.6-.1-1-.3-1.4-.4-.3-.6-.4-.9-.4z"/><path id="XMLID_189_" class="st33" d="M365.1 320.1h.6l.1.7c.2-.3.3-.5.6-.6.2-.1.4-.2.7-.2.4 0 .7.1.9.4.2.3.3.6.3 1.1v3.3h-.6v-3.3c0-.3-.1-.5-.2-.7s-.3-.2-.6-.2-.6.1-.8.4c-.2.3-.3.6-.3.9v2.9h-.6l-.1-4.7z"/><path id="XMLID_186_" class="st33" d="M372.4 324.3c-.5.4-1 .6-1.5.6-.6 0-1-.2-1.4-.7-.3-.4-.5-1-.5-1.7s.2-1.3.5-1.8c.4-.5.8-.7 1.3-.7s.9.2 1.2.6c.3.4.4.8.4 1.4v.3h-2.8v.2c0 .6.1 1.1.4 1.4.3.3.6.5.9.5.5 0 .9-.3 1.4-.8v.7h.1zm-.5-2.6c0-.4-.1-.7-.3-.9-.2-.2-.4-.3-.6-.3-.3 0-.5.1-.7.3-.2.2-.4.5-.5.9h2.1z"/><path id="XMLID_184_" class="st33" d="M373.2 323.8c.5.4.9.6 1.3.6.3 0 .6-.1.8-.2.2-.2.3-.4.3-.6 0-.2-.1-.3-.2-.5-.1-.1-.4-.2-.8-.4-.5-.1-.8-.3-1.1-.5-.2-.2-.3-.5-.3-.8 0-.4.2-.7.5-1 .3-.3.7-.4 1.1-.4s.8.1 1.2.4v.7c-.4-.3-.8-.5-1.2-.5-.3 0-.5.1-.7.2-.2.2-.3.3-.3.5s.1.3.2.4c.2.1.4.2.8.3.9.3 1.4.7 1.4 1.3 0 .4-.2.8-.5 1-.3.3-.7.4-1.2.4-.4 0-.9-.1-1.3-.4v-.5z"/></g></g><g id="XMLID_170_"><circle id="XMLID_181_" class="st37" cx="440.1" cy="-115.8" r="15.7"/><circle id="XMLID_180_" class="st38" cx="438.1" cy="-118.4" r="15.7"/><g id="XMLID_171_"><g id="XMLID_176_"><path id="XMLID_179_" class="st39" d="M441.1-113.7l-7.4-7.3"/><path id="XMLID_178_" class="st40" d="M446.6-126.6c-2-2-5.3-2-7.3 0l-3.5 3.5 7.3 7.3 3.5-3.5c2-2 2-5.2 0-7.3z"/><path id="XMLID_177_" class="st40" d="M441.01-113.627l-7.286-7.283 2.05-2.05 7.285 7.282z"/></g><g id="XMLID_172_"><path id="XMLID_175_" class="st20" d="M430.2-117.4c-2 2-2 5.3 0 7.3s5.3 2 7.3 0l3.5-3.5-7.3-7.3-3.5 3.5z"/><path id="XMLID_174_" class="st40" d="M446.6-126.6c-2-2-5.3-2-7.3 0l-3.5 3.5 7.3 7.3 3.5-3.5c2-2 2-5.2 0-7.3z"/><path id="XMLID_173_" class="st38" d="M441.01-113.627l-7.286-7.283 2.05-2.05 7.285 7.282z"/></g></g></g><g id="XMLID_146_"><circle id="XMLID_169_" class="st41" cx="338.5" cy="-201.2" r="15.7"/><circle id="XMLID_155_" class="st42" cx="335.1" cy="-204.5" r="15.7"/><g id="XMLID_147_"><g id="XMLID_153_"><path id="XMLID_154_" class="st43" d="M344.8-211.1l-9.7-4.9-9.7 4.9-.8-1.5 10.3-5.2h.5l10.2 5.2z"/></g><g id="XMLID_148_"><g id="XMLID_149_"><g id="XMLID_150_"><path id="XMLID_151_" class="st43" d="M330.8-211.1v6.9h7.3v-6.9h3.1v17.2h-3.1v-7.6h-7.3v7.6h-3.1v-17.2h3.1z"/></g></g></g></g></g><g id="XMLID_2_"><circle id="XMLID_145_" class="st44" cx="436.8" cy="-187.2" r="15.7"/><circle id="XMLID_144_" class="st45" cx="434.8" cy="-189.8" r="15.7"/><g id="XMLID_3_"><path id="XMLID_135_" class="st46" d="M440.6-189.9c-.3.6-.7 1.1-1.2 1.1h-7.9c-.5 0-.9-.4-.9-.9l-3-6.6c0-.5.4-.9.9-.9h14.6c.5 0 .9.4.9.9l-3.4 6.4z"/><path id="XMLID_100_" class="st46" d="M427.7-196l-.5-.9h-1.6v-2.3h2.9l1.2 2.1z"/><path id="XMLID_93_" class="st46" d="M441.9-184.9h-10.3c-1.2 0-2.2-.5-2.6-1.3-.3-.6-.3-1.4.1-2 .4-.6 1.6-2.6 1.6-2.6l1.9 1.2-1.5 2.4c.1 0 .3.1.6.1H442v2.2h-.1z"/><circle id="XMLID_5_" class="st46" cx="430.9" cy="-182.4" r="1.9"/><circle id="XMLID_4_" class="st46" cx="440.1" cy="-182.4" r="1.9"/></g></g></svg>